<?xml version="1.0" encoding="utf-8"?>
<svg version="1.1" id="Ebene_1" xmlns="http://www.w3.org/2000/svg" xmlns:xlink="http://www.w3.org/1999/xlink" x="0px" y="0px"
	 viewBox="0 0 133.1 211.7" style="enable-background:new 0 0 133.1 211.7;" xml:space="preserve">
<path fill="#fff" d="M0,105.3c0.1-0.8,0.1-1.6,0.2-2.4c1.3-2.6,3.3-4.7,5.3-6.7c4.7-4.6,9.4-9.4,14.1-14c0.5-0.5,1-0.9,1.3-1.5
	c1.6-1.2,3-2.6,4.2-4.2c0.4-0.3,0.8-0.6,1.1-0.9c6.3-6.3,12.6-12.6,18.9-18.9c0.4-0.4,0.8-0.9,1.2-1.4c1.6-1.3,3.1-2.7,4.3-4.3
	c0.3-0.2,0.6-0.4,0.9-0.6c6.4-6.4,12.8-12.8,19.2-19.2c0.3-0.3,0.4-0.6,0.6-0.9c1.6-1.2,3-2.7,4.2-4.2c0.6-0.2,1-0.7,1.4-1.2
	C82.4,19.5,87.8,14,93.2,8.6c1.1-1.1,2.4-2.1,3.3-3.4c1.4-1.3,2.7-2.6,4.1-3.8c0.2,0,0.4,0,0.5-0.1c3.6-2.3,8.8-1.5,11.9,1.8
	c1.2,1.3,2.3,2.7,3.8,3.6c1,1.5,2.2,2.7,3.7,3.7c0.2,0.7,0.8,1.1,1.3,1.6c2.8,2.8,5.6,5.6,8.3,8.3c2,2,2.8,4.3,2.9,7.1
	c0,2.5-1.4,4.2-2.4,6.2c-1.8,1.6-3.5,3.2-4.9,5.1c-0.7,0.2-1.1,0.8-1.5,1.3c-4.6,4.6-9.2,9.2-13.8,13.8c-0.5,0.5-1,0.9-1.3,1.5
	c-3,2.6-5.9,5.4-8.4,8.4c-0.7,0.2-1.1,0.8-1.5,1.3c-4.2,4.2-8.4,8.3-12.5,12.5c-1,1-2.2,1.9-3,3.2c-2.9,2.5-5.5,5.2-8,8
	c-0.2,0.1-0.5,0.2-0.6,0.4c-5.2,5.2-10.5,10.5-15.7,15.7c-0.3,0.3-0.8,0.5-0.4,1.1c0.5,1.1,1.5,1.8,2.3,2.6
	c4.7,4.7,9.4,9.3,14.1,13.9c2.8,3.1,5.8,6,8.8,8.8c5.3,5.5,10.7,11,16.2,16.2c2.9,3.2,6,6.3,9.2,9.2c5,5.3,10.2,10.4,15.5,15.5
	c2.6,3.1,6,5.5,7.8,9.2c0.1,0.3,0.1,0.5,0.2,0.8c-0.2,0.2-0.2,0.4,0.1,0.6c0,1.1,0,2.2,0,3.4c-0.3,0.2-0.3,0.4-0.2,0.7
	c-1.1,3.1-3.5,5.2-5.8,7.4c-0.5,0.6-1,1.2-1.5,1.8c-3.8,3.1-7.1,6.6-10.4,10.3c-0.4,0.4-0.9,0.7-1.2,1.1c-3.4,4-7.5,5.1-12.5,3.3
	c-2-1.3-3.5-3.3-5.3-4.7c-2.2-2.3-4.4-4.6-6.7-6.8c-4.5-4.5-9.1-9-13.6-13.4c-1.6-1.9-3.3-3.6-5.2-5.1c-4.1-4.2-8.2-8.4-12.3-12.5
	c-2.5-2.5-5.1-4.9-7.6-7.4c-1.6-1.9-3.3-3.6-5.2-5.2c-3.7-3.8-7.5-7.6-11.2-11.4c-2.9-2.9-5.8-5.7-8.7-8.5c-1.7-2-3.5-3.8-5.5-5.5
	c-0.4-0.5-0.9-1-1.3-1.5c-4.9-4.9-9.9-9.9-14.8-14.8c-1.4-1.4-2.7-3-3.6-4.8C0.1,107.8,0.1,106.5,0,105.3z"/>
</svg>
