<svg version="1.1" id="Ebene_1" xmlns="http://www.w3.org/2000/svg" xmlns:xlink="http://www.w3.org/1999/xlink" x="0px" y="0px"
	 viewBox="0 0 1222.6 359.3" enable-background="new 0 0 1222.6 359.3" xml:space="preserve">
<g>
	<path fill="#FFFFFF" d="M0,6.2C2.5,6,4.9,5.8,7.3,5.8c46.7,0,93.4-0.1,140.1,0c25.1,0.1,49.6,3.3,71.3,17.1
		c27.2,17.2,39.3,42.7,37.2,74.2c-2.1,31.1-19.1,52.8-47.4,65.5c-5.4,2.4-11.4,3.6-18.5,5.8c9.2,2.1,17.2,3,24.7,5.6
		c32.7,11.4,53.5,34.1,57.3,68.7c4.1,37.3-8.5,68.5-41,89.8c-17.9,11.8-38,18.3-59.1,18.7c-56.6,1.1-113.3,0.8-170,1
		c-0.5,0-0.9-0.3-1.9-0.6C0,236.8,0,121.7,0,6.2z M72.4,298.4c14,0,27.6,0.3,41.1-0.1c14.5-0.4,29.2-0.3,43.6-2.4
		c17.3-2.6,31.7-11,38.2-28.7c12-32.9-4.9-62.7-39.9-67c-22.8-2.8-46-1.7-69.1-2.3c-4.5-0.1-9.1,0-13.9,0
		C72.4,231.8,72.4,264.7,72.4,298.4z M72.4,149.6c20.2,0,40,0.2,59.9-0.1c5.5-0.1,11.2-1,16.6-2.4c23.4-5.8,36.4-22.1,36-44.8
		c-0.4-21.4-12.7-37.5-35.7-40.2c-25.2-3-50.8-2.2-76.7-3.1C72.4,90.2,72.4,119.7,72.4,149.6z"/>
	<path fill="#FFFFFF" d="M657.8,253.6c22,0,43.4-0.1,64.7,0.1c1.3,0,3.5,1.8,3.8,3.1c5.8,20.9,20.6,32.8,40.4,38.2
		c27.3,7.4,54.4,7.9,79.5-8c15.3-9.7,21.7-27.7,15.8-43.8c-3.6-9.7-10.6-16.9-20-20.1c-16.5-5.7-33.2-10.7-50.2-14.5
		c-28.7-6.5-57.9-10.7-83.6-26.4c-24.4-14.9-39.6-35.9-42.6-64.4c-4.5-41.7,11.7-74,47.2-96.4C737.9,5.8,765.9,0.2,795,0
		c30.3-0.2,59.7,4.3,86.1,20.4c29.9,18.3,46.4,44.9,48.7,80c0.1,1.4-0.1,2.9-0.2,4.7c-1.8,0.3-3.4,0.7-5,0.7c-19,0-38,0.2-56.9-0.1
		c-2.1,0-5.8-2.1-6.1-3.8C856.8,78,840.9,65.7,818.4,61c-20.6-4.3-41.1-3.9-60.3,6.5c-13.4,7.2-20.8,18.3-20.8,33.5
		c0,15.5,8.7,26.5,22.4,31.1c19.9,6.8,40.7,11,61,16.7c21,5.8,42.7,10.2,62.7,18.5c46.7,19.3,59.9,58.9,51.1,103.9
		c-7.4,37.8-31.6,62.6-66.6,75c-52.4,18.5-105.3,18.5-155.8-6.8c-33-16.5-51.7-44.1-54.3-81.6C657.7,256.8,657.8,255.8,657.8,253.6z
		"/>
	<path fill="#FFFFFF" d="M1222.5,352c-76,0-152.1,0-228.5,0c0-115.3,0-230.2,0-345.7c76.1,0,152.1,0,228.6,0c0,19.5,0,38.8,0,59
		c-51.8,0-103.7,0-156.1,0c0,28.2,0,55.5,0,83.8c49.2,0,98.1,0,147.4,0c0,18.9,0,36.8,0,55.7c-49.1,0-98.1,0-147.5,0
		c0,29.5,0,58.1,0,87.4c52.2,0,103.9,0,156.2,0C1222.5,312.4,1222.5,332,1222.5,352z"/>
	<path fill="#FFFFFF" d="M629.9,352.4c-25.2,0-49.2,0.1-73.3-0.2c-1.8,0-4.4-3.2-5.1-5.4c-7.8-24-15.5-48.1-22.8-72.3
		c-1.5-5-3.7-6.2-8.6-6.2c-36.3,0.2-72.5,0.2-108.8,0c-5.2,0-7.1,1.8-8.5,6.4c-7.2,23.7-14.9,47.3-22.1,71c-1.5,4.9-3.4,7-8.9,6.9
		c-22.1-0.3-44.2-0.1-67.5-0.1c0.9-2.9,1.5-5.1,2.3-7.3C345,234.6,383.5,124,421.7,13.4c2-5.7,4.4-7.8,10.7-7.7
		c23.6,0.4,47.2,0.3,70.8,0c5-0.1,7.2,1.6,8.8,6.2c38.5,111.3,77.3,222.6,115.9,333.8C628.5,347.5,629,349.4,629.9,352.4z
		 M466.8,72.7c-0.7,0.1-1.4,0.2-2.1,0.3c-14.6,46.8-29.3,93.6-44.1,140.9c30.7,0,60,0,90.3,0C496.2,166.4,481.5,119.5,466.8,72.7z"
		/>
</g>
</svg>
