<?xml version="1.0" encoding="utf-8"?>
<svg version="1.1" id="Ebene_1" xmlns="http://www.w3.org/2000/svg" xmlns:xlink="http://www.w3.org/1999/xlink" x="0px" y="0px"
	 viewBox="0 0 456 400.3" style="enable-background:new 0 0 456 400.3;" xml:space="preserve">
<style type="text/css">
	.st0{fill:#FFFFFF;}
</style>
<g>
	<path class="st0" d="M255.5,391.7c-9.2,0-18.3,0-27.5,0c-9.2,0-18.3,0-27.5,0c-9,0-18,0-27,0c-9.2,0-18.3,0-27.5,0
		c-9.2,0-18.3,0-27.5,0c-9.2,0-18.3,0-27.5,0c-9,0-18,0-27,0c-5.8-0.3-11.6,0-17.5-0.4c-18.7-1.2-35.2-17.2-37.1-35.9
		c-0.6-6.2-0.1-12.5-0.5-18.7c0-9,0-18,0-27c0-9.2,0-18.3,0-27.5c0-9.2,0-18.3,0-27.5c0-9.2,0-18.3,0-27.5c0-9,0-18,0-27
		c0-9.2,0-18.3,0-27.5c0-9.2,0-18.3,0-27.5c0-9.2,0-18.3,0-27.5c0-3.6,0.1-7.1,0.1-10.7c0-3.3,0-6.7,0.7-9.9
		c4-20.2,20.4-33.7,41-33.8c4.4,0,8.8-0.1,13.2-0.1c9,0,18,0,27,0c9.2,0,18.3,0,27.5,0c1.8,0,3.6,0,5.5,0.1c0.9,0,1.5-0.2,1.9-1.2
		c3.2-8.8,6.5-17.5,9.7-26.3c2.4-6,5.8-11.4,10.4-16c5.8-5.2,12.5-8.5,20-10.5c2.5-0.2,5-0.5,7.5-0.7c9,0.1,18,0.3,27-0.1
		c9.1,0.3,18.3,0.3,27.4,0c9.2,0.3,18.4,0.3,27.5,0c9,0.3,18,0.3,26.9,0c3.2,0.1,6.5,0.2,9.7,0.3c6.3,1.8,12.2,4.1,17.2,8.5
		c1.9,2,3.7,4,5.3,6.2c2.6,3.8,3.8,8.2,5.8,12.2c2.6,7.1,5.2,14.3,7.9,21.4c2.4,6.3,2.4,6.3,9.2,6c9.2,0,18.3,0,27.5,0
		c9,0,18,0,27,0c5,0,10,0,15,0.1c22.4,0.7,39.9,18.8,40,41.2c0,4.4,0.1,8.8,0.1,13.2c0,9.2,0,18.3,0,27.5c0,9.2,0,18.3,0,27.5
		c0,9.2,0,18.3,0,27.5c0,9,0,18,0,27c0,9.2,0,18.3,0,27.5c0,9.2,0,18.3,0,27.5c0,9.2,0,18.3,0,27.5c0,9,0,18,0,27
		c-0.4,6.4,0.2,12.8-0.5,19.2c-1.8,17.8-18.3,33.9-36.1,35.4c-6.2,0.5-12.3,0.1-18.5,0.4c-9,0-18,0-27,0c-9.2,0-18.3,0-27.5,0
		c-9.2,0-18.3,0-27.5,0c-9.2,0-18.3,0-27.5,0C273.5,391.7,264.5,391.7,255.5,391.7z M255.5,49.8c-9.2,0-18.3,0-27.5,0
		c-9.2,0-18.3,0-27.5,0c-8.2,0-16.3,0-24.5-0.1c-1.5,0-2,0.8-2.4,2c-1.7,4.6-3.4,9.1-5.1,13.7c-4.5,12-9.1,23.9-13.4,36
		c-0.8,2.3-1.8,3.1-4.4,3.1c-10.7-0.1-21.5,0-32.2,0c-9,0-18,0-27,0c-9.2,0-18.3,0-27.5,0c-4.1,0-8.1,0-12.2-0.1
		c-1.3,0-1.7,0.5-1.7,1.8c0.1,3.9,0.1,7.8,0.2,11.7c-0.2,9.2-0.2,18.3,0,27.5c-0.2,9.2-0.2,18.3,0,27.5c-0.2,9.2-0.2,18.3,0,27.5
		c-0.2,9-0.2,18,0,27c-0.2,9.2-0.2,18.3,0,27.5c-0.2,9.2-0.2,18.3,0,27.5c-0.2,9.2-0.2,18.3,0,27.5c-0.2,9-0.2,18,0,27
		c0,4.2-0.1,8.3-0.2,12.5c0,1.1,0.4,1.5,1.5,1.5c4.2-0.1,8.3-0.1,12.5-0.2c9,0.3,18,0.3,27,0c9.2,0.3,18.3,0.3,27.5,0
		c9.2,0.3,18.3,0.3,27.5,0c9.2,0.3,18.3,0.3,27.5,0c9,0.2,18,0.3,27,0c9.2,0.3,18.4,0.3,27.5,0c9.1,0.3,18.3,0.3,27.4,0
		c9,0.3,18,0.3,27,0c9.2,0.3,18.3,0.3,27.5,0c9.2,0.3,18.3,0.3,27.5,0c9,0.3,18,0.2,27,0c9.2,0.2,18.3,0.3,27.5,0
		c4.1,0.1,8.3,0.1,12.4,0.2c1.1,0,1.5-0.4,1.5-1.5c-0.1-4.1-0.1-8.3-0.2-12.4c0.3-9.2,0.2-18.3,0-27.5c0.2-9,0.2-18,0-27
		c0.2-9.2,0.2-18.3,0-27.5c0.2-9,0.2-18,0-27c0.2-9.2,0.2-18.3,0-27.5c0.2-9.2,0.2-18.3,0-27.5c0.2-9.2,0.2-18.4,0-27.5
		c0.2-9,0.2-18,0-27c0-4.2,0.1-8.3,0.2-12.5c0-1.3-0.6-1.5-1.7-1.5c-4.1,0.1-8.2,0.1-12.2,0.1c-9,0-18,0-27,0c-9.2,0-18.3,0-27.5,0
		c-9.2,0-18.3,0-27.5,0c-1.5,0-3-0.2-4.5-0.1c-2.5,0.3-3.9-0.5-4.6-3.1c-1-3.6-2.6-7-4-10.5c-3.3-9.2-6.6-18.4-10.3-27.5
		c-1-3.2-2.1-6.4-3.6-9.5c-0.8-1.5,0-4.1-2.9-4.1C271.9,49.8,263.7,49.8,255.5,49.8z"/>
	<path class="st0" d="M125.4,227.8c0-9.3,1.4-18.5,3.6-27.5c2.9-9.7,6.9-18.8,12.1-27.5c1.7-2.4,3.4-4.9,5-7.3
		c5.9-7.2,12.2-13.8,19.5-19.5c2.6-1.9,5.3-3.7,7.9-5.6c8.6-4.9,17.5-9.2,27.1-11.8c9-2.6,18.2-3.3,27.4-3.8
		c9.3,0.4,18.5,1.3,27.4,3.8c9.8,2.7,18.8,7,27.6,12.2c2.5,1.7,5,3.5,7.4,5.2c7.2,5.8,13.6,12.4,19.5,19.5c1.7,2.4,3.4,4.9,5,7.3
		c5.2,8.7,9.2,17.8,12.1,27.5c2.2,8.9,3.6,17.8,3.6,27c0,9.3-1.4,18.5-3.6,27.5c-2.9,9.7-6.9,18.8-12.1,27.5
		c-1.9,2.6-3.7,5.3-5.6,7.9c-5.6,6.7-11.6,13-18.4,18.4c-2.8,2-5.6,4-8.5,6c-8.6,4.9-17.4,9.2-26.9,11.8c-5.6,1.4-11.3,2.5-17.1,3.2
		c-3.5,0.4-7-0.1-10.4,0.6c-2.4,0-4.9,0.4-7.2,0c-6.8-1.1-13.6-1.9-20.3-3.8c-2-0.6-4-1.2-5.9-1.8c-7.4-2.5-14.2-6.2-21-9.9
		c-2.3-1.6-4.7-3.3-7-4.9c-7.4-5.7-14-12.3-19.9-19.5c-1.8-2.7-3.7-5.3-5.5-8c-5.2-8.6-9.2-17.8-12.1-27.5
		C126.8,245.9,125.4,236.9,125.4,227.8z M228,288.8c9.7,0.2,18.9-1.8,27.5-6.5c1-0.4,2-0.8,2.9-1.4c11.6-6.7,20.2-16.1,25.7-28.3
		c3.6-8,5.7-16.5,5.3-25.4c-0.4-8.9-2-17.5-5.8-25.5c-0.3-0.8-0.6-1.6-0.9-2.3c-4-8-9.6-14.7-16.6-20.2
		c-11.1-8.8-23.8-13.2-38.1-13.2c-9.5,0-18.5,1.8-27,6.3c-0.2,0.1-0.4,0.2-0.6,0.3c-19.2,9-34.4,30.9-33.9,54.7
		c-0.2,14.9,4.6,28,14.1,39.5c5.5,6.6,11.9,12,19.8,15.6c0.3,0.2,0.7,0.3,1,0.5C209.8,287.1,218.7,289,228,288.8z"/>
</g>
</svg>
