<svg xmlns="http://www.w3.org/2000/svg" xmlns:xlink="http://www.w3.org/1999/xlink" x="0px" y="0px"
	 viewBox="0 0 425.8 424" style="enable-background:new 0 0 425.8 424;" xml:space="preserve">
<path fill="#fff" d="M307.7,109.7c-4.1-4.1-8.1-8.3-12.2-12.4c-6-6.1-12.6-5.8-18.4,0.7c-7.2,7.2-14.4,14.5-21.6,21.7
	c-3,3-5.9,6-8.9,8.9c-7.3,7.1-14.5,14.3-21.5,21.6c-2.8,2.7-5.5,5.3-8.3,8c-2.6-2.4-5.2-5-7.8-7.4c-7.3-7.9-15-15.4-22.6-22.9
	c-2.4-2.8-5-5.3-7.7-7.8c-1.3-1.4-2.7-3-4.1-4.4c-6-6.1-11.9-12.3-18.2-18.2c-4.3-5.3-11.9-6.4-16.5-2c-4.9,4.5-9.3,9.3-14,14.1
	c-3.7,3.4-7.2,6.9-10.5,10.5c-4.7,4.7-9.5,9.1-14.1,14c-4.8,5.1-4,11.9,1.4,16.5c6.3,6.4,12.8,12.9,19.1,19.2
	c1.3,1.3,2.4,2.9,4.1,3.7c2.6,2.6,5.1,5.1,7.8,7.7c7.4,7.8,15.1,15.3,22.9,22.7c2.4,2.6,4.9,5.1,7.2,7.7c-2.6,2.3-5.1,4.7-7.2,7.3
	c-7.7,7.1-15,14.5-22.2,22.1c-2.9,2.7-5.7,5.3-8.3,8.3c-7.5,7.4-15.4,14.6-22.6,22.3c-5.8,4.7-6.9,12-2.1,17
	c4.5,4.9,9.4,9.4,14.1,14.1c3.4,3.7,7,7.2,10.6,10.6c3.5,4.7,8,8.4,12.1,12.5c6.1,6.2,13.4,5.8,19.1-1c5.8-5.7,11.5-11.3,17.2-17.1
	c1.6-1.7,3.5-3,4.7-5.1c2.6-2.6,5.1-5.1,7.7-7.7c7.5-7.2,15-14.6,22.2-22.3c2.8-2.7,5.5-5.3,8.3-8c2.6,2.4,5.1,4.9,7.7,7.3
	c7.5,7.7,15.2,15.2,22.7,22.9c2.3,2.7,4.5,5.4,7.3,7.5c7.3,7.9,14.9,15.4,22.6,22.7c4.5,5.4,11.9,6.4,16.5,2
	c4.8-4.5,9.3-9.4,14.1-14.1c3.5-3.5,7.1-7.1,10.6-10.6c4.7-4.4,9.7-8.7,13.8-13.5c5.1-6,4.4-12-1.6-17.1
	c-7.7-7.5-15.2-15.2-22.9-22.7c-2.4-2.8-5-5.3-7.8-7.7c-7.4-7.8-15-15.3-22.7-22.6c-2.2-2.7-4.7-5-7.2-7.2c2.7-2.8,5.2-5.5,7.9-8.3
	c7.3-7.2,14.8-14.5,22.1-21.7c3-2.6,5.8-5.3,8.3-8.2c7.7-7.2,15-14.5,22.3-22.1c5.8-5,6.9-11.9,2.3-16.8c-4.7-5-9.7-9.7-14.4-14.4
	C314.9,116.6,311.5,113,307.7,109.7z M86,5h253.8c44.2,0,80.1,35.9,80.1,80.1v253.8c0,44.2-35.9,80.1-80.1,80.1H86
	c-44.2,0-80.1-35.9-80.1-80.1V85.1C5.9,40.9,41.8,5,86,5z"/>
</svg>
