<svg xmlns="http://www.w3.org/2000/svg" xmlns:xlink="http://www.w3.org/1999/xlink" x="0px" y="0px"
	 viewBox="0 0 120.5 136.8" style="enable-background:new 0 0 120.5 136.8;" xml:space="preserve">
<g>
	<path fill="#FFFFFF" d="M102.7,136.1c-1.8,0.6-3.6,0.6-5.5,0.6c-25.4,0-50.7,0-76.1,0c-5.4,0-11.3-4.1-12.4-10.5
		c-0.1-0.8-0.2-1.6-0.2-2.4c0-1.4,0-2.8,0-4.1c0.1-2.9,0.1-5.7,0-8.6c0.1-2.8,0.1-5.6,0-8.4c0.1-2.9,0.1-5.7,0-8.6
		c0.1-2.9,0.1-5.7,0-8.6c0.1-2.9,0.1-5.7,0-8.6c0.1-2.8,0.1-5.6,0-8.4c0.1-2.9,0.1-5.7,0-8.6c0.1-2.9,0.1-5.7,0-8.6
		c0.1-2.9,0.1-5.7,0-8.6c0-2.6,0-5.3,0-7.9c0-0.5-0.3-0.5-0.6-0.5c-1.6,0-3.2,0.1-4.8-0.1c-1.5-0.5-2.5-1.6-3.1-3.1
		c0-1.8,0-3.6-0.1-5.4c0.1-0.4,0.1-0.8,0.2-1.3c0.9-2.2,2.5-3.1,4.9-3c1.2,0.1,2.4,0,3.6,0c2.8,0.1,5.6,0.1,8.5,0
		c2.9,0.1,5.7,0.1,8.6,0c0.4,0.1,0.7,0,0.9-0.4c0.8-1.3,1.6-2.6,2.3-4c1.6-2.7,3.3-5.5,4.9-8.2c0.3-0.3,0.4-0.6,0.6-1
		c0.7-1,1.3-2.2,2.1-3.2c2.6-3,5.9-4.6,9.9-4.6c9,0,17.9,0,26.9,0c1.2,0,2.4,0.2,3.6,0.5c2.6,0.9,4.8,2.3,6.5,4.4
		c0.8,1,1.3,2.1,2,3.1c0,0.2,0.2,0.4,0.3,0.6c1.7,2.8,3.4,5.6,5,8.4c0.8,1.3,1.6,2.6,2.3,3.9c0.2,0.4,0.5,0.5,0.9,0.4
		c2.9,0.1,5.7,0.1,8.6,0c2.8,0.1,5.6,0.1,8.4,0c1.5,0,3,0,4.5,0c1,0,1.9,0.4,2.6,1c0.6,0.5,0.9,1.2,1.3,1.8c0.1,0.5,0.1,0.9,0.2,1.4
		c0,1.7,0,3.5,0,5.2c-0.6,1.6-1.6,2.8-3.3,3.2c-1.6,0.2-3.1,0.1-4.7,0.1c-0.3,0-0.6-0.1-0.6,0.4c0,2.7,0,5.4,0.1,8
		c-0.1,2.9-0.1,5.7,0,8.6c-0.1,2.9-0.1,5.7,0,8.6c-0.1,2.9-0.1,5.7,0,8.6c-0.1,2.8-0.1,5.6,0,8.5c-0.1,2.9-0.1,5.7,0,8.6
		c-0.1,2.9-0.1,5.7,0,8.6c-0.1,2.9-0.1,5.7,0,8.6c-0.1,2.8-0.1,5.6,0,8.5c-0.1,2.9-0.1,5.7,0,8.6c0,1.5,0,3.1-0.1,4.6
		c-0.1,2.8-1,5.4-2.7,7.6C106.9,133.9,105,135.2,102.7,136.1z M25.7,124c2.9,0,5.7,0,8.6,0c2.9,0,5.7,0,8.6,0c2.8,0,5.6,0,8.4,0
		c2.9,0,5.7,0,8.6,0c2.9,0,5.7,0,8.6,0c2.8,0,5.6,0,8.4,0c2.9,0,5.7,0,8.6,0c2.9,0,5.7,0,8.6,0c1.2,0,2.5,0,3.7,0
		c0.4,0,0.5-0.1,0.5-0.5c0-1.2,0-2.5,0-3.7c0-2.9,0-5.7,0-8.6c0-2.8,0-5.6,0-8.4c0-2.9,0-5.7,0-8.6c0-2.9,0-5.7,0-8.6
		c0-2.9,0-5.7,0-8.6c0-2.8,0-5.6,0-8.4c0-2.9,0-5.7,0-8.6c0-2.9,0-5.7,0-8.6c0-2.9,0-5.7,0-8.6c0-2.6,0-5.3,0-7.9
		c0-0.4-0.1-0.6-0.5-0.5c-1.2,0-2.5,0-3.7,0c-2.9,0-5.7,0-8.6,0c-2.9,0-5.7,0-8.6,0c-2.8,0-5.6,0-8.4,0c-2.9,0-5.7,0-8.6,0
		c-2.9,0-5.7,0-8.6,0c-2.8,0-5.6,0-8.4,0c-2.9,0-5.7,0-8.6,0c-2.9,0-5.7,0-8.6,0c-1.2,0-2.5,0-3.7,0c-0.4,0-0.5,0.1-0.5,0.5
		c0,2.7,0,5.3,0,8c0,2.9,0,5.7,0,8.6c0,2.9,0,5.7,0,8.6c0,2.9,0,5.7,0,8.6c0,2.8,0,5.6,0,8.4c0,2.9,0,5.7,0,8.6c0,2.9,0,5.7,0,8.6
		c0,2.9,0,5.7,0,8.6c0,2.8,0,5.6,0,8.4c0,2.9,0,5.7,0,8.6c0,1.2,0,2.5,0,3.7c0,0.4,0.1,0.6,0.5,0.5C23.2,124,24.4,124,25.7,124z
		 M68.5,12.8c-2.9,0-5.7,0-8.6,0c-2.9,0-5.7,0-8.6,0c-1.3,0-2.6,0-3.8,0c-0.6,0-1.1,0.2-1.5,0.7c-0.7,1.2-1.4,2.3-2.1,3.5
		c-0.9,1.4-1.8,2.8-2.7,4.3c3.4,0,6.7,0,10,0c2.9,0.1,5.7,0.1,8.6,0c2.9,0.1,5.7,0.1,8.6,0c2.9,0.1,5.7,0.1,8.6,0
		c0.4,0.1,0.9,0.1,1.4,0c-0.4-0.6-0.6-1.2-1-1.6c-0.5-0.9-1-1.8-1.6-2.6c-0.7-1.1-1.3-2.3-2-3.4c-0.3-0.6-0.9-0.8-1.5-0.8
		C71,12.8,69.8,12.8,68.5,12.8z"/>
	<path fill="#FFFFFF" d="M76.9,47c0.3,0,0.6,0,0.9,0c2.1,0,3.4,1.4,3.4,3.5c0,0.3,0,0.5,0,0.8c0,2.9,0,5.7,0,8.6c0,2.9,0,5.7,0,8.6
		c0,2.8,0,5.6,0,8.4c0,2.9,0,5.7,0,8.6c0,2.9,0,5.7,0,8.6c0,2.9,0,5.7,0,8.6c0,1.5-0.1,3,0,4.5c0.1,1.8-0.6,3.1-2.3,3.9
		c-0.7,0-1.4,0.1-2.1,0.1c-1.7,0-3.5,0-5.2,0c-1.9,0-3.2-1.4-3.3-3.3c0-1.7,0-3.4,0-5.1c0-2.9,0-5.7,0-8.6c0.1-2.9,0.1-5.7,0-8.6
		c0-2.9,0-5.7,0-8.6c0.1-2.8,0.1-5.6,0-8.5c0-2.9,0-5.7,0-8.6c0.1-2.9,0.1-5.7,0-8.6c0.1-0.8-0.1-1.6,0.2-2.3c0.8-1.4,2-2,3.7-1.9
		C73.9,47.1,75.4,47,76.9,47z"/>
	<path fill="#FFFFFF" d="M51.4,85.5c0,2.9,0,5.7,0,8.6c-0.1,2.9-0.1,5.7,0,8.6c0,1.1,0,2.2,0,3.3c0,1.1,0.1,2.2-0.2,3.2
		c-0.4,0.7-1,1.3-1.7,1.7c-1.5,0.4-3.1,0.1-4.6,0.2c-0.6,0-1.3,0-1.9,0c-0.8-0.1-1.7,0.1-2.5-0.3c-1.3-0.8-2-1.9-1.9-3.5
		c0.1-1.6,0-3.2,0-4.8c0-2.9,0-5.7,0-8.6c0-2.9,0-5.7,0-8.6c0-2.9,0-5.7,0-8.6c0-2.8,0-5.6,0-8.4c0-2.9,0-5.7,0-8.6
		c0-2.9,0-5.7,0-8.6c0-0.5,0-1,0.1-1.5c0.3-1.5,1.6-2.6,3.2-2.7c0.4,0,0.8,0,1.2,0c1.6,0,3.1,0.1,4.7,0c1.6-0.1,2.8,0.5,3.6,1.9
		c0.3,0.8,0.2,1.6,0.3,2.3c0,2.9,0,5.7,0,8.6c-0.1,2.9-0.1,5.7,0,8.6c0,2.8,0,5.6,0,8.4C51.3,79.8,51.3,82.6,51.4,85.5z"/>
</g>
</svg>
