<svg xmlns="http://www.w3.org/2000/svg" xmlns:xlink="http://www.w3.org/1999/xlink" x="0px" y="0px"
	 viewBox="0 0 471.6 339.8" style="enable-background:new 0 0 471.6 339.8;" xml:space="preserve">
<style type="text/css">
	.st1{fill:#6B7077;}
	.st2{fill:#BABABA;}
	.st3{fill:#6D6D6D;}
	.st4{fill:#9B9B9B;}
	.st5{fill:#3D3D3D;}
	.st6{fill:#333333;}
	.st7{fill:#479EDD;}
	.st8{fill:#8DD9C9;}
	.st9{fill:#634B40;}
	.st10{fill:#7A9091;}
	.st11{fill:#FDFDFD;}
</style>
<g>
	<path fill="#515151" d="M423.4,127.2c3.9,1.1,7.2,3.5,10.6,5.4c6.4,3.4,12.4,7.4,17.9,12.1c9.1,7.8,16.2,16.9,18.9,28.8
		c2.3,10-0.6,19-5.8,27.5c-6.1,9.9-14.7,17.4-24,24.2c-9.1,6.7-18.8,12.5-28.8,17.7c-1.5,0.8-2.8,2-4.6,2.3c0.5-1.8,2-2.7,3.4-3.7
		c0.4-0.3,1.1-0.6,0.9-1.3c-0.2-0.6-0.8-0.6-1.2-0.6c-2.7-0.5-5.2-1.4-8-1.3c-0.1-2.9,3.5-2.9,4.1-5.4c-2.2-1-4.7-1.3-7-1.8
		c-17.8-4.4-35.5-8.7-53.3-13.1c-16.9-4.1-33.8-8.2-50.7-12.4c-17.1-4.2-34.2-8.4-51.4-12.6c-12.3-3-24.6-6.1-36.9-9.1
		c-1.4-0.3-2.5-0.2-3.7,0.6c-8.7,6.4-17.5,12.8-26.3,19.2c-19.1,14-38.2,28-57.3,42c-4.5,3.3-9,6.5-13.5,9.8
		c-0.6,0.4-1.4,0.9-1.3,1.7c0.1,1,1.2,0.6,1.9,0.8c1.5,0.5,3,0.8,4.5,1.3c5.6,1.8,11.4,2.8,16.8,5c-0.4,1.1-2,1.5-1.9,2.9
		c-2.7,2.2-5.4,4.4-8.1,6.6c-0.5,0.4-1,0.7-0.9,1.4c0.2,0.8,0.9,0.6,1.4,0.7c17.5,5,35.1,9.9,52.6,14.9c16.7,4.7,33.4,9.2,50,13.9
		c16.4,4.6,32.7,9.1,49,13.7c4.3,1.2,8.7,1.9,12.8,3.9c-5.6,3-11.5,5.2-17.5,7c-9.8,3-19.7,5.3-29.8,6.8c-7.2,1.1-14.4,2-21.6,2.8
		c-10.2,1.1-20.4,1.2-30.6,0.8c-14.8-0.5-29.2-3.2-43-9.3c-11.5-5.1-21.2-12.4-29.6-21.5c-8.6-9.3-15.3-20-22.1-30.6
		c-4.1-6.3-8.2-12.5-13.2-18c-4.7-5.2-10.7-8.9-17-12.1c-10.9-5.7-22.1-10.8-32.6-17.3c-7.8-4.8-14.7-10.6-19.7-18.4
		c-4.1-6.5-6.5-13.5-6.8-21.3c-0.8-19.3,5.5-36.3,16.3-51.9c9.8-14.1,23-24.4,38-32.6c0.8-0.4,1.6-0.9,2.6-0.9
		c0.5,1.8,2.5,3.2,1,5.4c-11.6,17-23.3,34.1-34.9,51.1c-0.4,0.6-1,1.1-1,2c-1.3,1.5,0.2,1.8,1.1,2.3c22.2,11.3,44.3,22.5,66.5,33.8
		c0.4,0.2,0.9,0.3,1.4,0.4c2.3,1.9,4.8,3.5,8,3.1c0.8,0.4,1.6,0.1,2.5,0c0.3,1,1.1,0.8,1.9,0.9c5.4,0.8,10.8,1.5,16.2,2.4
		c5.9,1.1,11.5,1.1,17.3-1.2c10.5-4.1,21.3-7.5,32-11.3c15.8-5.5,31.5-11,47.3-16.4c21.3-7.4,42.5-14.7,63.8-22.1
		c9.1-3.2,18.2-6.4,27.3-9.6c2.3,2.8,4.1,6,6.7,8.6c1.3,1.4,0.1,1.3-0.9,1.5c-6.8,1.3-13.5,2.8-19.6,6.1c-3.3,1.8-6.2,4-5.6,8.4
		c-0.2,2.1,0.7,3.7,2.2,5.1c2.2,2,4.7,3.3,7.5,4.4c10.8,4.2,22.1,5.5,33.5,6.5c9,0.8,18.1,0.5,27.1,0.5c0.7,0.9,1.7,0.6,2.6,0.5
		c5.3-0.1,10.6-0.1,15.9-0.3c8.4-0.3,16.7-0.7,25-2.1c5.6-1,11.1-2.3,15.8-5.6c4-2.8,4.4-6.2,0.8-9.5c-5.1-4.6-11.5-6.7-18.1-8.2
		c-3.1-0.9-5.9-2.3-9-3.3c-3.9-1.2-7.9-1.5-11.7-2.9c2.6-4.6,6.5-6.4,11.8-5.4c0.7,0.1,1.5,0,2.2,0c7,0.1,13.3-2,18.9-6.1
		c1.3-1,2.9-1.7,3.5-3.4l0,0c0.3-0.1,0.5-0.2,0.5-0.5l0,0c0.4,0,0.5-0.2,0.5-0.5l0,0c0.3,0,0.5-0.2,0.5-0.5l0,0
		c0.2-0.2,0.3-0.3,0.5-0.5c0,0,0,0,0,0c0.2-0.2,0.3-0.4,0.5-0.5l0,0c0.3-0.3,0.5-0.7,0.8-1C421.1,134.5,422.3,130.9,423.4,127.2z
		 M350.1,212.1C350.1,212.1,350.2,212.1,350.1,212.1c0,0.2,0,0.4,0,0.6c-1,0-2.3-0.3-2.4,1.1c-0.1,1.3,1.3,1,2.1,1.2
		c9.5,2.7,19.1,5.3,28.6,7.9c2,0.5,4,1.1,6.1,0.7c2.7,1,5.8,0.2,7.4-1.7c1.9-2.3,1.4-5.3-1.3-6.8c-0.1-0.8,0.1-1.6,0.3-2.4
		c0.7-3.3-0.6-5.1-3.9-5.9c-0.8-0.2-1.6-0.5-2.4-0.6c-12.7-2.5-25-6.2-37.9-8.1c-16.9-2.5-33.4-7.3-50.1-11.1
		c-2.4-0.5-4.1,0.7-4.9,3.3c-0.8,2.8,0,4.4,2.6,5.1c13,3.6,26,7.2,39,10.9c5.5,1.6,11.4,2.1,16.3,5.5
		C349.7,211.9,349.9,212,350.1,212.1z"/>
	<path class="st1" d="M101.5,203.8c-0.8,0.1-1.6,0.4-2.5,0c-1.9-1.3-3.7-2.7-4.5-5.1c-2.4-7-4.8-14-7.3-20.9
		c-8.7-24.5-17.4-49.1-26-73.6C57,92,52.9,79.7,48.4,67.6c-1.2-3.2-2.3-6.2-0.9-9.5c2.5-1.7,5.3-2.2,8.1-3.1
		c55.7-18.1,111.5-36.2,167.3-54.3c4.8-1.6,7.4-0.3,9.1,4.4c9.7,25.9,19.3,51.7,29,77.6c0.2,0.5,0.4,1.1,0.7,1.6
		c6.8,18.3,13.6,36.7,20.5,55c0,5-0.7,5.9-5.6,7.4c-32.9,10.7-65.8,21.4-98.7,32.1c-20.5,6.7-41,13.3-61.5,20
		C111.4,200.4,106.3,201.7,101.5,203.8z M256,97.7c-1.7-4.9-3.3-9.7-5-14.6c-8-22.8-16.1-45.6-24.2-68.4c-1.4-4-3.9-5.4-7.7-4.2
		c-23.1,7.5-46.1,15-69.2,22.6c-13.6,4.4-27.1,8.8-40.7,13.2c-15.1,4.9-30.1,9.7-45.2,14.6c-4.4,1.4-5.5,3.7-4,8.2
		c0.1,0.3,0.2,0.6,0.3,0.9c10.8,30.6,21.7,61.3,32.5,91.9c3.1,8.7,6.1,17.4,9.2,26c1.5,4.1,4,5.4,8.1,4c3.1-1,6.3-2.1,9.4-3.1
		c0.6-0.2,1.3-0.3,1.9-0.5c13.3-4.3,26.7-8.6,40-13c7.6-2.5,15.3-4.7,22.7-7.6c3.8-1.2,7.5-2.4,11.3-3.6
		c23.6-7.6,47.1-15.3,70.6-22.9c3.1-1,4-3.6,2.9-6.8c-1.4-3.9-2.7-7.8-4.1-11.7C262,114.3,259,106,256,97.7z"/>
	<path class="st2" d="M287.7,171.3c-0.5-4.4,2.3-6.7,5.6-8.4c6.1-3.3,12.8-4.8,19.6-6.1c0.9-0.2,2.2-0.1,0.9-1.5
		c-2.5-2.6-4.4-5.8-6.7-8.6c-0.3-1-0.8-2-1.5-2.9c-4.1-9.4-5.5-19.2-5.1-29.3c0.2-8.2,0-16.4,0-24.7c0.7-3.4,3.5-4.7,6.2-5.9
		c6.2-2.7,12.9-3.7,19.6-4.6c10-1.3,20.1-1.3,30.2-0.9c10.2,0.4,20.4,1.5,30.1,5.3c0.5,0.2,0.9,0.4,1.4,0.6c4.5,2.2,5.3,3.5,5,8.6
		c-1.7,4.4-5,7-9.3,8.7c-4.6,1.8-9.3,2.9-14.2,3.8c-1.7,0.3-2.6,0.9-2.5,2.9c0.3,5.4,0.2,10.8,0.4,16.2c0.3,6.5,0.4,12.9-0.3,19.4
		c-0.5,5.3-1.3,10.6-3.1,15.5c-2,5.5-4.9,10.1-11.8,10.4c-11.4,0.5-22-1.1-31.3-8.3c-0.7-0.5-1.5-0.9-2.3-0.7c-4,0.7-8,1.7-11.3,4.2
		c-1.6,1.2-1.6,3.1-0.3,4.5c1.5,1.6,3.6,2.5,5.6,3.2c9.2,2.9,18.7,3.8,28.2,4.1c8,0.2,16.1,0.1,24.1-0.9c6.9-0.9,13.8-1.7,20.1-5.1
		c0.8-0.4,1.6-0.5,2.4-0.5c5.3,0,10.7,0,16,0c0.6,0,1.5-0.3,1.8,0.4c0.3,0.8-0.3,1.4-0.8,1.9c-2.3,2.6-5.3,4-8.4,5.2
		c-13.7,5.2-28.1,6.3-42.5,6.8c-12.7,0.5-25.4-0.2-37.9-2.4C305.6,180.5,295.4,179.1,287.7,171.3z M383.1,97.2
		c0.9,0.1,1.5-0.5,2.3-0.9c4.4-2.6,4.4-5.2,0.2-7.9c-3-2-6.5-2.9-10-3.6c-10.1-2.3-20.4-2.7-30.8-2.6c-8.9,0.1-17.7,0.7-26.4,2.6
		c-3.8,0.8-7.6,1.9-10.9,4.1c-2.8,1.8-3,4.1-0.7,6.3c1.1,1.1,2.4,1.8,3.9,2.1c1.9,1.5,4.2,2,6.4,2.4c18.7,4,37.5,4,56.3,0.7
		C376.7,99.8,380.2,99.3,383.1,97.2z"/>
	<path class="st3" d="M402.6,238.2c2.8-0.1,5.3,0.8,8,1.3c0.4,0.1,1.1,0.1,1.2,0.6c0.2,0.7-0.4,1-0.9,1.3c-1.4,1-2.9,1.9-3.4,3.7
		c-4.4,2.5-7.6,6.4-11.3,9.7c-5.8,5.1-11.3,10.6-16.9,15.8c-8.7,8.1-17.4,16.2-26.2,24.1c-6.6,6-13.3,12.1-19.8,18.2
		c-5.8,5.5-11.8,10.8-17.6,16.2c-1.2,1.1-2.3,0.9-3.7,0.5c-8.9-2.5-17.7-4.9-26.6-7.4c-0.6-0.2-1.3-0.2-2-0.2c-4-2-8.5-2.7-12.8-3.9
		c-16.3-4.7-32.7-9.2-49-13.7c-16.7-4.6-33.4-9.2-50-13.9c-17.5-4.9-35.1-9.9-52.6-14.9c-0.5-0.1-1.3,0.1-1.4-0.7
		c-0.2-0.7,0.4-1,0.9-1.4c2.7-2.2,5.4-4.4,8.1-6.6c0.6,0.1,1.2,0.1,1.7,0.2c11.1,3.1,22.2,6.2,33.3,9.3c17.4,4.9,34.8,9.7,52.3,14.6
		c16.7,4.7,33.4,9.3,50.1,14c14.9,4.2,29.7,8.3,44.6,12.5c0.8,0.2,1.4,0.2,2-0.4c10.2-8.7,20.4-17.5,30.7-26.2
		c8.4-7.2,16.7-14.4,25.1-21.6c10.7-9.1,21.4-18.1,32-27.3C399.9,241.1,402,240.4,402.6,238.2L402.6,238.2z"/>
	<path class="st4" d="M287.7,171.3c7.6,7.8,17.8,9.2,27.9,11c12.6,2.2,25.2,2.9,37.9,2.4c14.4-0.6,28.8-1.7,42.5-6.8
		c3.1-1.2,6.1-2.6,8.4-5.2c0.5-0.6,1.1-1.2,0.8-1.9c-0.3-0.8-1.2-0.4-1.8-0.4c-5.3,0-10.7,0-16,0c-0.8,0-1.6,0.1-2.4,0.5
		c-6.3,3.4-13.2,4.2-20.1,5.1c-8,1-16.1,1.1-24.1,0.9c-9.5-0.3-19-1.2-28.2-4.1c-2-0.6-4.1-1.5-5.6-3.2c-1.4-1.5-1.4-3.3,0.3-4.5
		c3.4-2.5,7.3-3.5,11.3-4.2c0.9-0.2,1.7,0.2,2.3,0.7c9.3,7.2,20,8.8,31.3,8.3c6.9-0.3,9.7-5,11.8-10.4c1.8-5,2.6-10.2,3.1-15.5
		c0.6-6.5,0.6-13,0.3-19.4c-0.3-5.4-0.1-10.8-0.4-16.2c-0.1-2,0.8-2.6,2.5-2.9c4.8-0.8,9.6-2,14.2-3.8c4.3-1.7,7.6-4.3,9.3-8.7
		c0,0.8,0.1,1.6,0.1,2.4c0,1.8,0,3.6-0.1,5.5c-0.1,1.7,0.4,2.4,2.3,2.7c4.8,0.7,9.3,2.4,12.7,6.2c2.7,3.1,4.4,6.5,3.7,10.8
		c-1.7-8.1-9.1-12.7-17.3-13.4c-1.2-0.1-1.3,0.6-1.3,1.5c0.1,2.1,0.1,4.3,0.1,6.4c0.2,8.3-0.4,16.6-3.1,24.5c-1.5,2.4-2.3,5.3-4,7.6
		c-0.6,0.9-0.3,1.4,0.8,1.4c5.9,0.1,11.7,0,17.4-1.6c4.1-1.1,7.6-3.5,11.3-5.4c-0.6,1.7-2.2,2.5-3.5,3.4c-5.6,4.1-11.9,6.1-18.9,6.1
		c-0.7,0-1.5,0.1-2.2,0c-5.2-1-9.1,0.9-11.7,5.4c-1.6,1.4-3.3,2.8-5,4.3c4.1,0.8,7.8,1.7,11.1,3.7c0.6,0.4,1.2,0.5,1.9,0.5
		c5.1,0,10.3-0.1,15.4-0.1c3.8,2.2,4.7,7.7,1.9,10.9c-2.1,2.4-4.9,3.9-7.9,5.1c-9.5,3.7-19.4,5.1-29.5,6.2c-3,0.3-6.1,0-9.1,0.9
		c-9,0-18.1,0.3-27.1-0.5c-11.4-1-22.7-2.3-33.5-6.5c-2.7-1-5.3-2.4-7.5-4.4C288.4,174.9,287.6,173.3,287.7,171.3z"/>
	<path class="st5" d="M47.6,58.1c-1.4,3.3-0.3,6.3,0.9,9.5C52.9,79.7,57,92,61.3,104.2c8.7,24.5,17.4,49.1,26,73.6
		c2.5,7,4.9,13.9,7.3,20.9c0.8,2.4,2.5,3.8,4.5,5.1c-3.2,0.3-5.7-1.2-8-3.1c-0.1-0.8-0.4-1.5-1-2c0-0.4-0.1-0.8-0.5-1l0,0
		c-2.4-7-4.8-13.9-7.2-20.9c-2.3-6.7-4.7-13.3-7-19.9c-0.4-1.2-0.7-1.7-2.3-1.3c-2.8,0.7-5.7,1-8.5,1.4c-9.4,1.6-18.7,3.1-28,4.7
		c-4.5,0.8-9.1,1.2-13.6,2.5c-0.3,0-0.6,0-0.9,0c-0.1-0.8,0.6-1.4,1-2c11.6-17.1,23.2-34.1,34.9-51.1c1.5-2.2-0.4-3.6-1-5.4
		c-2.6-8.9-6.1-17.4-9-26.2c-1.3-4-2.9-7.8-4.2-11.8C42.5,63.6,43.9,60.1,47.6,58.1z"/>
	<path class="st0" d="M300.6,89.7c0,8.2,0.2,16.4,0,24.7c-0.3,10.2,1,20,5.1,29.3c-0.7-0.1-1.3-0.1-2-0.2
		c-7.2-1.4-14.4-2.9-21.6-4.3c-6.8-18.3-13.6-36.7-20.5-55c5.9,0.3,11.6,1.6,17.4,2.3C286.3,87.3,293.3,89.1,300.6,89.7z"/>
	<path class="st2" d="M415.6,141.2c-3.7,1.8-7.2,4.2-11.3,5.4c-5.8,1.6-11.6,1.7-17.4,1.6c-1.1,0-1.4-0.5-0.8-1.4
		c1.7-2.4,2.5-5.2,4-7.6c7,0.4,13.4-1.1,18.2-6.6c2.8-3.2,4.6-6.9,3.4-11.4c0-0.3,0-0.7,0-1c0.7-4.2-1-7.7-3.7-10.8
		c-3.3-3.8-7.9-5.4-12.7-6.2c-1.9-0.3-2.4-0.9-2.3-2.7c0.1-1.8,0-3.6,0.1-5.5c7.8,0.3,15,2.5,21,7.8c7.3,6.4,10.3,14.6,9.3,24.3
		c-1,3.7-2.3,7.3-4.5,10.5c-0.6,0.1-0.7,0.5-0.7,1c0,0,0,0,0,0c-0.2,0.2-0.3,0.4-0.5,0.5c0,0,0,0,0,0c-0.2,0.2-0.3,0.3-0.5,0.5
		c0,0,0,0,0,0c-0.2,0.2-0.3,0.3-0.5,0.5c0,0,0,0,0,0c-0.2,0.2-0.3,0.3-0.5,0.5c0,0,0,0,0,0C415.9,140.9,415.7,141.1,415.6,141.2
		L415.6,141.2z"/>
	<path class="st3" d="M128.6,264.2c-5.4-2.2-11.2-3.3-16.8-5c-1.5-0.5-3.1-0.7-4.5-1.3c-0.6-0.2-1.8,0.1-1.9-0.8
		c-0.1-0.8,0.8-1.2,1.3-1.7c4.5-3.3,9-6.5,13.5-9.8c19.1-14,38.2-28,57.3-42c8.8-6.4,17.5-12.8,26.3-19.2c1.2-0.9,2.3-1,3.7-0.6
		c12.3,3.1,24.6,6.1,36.9,9.1c17.1,4.2,34.2,8.4,51.4,12.6c16.9,4.1,33.8,8.2,50.7,12.4c17.8,4.4,35.5,8.7,53.3,13.1
		c2.4,0.6,4.8,0.8,7,1.8c-0.6,2.5-4.2,2.5-4.1,5.4c0,0,0,0,0,0c-1-0.1-1.9,0.2-2.7,0.9c-2.6,2.3-5.4,4.4-8.1,6.6
		c-14.2,11.8-28.3,23.6-42.4,35.4c-12.6,10.5-25.3,21-37.9,31.5c-1.5,1.2-2.8,1.6-4.7,1.1c-17.5-5-35.1-9.9-52.7-14.8
		c-18-5.1-36.1-10.1-54.1-15.2c-19.3-5.4-38.7-10.8-58-16.1C137.4,266.4,133.2,264.7,128.6,264.2z M149.9,241.3
		c3.2,0.8,5.8,1.5,8.4,2.2c1,0.3,1.7-0.1,2.5-0.7c6.2-4.8,12.3-9.5,18.5-14.2c8.7-6.7,17.5-13.4,26.2-20.1c0.4-0.3,0.9-0.6,0.8-1.2
		c-0.2-0.5-0.8-0.5-1.2-0.6c-1.6-0.4-3.2-0.9-4.8-1.4c-1.9-0.6-3.5-0.2-5.2,1.1c-9.9,7.7-19.9,15.4-29.9,23
		C160.2,233.3,155.2,237.2,149.9,241.3z M256.6,213.8c-2.6-1.4-4.5-1.3-6.6,0.4c-3.9,3.2-8,6.2-12,9.3c-12.3,9.5-24.7,19-37,28.5
		c-4.3,3.3-8.7,6.7-13,10c-0.5,0.4-1.2,1-1.2,1.5c0,0.9,1.1,0.5,1.6,0.8c1.5,0.8,2.7,0.1,3.9-0.8c6-4.6,12.1-9.3,18.1-14
		c11.6-9,23.2-18,34.8-26.9C249,219.7,252.7,216.8,256.6,213.8z M201.3,267.6c1.2,0.1,1.7-0.2,2.2-0.7c7.9-6.1,15.9-12.2,23.8-18.4
		c12.8-9.9,25.7-19.9,38.5-29.8c0.8-0.6,2.4-1.3,1.7-2.2c-0.6-0.8-2.3-1.2-3.7-0.7c-0.5,0.2-1,0.6-1.5,0.9c-3.1,2.4-6.2,4.7-9.3,7.1
		c-11.5,8.9-23,17.9-34.6,26.8c-6.3,4.9-12.6,9.7-18.9,14.6c-0.4,0.3-1.2,0.5-1.1,1.3c0.1,0.8,0.9,0.6,1.4,0.7
		C200.7,267.4,201.2,267.6,201.3,267.6z M259,282.2c2.5,1.1,4.4,1.4,6.4-0.2c3.7-3,7.6-5.9,11.4-8.8c13.2-10.2,26.3-20.4,39.5-30.6
		c3.8-2.9,7.6-5.8,11.4-8.8c0.5-0.4,1.9-1.2,0.8-1.8c-1.2-0.7-2.8-1.3-4.4-0.1c-4.9,3.9-9.9,7.6-14.8,11.4
		c-11.7,9-23.3,18.1-35,27.1C269.3,274.2,264.3,278.1,259,282.2z M271,285.1c2.9,1.6,5,1,7.2-0.8c7.8-6.2,15.6-12.3,23.5-18.4
		c12.4-9.7,24.9-19.3,37.4-28.9c0.7-0.5,2.1-0.8,1.6-1.8c-0.4-0.9-1.8-1-2.9-1c-1.1-0.1-1.8,0.8-2.6,1.3c-1.8,1.3-3.4,2.7-5.1,4
		c-12.3,9.5-24.7,19-37,28.6C285.7,273.7,278.5,279.3,271,285.1z M208.8,269.8c2.8,0,4.7,2.2,7,0.4c10-7.7,19.9-15.4,29.9-23.1
		c5.9-4.6,11.8-9.1,17.7-13.7c0.5-0.4,1.5-0.9,0.3-1.6c-1.8-1.1-4.8-0.8-6.6,0.6c-10.2,7.9-20.4,15.8-30.7,23.7
		C220.8,260.5,215.1,264.9,208.8,269.8z M337.6,251.3c-0.5-0.5-0.7-0.6-0.9-0.8c-1.7-1.3-4.8-1.1-6.6,0.3c-13,10-26,20-39,30.1
		c-2.6,2-5.1,4-7.6,6c-0.4,0.3-1.3,0.8-0.6,1.6c0.8,0.9,4.8,0.9,5.8,0.2c7.8-6,15.6-12.1,23.4-18.1c8.1-6.2,16.2-12.4,24.2-18.6
		C336.8,251.7,337.2,251.6,337.6,251.3z M172.6,250.1c-2,0.6-4.4,0.3-6.4,1.3c-1.5,0.7-3.4,1.3-3.4,3.3c0,1.9,1.8,2.8,3.4,3.5
		c2.4,1,5.1,1.4,7.5,1.3c3.1-0.1,6.6,0.1,9.1-2.4c1.8-1.8,1.6-3.2-0.6-4.6C179.4,250.6,176,250.7,172.6,250.1z M275.8,248.8
		c-2.4-0.3-4-1.7-6.1-0.1c-6.2,4.9-12.4,9.6-18.6,14.4c-0.8,0.6-2.1,1.1-1.7,2.1c0.4,0.9,1.8,0.9,2.9,0.9c0.9,0,1.6-0.6,2.2-1
		C261.5,259.9,268.3,254.6,275.8,248.8z M202.8,230.4c-2.4-0.8-3.9-1.7-6.1,0.1c-6,4.9-12.3,9.5-18.4,14.3c-0.7,0.5-2.4,0.9-1.8,1.9
		c0.5,0.9,2.1,1.1,3.4,0.9c0.8-0.1,1.5-0.6,2.2-1.1c4.2-3.2,8.4-6.4,12.6-9.7C197.3,234.8,199.8,232.8,202.8,230.4z M247.1,278.2
		c2.2-0.2,4.8-0.4,7.2-1.4c1.3-0.5,2.8-1,2.8-2.8c0.1-1.8-1.2-2.8-2.6-3.3c-5.5-2.5-11.2-2.7-16.9-0.7c-1.3,0.4-2.4,1.2-2.5,2.8
		c-0.1,1.7,1.1,2.6,2.3,3.2C240.3,277.5,243.5,278.1,247.1,278.2z M259.9,268.2c0.8,0.1,1.5-0.3,2.1-0.7c4.7-3.6,9.3-7.2,13.9-10.9
		c0.7-0.6,2.5-1.1,1.8-1.9c-0.7-1-2.4-1.3-3.9-0.8c-0.6,0.2-1.2,0.6-1.7,1c-4.5,3.5-9,7-13.6,10.5c-0.7,0.5-2,0.8-1.6,1.8
		c0.2,0.5,1.6,0.6,2.4,0.9C259.5,268.2,259.7,268.2,259.9,268.2z M186.8,249.6c1.1,0.1,1.6-0.1,2.2-0.6c1.2-1,2.5-1.9,3.7-2.9
		c3.7-2.8,7.4-5.6,11-8.4c0.5-0.4,1.2-0.8,1.1-1.5c-0.1-0.8-1.1-0.7-1.6-0.9c-1.5-0.6-2.7,0.1-3.9,1c-4.5,3.5-9,6.9-13.5,10.4
		c-0.6,0.5-1.6,1-1.5,1.9c0.2,1,1.5,0.4,2.1,0.9C186.6,249.7,186.9,249.6,186.8,249.6z"/>
	<path class="st1" d="M384.6,223.7c-2.1,0.4-4.2-0.2-6.1-0.7c-9.5-2.6-19.1-5.2-28.6-7.9c-0.8-0.2-2.2,0-2.1-1.2
		c0.1-1.4,1.4-1.1,2.4-1.1c3.8,1.4,7.7,2.1,11.6,2.8c-3.8-1.2-7.6-2.8-11.6-3.4c0,0,0,0,0,0c-0.2-0.1-0.4-0.2-0.6-0.3
		c-4.9-3.4-10.8-3.9-16.3-5.5c-12.9-3.8-26-7.3-39-10.9c-2.6-0.7-3.4-2.3-2.6-5.1c0.7-2.6,2.5-3.8,4.9-3.3
		c16.7,3.8,33.2,8.6,50.1,11.1c12.9,1.9,25.3,5.6,37.9,8.1c0.8,0.2,1.6,0.4,2.4,0.6c0,0.8-0.6,1.1-0.9,1.7c-3,4.4-4.7,10.4-1,13.7
		C384.9,222.7,384.7,223.2,384.6,223.7z M364.1,216.2l0.1,0.1L364.1,216.2c-0.3-0.4-0.7-0.7-1.3-0.1
		C363.3,216.1,363.7,216.2,364.1,216.2z"/>
	<path class="st6" d="M128.6,264.2c4.6,0.4,8.8,2.2,13.2,3.4c19.4,5.3,38.7,10.7,58,16.1c18.1,5,36.1,10.1,54.1,15.2
		c17.6,4.9,35.2,9.8,52.7,14.8c1.9,0.5,3.3,0.1,4.7-1.1c12.6-10.5,25.3-21,37.9-31.5c14.2-11.8,28.3-23.6,42.4-35.4
		c2.7-2.2,5.4-4.4,8.1-6.6c0.8-0.7,1.7-1,2.7-0.9c-0.5,2.2-2.6,2.9-4.1,4.2c-10.6,9.2-21.4,18.2-32,27.3
		c-8.4,7.2-16.7,14.4-25.1,21.6c-10.2,8.7-20.5,17.4-30.7,26.2c-0.7,0.6-1.2,0.6-2,0.4c-14.8-4.2-29.7-8.4-44.6-12.5
		c-16.7-4.7-33.4-9.3-50.1-14c-17.4-4.9-34.8-9.7-52.3-14.6c-11.1-3.1-22.2-6.2-33.3-9.3c-0.6-0.2-1.2-0.1-1.7-0.2
		C126.6,265.7,128.2,265.3,128.6,264.2z"/>
	<path class="st6" d="M22.1,164.2c0.3,0,0.6,0,0.9,0c0.2,1.2,1.3,1.4,2.2,1.8c20.5,10.3,41.1,20.6,61.6,30.8c0.9,0.4,1.7,1,2.8,0.9
		c0,0,0,0,0,0c0,0.4,0.1,0.8,0.5,1c0.7,0.5,0.9,1.2,1,2c-0.5-0.1-1-0.2-1.4-0.4c-22.2-11.2-44.4-22.5-66.5-33.8
		C22.3,166,20.9,165.7,22.1,164.2z"/>
	<path class="st2" d="M400,162.3c0.9,0.8,1.8,1.6,2.7,2.3c-5.1,0-10.3,0.1-15.4,0.1c-0.7,0-1.3-0.1-1.9-0.5c-3.3-2-7-2.9-11.1-3.7
		c1.8-1.5,3.4-2.9,5-4.3c3.8,1.4,7.8,1.7,11.7,2.9C394,160,396.9,161.4,400,162.3z"/>
	<path class="st3" d="M385.1,222.2c-3.7-3.4-2-9.3,1-13.7c0.4-0.5,1-0.9,0.9-1.7c3.3,0.8,4.6,2.7,3.9,5.9c-0.2,0.8-0.4,1.6-0.3,2.4
		C389.6,218.1,388.9,221.4,385.1,222.2z"/>
	<path class="st7" d="M418.1,138.7c0-0.5,0.2-0.9,0.7-1C418.6,138.1,418.3,138.4,418.1,138.7z"/>
	<path class="st8" d="M349.6,211.8c0.2,0.1,0.4,0.2,0.6,0.3C349.9,212,349.7,211.9,349.6,211.8z"/>
	<path class="st7" d="M415.6,141.2c0.2-0.2,0.3-0.3,0.5-0.5C416.1,141.1,415.8,141.2,415.6,141.2z"/>
	<path class="st7" d="M416.1,140.7c0.2-0.2,0.3-0.3,0.5-0.5C416.6,140.6,416.4,140.8,416.1,140.7z"/>
	<path class="st7" d="M416.6,140.2c0.2-0.2,0.3-0.3,0.5-0.5C417.1,140,416.9,140.2,416.6,140.2z"/>
	<path class="st7" d="M417.1,139.7c0.2-0.2,0.3-0.3,0.5-0.5C417.4,139.4,417.2,139.6,417.1,139.7z"/>
	<path class="st7" d="M417.6,139.2c0.2-0.2,0.3-0.4,0.5-0.5C417.9,138.9,417.7,139.1,417.6,139.2z"/>
	<path class="st4" d="M310.6,97.3c-1.5-0.3-2.8-1.1-3.9-2.1c-2.3-2.2-2.1-4.5,0.7-6.3c3.3-2.1,7.1-3.3,10.9-4.1
		c8.7-1.9,17.5-2.5,26.4-2.6c10.4-0.1,20.7,0.3,30.8,2.6c3.5,0.8,7,1.6,10,3.6c4.3,2.8,4.2,5.4-0.2,7.9c-0.7,0.4-1.3,1-2.3,0.9
		c-5.4-2.2-11.2-3.2-17-3.9c-11.2-1.4-22.4-1.5-33.6-0.5C325,93.4,317.6,94.5,310.6,97.3z"/>
	<path class="st9" d="M310.6,97.3c7.1-2.7,14.5-3.8,21.9-4.5c11.2-1,22.5-0.9,33.6,0.5c5.8,0.7,11.5,1.8,17,3.9
		c-3,2-6.4,2.6-9.8,3.2c-18.8,3.3-37.6,3.3-56.3-0.7C314.8,99.2,312.5,98.8,310.6,97.3z M344.5,94.3c0.3,1,0.7,0.9,1.1,0.9
		c8,0.1,15.9,1.3,23.7,3.2c1,0.2,1.8,0,2.7-0.2c0.6-0.1,1.6-0.1,1.6-0.9c0.1-0.9-1-0.8-1.5-0.9c-2.6-0.6-5.2-1.1-7.8-1.5
		C357.7,94,351.2,94,344.5,94.3z"/>
	<path class="st0" d="M411.6,121.3c1.2,4.5-0.6,8.2-3.4,11.4c-4.8,5.5-11.2,7-18.2,6.6c2.7-8,3.3-16.2,3.1-24.5
		c2.3,0.1,4.2,1.3,6.3,2C403.6,118.1,407.4,120.2,411.6,121.3z"/>
	<path class="st0" d="M411.6,121.3c-4.3-1-8.1-3.2-12.2-4.6c-2.1-0.7-4-1.9-6.3-2c0-2.1-0.1-4.3-0.1-6.4c0-0.9,0.1-1.6,1.3-1.5
		c8.2,0.7,15.6,5.4,17.3,13.4C411.7,120.6,411.7,120.9,411.6,121.3z"/>
	<path class="st6" d="M89.6,197.7c-1.1,0.2-1.9-0.4-2.8-0.9c-20.5-10.3-41.1-20.5-61.6-30.8c-0.9-0.4-2-0.6-2.2-1.8
		c4.4-1.2,9-1.7,13.6-2.5c9.3-1.6,18.7-3.2,28-4.7c2.8-0.5,5.7-0.7,8.5-1.4c1.5-0.4,1.9,0.2,2.3,1.3c2.3,6.7,4.7,13.3,7,19.9
		C84.8,183.8,87.2,190.7,89.6,197.7z"/>
	<path class="st10" d="M90.1,198.7c-0.4-0.2-0.5-0.6-0.5-1C90,197.9,90.1,198.3,90.1,198.7z"/>
	<path class="st6" d="M149.9,241.3c5.3-4.1,10.3-8,15.3-11.8c10-7.7,20-15.3,29.9-23c1.7-1.3,3.3-1.7,5.2-1.1
		c1.6,0.5,3.2,0.9,4.8,1.4c0.5,0.1,1.1,0.1,1.2,0.6c0.2,0.6-0.4,0.9-0.8,1.2c-8.7,6.7-17.5,13.4-26.2,20.1
		c-6.2,4.7-12.4,9.5-18.5,14.2c-0.8,0.6-1.4,1-2.5,0.7C155.7,242.8,153,242.1,149.9,241.3z"/>
	<path class="st6" d="M256.6,213.8c-3.9,3-7.6,6-11.4,8.9c-11.6,9-23.2,18-34.8,26.9c-6,4.7-12.1,9.3-18.1,14
		c-1.1,0.9-2.4,1.6-3.9,0.8c-0.5-0.3-1.6,0.1-1.6-0.8c0-0.5,0.7-1.1,1.2-1.5c4.3-3.4,8.7-6.7,13-10c12.3-9.5,24.7-19,37-28.5
		c4-3.1,8.1-6.1,12-9.3C252.1,212.4,254.1,212.4,256.6,213.8z"/>
	<path class="st6" d="M201.3,267.6c-0.1,0-0.7-0.2-1.2-0.4c-0.5-0.2-1.3,0-1.4-0.7c-0.1-0.7,0.6-0.9,1.1-1.3
		c6.3-4.9,12.6-9.7,18.9-14.6c11.5-8.9,23-17.9,34.6-26.8c3.1-2.4,6.2-4.7,9.3-7.1c0.5-0.3,0.9-0.7,1.5-0.9c1.4-0.5,3.1-0.1,3.7,0.7
		c0.7,0.9-0.9,1.6-1.7,2.2c-12.8,9.9-25.7,19.9-38.5,29.8c-7.9,6.1-15.9,12.2-23.8,18.4C203,267.4,202.5,267.7,201.3,267.6z"/>
	<path class="st6" d="M259,282.2c5.3-4.1,10.3-8,15.3-11.9c11.7-9,23.3-18.1,35-27.1c4.9-3.8,9.9-7.5,14.8-11.4
		c1.6-1.3,3.2-0.6,4.4,0.1c1.1,0.6-0.3,1.4-0.8,1.8c-3.8,3-7.6,5.9-11.4,8.8c-13.2,10.2-26.3,20.4-39.5,30.6
		c-3.8,2.9-7.7,5.8-11.4,8.8C263.4,283.6,261.5,283.3,259,282.2z"/>
	<path class="st6" d="M271,285.1c7.5-5.8,14.7-11.4,22-17.1c12.3-9.5,24.7-19,37-28.6c1.7-1.3,3.3-2.7,5.1-4
		c0.8-0.6,1.5-1.4,2.6-1.3c1.1,0.1,2.5,0.1,2.9,1c0.5,1-1,1.3-1.6,1.8c-12.4,9.6-24.9,19.3-37.4,28.9c-7.9,6.1-15.7,12.2-23.5,18.4
		C276,286.1,273.9,286.7,271,285.1z"/>
	<path class="st6" d="M208.8,269.8c6.3-4.8,11.9-9.3,17.6-13.7c10.2-7.9,20.4-15.8,30.7-23.7c1.8-1.4,4.8-1.7,6.6-0.6
		c1.2,0.8,0.2,1.2-0.3,1.6c-5.9,4.6-11.8,9.1-17.7,13.7c-10,7.7-19.9,15.4-29.9,23.1C213.5,272,211.6,269.8,208.8,269.8z"/>
	<path class="st6" d="M337.6,251.3c-0.5,0.3-0.9,0.4-1.2,0.7c-8.1,6.2-16.2,12.4-24.2,18.6c-7.8,6-15.6,12.1-23.4,18.1
		c-0.9,0.7-5,0.6-5.8-0.2c-0.7-0.8,0.1-1.2,0.6-1.6c2.5-2,5-4,7.6-6c13-10,26-20,39-30.1c1.8-1.4,4.8-1.6,6.6-0.3
		C336.9,250.7,337.1,250.8,337.6,251.3z"/>
	<path class="st6" d="M275.8,248.8c-7.5,5.7-14.3,11.1-21.2,16.3c-0.6,0.5-1.3,1.1-2.2,1c-1.1,0-2.5,0-2.9-0.9
		c-0.5-1,0.9-1.5,1.7-2.1c6.2-4.8,12.5-9.5,18.6-14.4C271.8,247.1,273.4,248.5,275.8,248.8z"/>
	<path class="st6" d="M202.8,230.4c-3,2.3-5.5,4.4-8.1,6.4c-4.2,3.2-8.4,6.4-12.6,9.7c-0.7,0.5-1.3,1-2.2,1.1
		c-1.3,0.2-2.9,0-3.4-0.9c-0.6-1,1.1-1.4,1.8-1.9c6.1-4.8,12.4-9.4,18.4-14.3C198.9,228.8,200.4,229.7,202.8,230.4z"/>
	<path class="st6" d="M259.9,268.2c-0.2,0-0.3,0-0.5,0c-0.8-0.3-2.2-0.4-2.4-0.9c-0.4-1,0.9-1.3,1.6-1.8c4.5-3.5,9-7,13.6-10.5
		c0.5-0.4,1.1-0.8,1.7-1c1.4-0.5,3.1-0.2,3.9,0.8c0.6,0.8-1.1,1.4-1.8,1.9c-4.6,3.7-9.2,7.3-13.9,10.9
		C261.4,267.9,260.7,268.2,259.9,268.2z"/>
	<path class="st6" d="M186.8,249.6c0.1,0-0.2,0.1-0.3-0.1c-0.7-0.5-1.9,0-2.1-0.9c-0.2-0.8,0.8-1.4,1.5-1.9c4.5-3.5,9-7,13.5-10.4
		c1.2-0.9,2.4-1.6,3.9-1c0.6,0.2,1.5,0.1,1.6,0.9c0.1,0.7-0.6,1.1-1.1,1.5c-3.7,2.8-7.4,5.6-11,8.4c-1.2,0.9-2.5,1.9-3.7,2.9
		C188.5,249.5,187.9,249.7,186.8,249.6z"/>
	<polygon class="st8" points="364,216.2 364.2,216.3 364.1,216.2 	"/>
	<path class="st11" d="M344.5,94.3c6.7-0.3,13.2-0.3,19.7,0.7c2.6,0.4,5.2,0.9,7.8,1.5c0.5,0.1,1.6,0,1.5,0.9
		c-0.1,0.8-1,0.7-1.6,0.9c-0.9,0.2-1.7,0.4-2.7,0.2c-7.8-1.8-15.7-3.1-23.7-3.2C345.2,95.2,344.8,95.3,344.5,94.3z"/>
</g>
</svg>
