<svg xmlns="http://www.w3.org/2000/svg" xmlns:xlink="http://www.w3.org/1999/xlink" x="0px" y="0px"
	 viewBox="0 0 128 100.6" enable-background="new 0 0 128 100.6" xml:space="preserve">
<g>
	<path fill="#FFFFFF" d="M35.6,10l6.2,0l0.5,0.5c1.2,1.3,2.4,2.5,3.7,3.7c1.2,1.2,2.4,2.4,3.6,3.6l0.7,0.7c0.8,0.8,1.7,1.7,2.5,2.5
		c2,2.1,4.7,3.2,7.6,3.2l0.1,0l0.1,0c0.8,0,1.6,0,2.4,0l0.8,0l3.5,0l3.5,0l7.1,0l7.1,0l3.5,0l3.5,0l3.5,0l3.5,0l1.2,0
		c0.9,0,1.7,0,2.6,0c0.1,0.1,0.3,0.3,0.4,0.4c0,0.3,0,0.9,0,1.5c0,0.7,0,1.6,0,2.5l0,6.8l0,3.5l0,3.5l0,3.5l0,3.5l0,7.1l0,7.1l0,6.8
		c0,0.9,0,1.8,0,2.5c0,0.6,0,1.1,0,1.5c-0.1,0.1-0.2,0.3-0.4,0.4c-0.3,0-0.8,0-1,0l-0.6,0l-0.7,0c-0.5,0-1,0-1.7,0l-3.2,0l-3.5,0
		l-7.1,0l-7.1,0l-7.1,0l-7,0l-7.1,0l-3.5,0l-3.5,0l-7,0l-7.1,0l-3.6,0l-3.6,0l-3.5,0l-3.5,0l-3.5,0l-3.4,0c-0.4,0-0.9,0-1.3,0
		c-0.9,0-1.7,0-2.5,0c-0.1-0.1-0.4-0.3-0.4-0.4c0-0.3,0-0.9,0-1.5c0-0.7,0-1.5,0-2.4l0-6.8l0-3.5l0-3.5l0-7.1l0-7l0-7.1l0-3.5l0-3.5
		l0-7.1l0-6.7c0-0.9,0-1.8,0-2.5c0-0.6,0-1.2,0-1.5c0.1-0.1,0.2-0.3,0.4-0.4c0.4,0,1,0,1.5,0c0.7,0,1.6,0,2.4,0l0.3,0
		c0.5,0,1.1,0,1.6,0l8.5,0l9.8,0C34.9,10,35.3,10,35.6,10L35.6,10 M35.4,0c-0.3,0-0.5,0-0.8,0c-3.3,0-6.5,0-9.8,0
		c-2.8,0-5.7,0-8.5,0c-0.7,0-1.4,0-2.1,0c-1.5,0.1-2.9,0-4.4,0.1C4.9,0.4,0.6,4.5,0.1,9.4C0,11,0.1,12.6,0,14.2c0,2.3,0,4.6,0,7
		c0,2.4,0,4.7,0,7.1c0,2.4,0,4.7,0,7.1c0,2.4,0,4.7,0,7.1c0,2.3,0,4.6,0,7c0,2.4,0,4.7,0,7.1c0,2.4,0,4.7,0,7.1c0,2.4,0,4.7,0,7.1
		c0.1,1.6-0.1,3.1,0.1,4.7c0.5,5,4.9,9.2,10,9.4c1.4,0,2.7,0,4.1,0c2.3,0,4.7,0,7,0c2.4,0,4.7,0,7.1,0c2.4,0,4.7,0,7.1,0
		c2.4,0,4.7,0,7.1,0c2.3,0,4.7,0,7,0c2.4,0,4.7,0,7.1,0c2.4,0,4.7,0,7.1,0c2.3,0,4.6,0,7,0c2.4,0,4.7,0,7.1,0c2.4,0,4.7,0,7.1,0
		c2.4,0,4.7,0,7.1,0c2.3,0,4.6,0,7,0c0.5,0,1,0,1.4,0c0.4,0,0.9,0,1.3,0c0.8,0,1.5,0,2.3-0.1c4.6-0.5,8.6-4.6,9-9.2
		c0.2-1.6,0-3.2,0.1-4.8c0-2.4,0-4.7,0-7.1c0-2.4,0-4.7,0-7.1c0-2.4,0-4.7,0-7.1c0-2.3,0-4.6,0-7c0-2.4,0-4.7,0-7.1
		c0-2.4,0-4.7,0-7.1c-0.1-1.6,0.1-3.2-0.1-4.8c-0.5-5-5-9.2-10.1-9.3c-1.3,0-2.7,0-4,0c-2.3,0-4.7,0-7,0c-2.4,0-4.7,0-7.1,0
		c-2.4,0-4.7,0-7.1,0c-2.4,0-4.7,0-7.1,0c-2.3,0-4.7,0-7,0c-1.1,0-2.2,0-3.3,0c0,0,0,0,0,0c-0.2,0-0.4-0.1-0.5-0.2
		c-1.1-1.1-2.2-2.3-3.3-3.4c-1.2-1.1-2.4-2.3-3.5-3.5c-1.2-1.2-2.4-2.4-3.6-3.6c-1.2-1.2-2.3-2.3-3.5-3.5c-1.1,0-2.3,0-3.4,0
		C40.1,0,37.8,0,35.4,0L35.4,0z"/>
</g>
<g>
	<path fill="#FFFFFF" d="M100,100.6L100,100.6c-15.3,0-27.8-12.4-27.8-27.8v0C72.2,57.5,84.6,45,100,45h0
		c15.3,0,27.8,12.4,27.8,27.8v0C127.7,88.1,115.3,100.6,100,100.6z"/>
</g>
<polygon fill="#3A3A3A" stroke="#3A3A3A" stroke-miterlimit="10" points="116.9,70.3 102.4,70.3 102.4,55.8 97.5,55.8 97.5,70.3 
	83,70.3 83,75.3 97.5,75.3 97.5,89.8 102.4,89.8 102.4,75.3 116.9,75.3 "/>
</svg>
