<svg version="1.1" id="Ebene_1" xmlns="http://www.w3.org/2000/svg" xmlns:xlink="http://www.w3.org/1999/xlink" x="0px" y="0px"
	 viewBox="0 0 566.9 566.9" style="enable-background:new 0 0 566.9 566.9;" xml:space="preserve">
<g>
	<path fill="#fff" d="M146.7,332c1.9,4.5,3.6,9.2,5.6,13.6c16.3,35.7,42.1,62,78,78.1c20.2,9.1,41.6,12.9,63.8,12.2
		c23.3-0.7,45.7-5.2,66.5-15.9c33.3-17,54.7-43.6,63.4-80.2c1.2-4.9,1.2-4.9-3.7-4.9c-42.9,0-85.9,0-128.8,0.1c-2.4,0-2.9-0.6-2.9-3
		c0.1-30.4,0.1-60.7,0-91.1c0-2.3,0.5-3,2.9-3c77.4,0.1,154.8,0.1,232.2,0c2.1,0,2.9,0.4,3.2,2.7c3.3,19.9,4.4,39.9,3.7,60
		c-1.5,40.4-10.4,79-29.4,114.9c-11,20.8-25,39.3-41.8,55.8c-31.6,30.9-69.6,49.4-112.5,58.6c-13.8,3-27.7,4.7-41.8,5.4
		c-0.5,0-1-0.1-1.3,0.5c-9.7,0-19.4,0-29.1,0c-2.1-1-4.5-0.7-6.7-0.8c-48.2-4.1-91.7-20.6-130.5-49.4c-31.1-23.1-55.4-52-73.2-86.3
		c-0.4-0.9-0.8-1.8-1.2-2.7c15.5-12,30.9-24,46.4-35.9C121.8,351.2,134.2,341.6,146.7,332z"/>
	<path fill="#fff" d="M146.7,332c-12.4,9.6-24.8,19.2-37.2,28.8c-15.5,12-30.9,24-46.4,35.9c-7.4-14.3-13-29.2-17.4-44.7
		c-7.4-26-10.4-52.5-9.3-79.5c1.5-34.2,9.6-66.7,24.3-97.6c21.2-44.6,53-79.9,94.8-106.1c28.3-17.6,58.9-29.1,91.8-34.6
		c22.3-3.7,44.7-4.5,67.1-2.3c49.2,4.9,92.9,23,131.2,54.3c3.5,2.9,6.8,6,10.3,8.9c1.4,1.2,1.2,1.8,0,3
		c-14.2,14.1-28.3,28.2-42.4,42.4c-8.8,8.8-17.6,17.5-26.3,26.4c-1.6,1.6-2.4,1.4-3.8,0c-19.6-17.9-42.4-29.4-68.6-33.9
		c-33.4-5.7-65.4-1-95.2,15.4c-39.6,21.8-64.9,55-76.2,98.7c-7.1,27.5-5.9,55,2.6,82.2C146.2,330.3,146.4,331.2,146.7,332z"/>
</g>
</svg>
