<svg xmlns="http://www.w3.org/2000/svg" xmlns:xlink="http://www.w3.org/1999/xlink" x="0px" y="0px"
	 viewBox="0 0 19 19" style="enable-background:new 0 0 19 19;" xml:space="preserve">
<g>
	<path fill="#ffffff" d="M11.4,0H7.5C7.3,0,7,0.2,7,0.4L6.6,3C6,3.2,5.6,3.5,5,3.9L2.7,3c-0.1,0-0.1,0-0.2,0C2.3,2.9,2.1,3,2,3.2L0,6.5
		c-0.1,0.1,0,0.4,0.2,0.6l2,1.5c0,0.3-0.1,0.6-0.1,1c0,0.4,0,0.7,0.1,1l-2,1.6C0,12.3,0,12.5,0.1,12.7L2.1,16
		c0.1,0.1,0.2,0.1,0.4,0.1c0.1,0,0.1,0,0.2,0l2.4-1c0.5,0.4,1.1,0.7,1.6,1l0.4,2.5c0,0.2,0.2,0.4,0.5,0.4h3.9c0.2,0,0.5-0.2,0.5-0.4
		l0.4-2.5c0.6-0.3,1.2-0.6,1.6-1l2.4,1c0.1,0,0.1,0,0.2,0c0.2,0,0.3-0.1,0.4-0.2l1.9-3.3c0.1-0.2,0.1-0.5-0.1-0.6l-2.2-1.5
		c0-0.3,0.1-0.6,0.1-1c0-0.4,0-0.7-0.1-1l2-1.6c0.2-0.2,0.2-0.4,0.1-0.6l-1.9-3.3c-0.1-0.1-0.2-0.1-0.4-0.1c-0.1,0-0.1,0-0.2,0
		l-2.4,1c-0.5-0.4-1.1-0.7-1.6-1l-0.4-2.5C11.9,0.2,11.6,0,11.4,0L11.4,0z M9.5,13C7.6,13,6,11.4,6,9.5S7.6,6,9.5,6S13,7.6,13,9.5
		S11.4,13,9.5,13L9.5,13z"/>
</g>
</svg>
