<svg xmlns="http://www.w3.org/2000/svg" xmlns:xlink="http://www.w3.org/1999/xlink" x="0px" y="0px" viewBox="0 0 595.3 621" style="enable-background:new 0 0 595.3 621;" xml:space="preserve">
<g>
	<path fill="#fff" d="M337.7,27.4c0.6,1.4,1.7,2.3,2.9,3.2c4.7,6.5,8.1,13.7,10.8,21.3c0.2,1.2,0.4,2.5,0.6,3.7
		c0.3,4.1,0.7,8.3,0.7,12.4c0.1,46.7,0.3,93.5,0,140.2c-0.2,29.1,1.1,58.2-0.8,87.3c-1.5,4.7-2.9,9.3-4.4,14
		c-3.5,5.4-6.8,10.8-11.5,15.4c-6.3,6.2-13.9,9.9-21.7,13.4c-5.6,0.8-11,2.4-16.7,2.4c-6.8,0-13.2-1.9-19.8-3.5l0,0.1
		c-0.4-0.2-0.8-0.5-1.2-0.7c-3.9-2.1-7.7-4.2-11.6-6.3c-2.5-2.2-5-4.4-7.5-6.6c-2.7-3.7-5.4-7.4-8.1-11.2c-5.9-11.2-7-23.3-7-35.8
		c0.2-57.1-0.1-114.3,0.1-171.4c0.1-18.3-1.5-36.6,1.7-54.8c2.6-7.1,6.1-13.7,10.3-19.9c0.7-0.1,0.9-0.6,1-1.2
		c7.1-6.6,14.6-12.5,23.9-15.7c5.9-2,11.9-2.9,18.1-3.2C313.1,11,326.5,16.7,337.7,27.4z"/>
	<path fill="#fff" d="M375.9,599.5c-6.1,1.6-12.3,2.6-18.2,4.8c-14.7,2-29.4,4-44,6c-5.3,0.1-10.6,0.1-15.9,0.2
		c-12.4,0.2-24.7-1.9-37-2.2c-2.3-1-4.7-1.2-7.1-1.4c-0.9-0.1-1.9-0.3-2.8-0.4c-4-0.7-7.9-2.1-12.1-2.1c-7.3-1.9-14.6-3.9-22-5.8
		c-6.3-2.1-12.7-4.2-19-6.3c-1.4-1.3-3.1-2-5-1.9c-4.4-2.6-9-4.6-13.9-6.1c-7-3.7-14-7.4-21-11l0,0.1c-0.1-0.6-0.5-0.9-1.2-0.8
		c-1.2-0.8-2.2-2-3.9-2.1c-4.7-3.9-9.9-6.9-15.1-9.9c-0.4-0.5-0.8-1.1-1.3-1.4c-14.3-10-27.3-21.5-39.4-34.1
		c-10.4-10.7-19.4-22.6-28.4-34.4c-3.6-5.7-7.2-11.4-10.8-17.1c-0.1-1.3-0.7-2.4-1.9-3c-3-6.8-6.4-13.4-10.1-19.9
		c-2.3-6.5-4.8-13-8-19.1c0.1-0.3,0.1-0.6-0.1-0.9c-2-6.3-4-12.7-6-19c-2-8.3-3.9-16.7-5.9-25c-0.7-5.3-1.5-10.6-2.2-15.9
		c-0.1-6.7-1-13.4-1.8-20c0-6.7,0-13.3-0.1-20c0.6-7.7,1.2-15.3,1.9-23c0.4-5.7,2.3-11.2,2.2-17c1.7-7.3,3.4-14.6,5.1-22l0,0.1
		c0.6-0.2,0.7-0.5,0.6-1.1c1.7-5.7,3.3-11.3,5-17c1.1-1.2,1.5-2.6,1.3-4.1c2.5-5.9,5-11.9,7.6-17.8c2.9-6,5.8-12,8.6-18
		c1.9-1.9,3.1-4.3,3.9-6.8c3.2-4.2,6.1-8.7,8.5-13.4l0.3-0.2L67,190l0-0.4c11-16.1,23.7-30.6,37.2-44.7c8.7-9,18.3-15.7,30.5-18.7
		c7.6-1.4,15.3-1.9,23-0.7l0,0c0.8,1.1,1.9,0.9,3,0.9c4.5,1.5,9.1,3.1,13.3,5.4c15.2,8.6,24,21.8,27.8,38.7c0.2,8.1,0.6,16.2-1.8,24
		c-2.2,6.6-5,13-9.9,18.2c-6.3,6.7-13,13.1-19.3,19.9c-5,5.4-9.8,11.1-13.2,17.8c-5,6-8.6,12.8-11.6,20c-3.6,6.3-5.8,13.2-8.1,20.1
		c-0.1,0.9-0.3,1.8-0.4,2.7c-2.3,3.8-2.8,8.1-3.7,12.2c-3.3,15-4.2,30.2-3,45.5c0.9,11.8,2.7,23.3,6.8,34.5c-0.1,2,0.5,3.7,1.8,5.2
		c1.7,7.1,4.3,13.8,8.3,19.9c1.9,6.5,5.9,11.8,9.9,17c0.1,1.4,0.6,2.4,1.9,3c0.6,3,3,4.7,4.7,6.9c14.1,18.3,31.2,33.2,51.6,44
		c13.1,7.4,26.8,13.2,41.8,15.9c0,0,0.1,0.1,0.1,0.1c0.7,1.1,1.8,1,2.8,0.9c4.6,1.2,9.2,2.3,14,2.2c7.5,2.4,15.3,1.8,23,1.8
		c1,0,2,0,3,0c13.6,0.2,27-1.6,40-5.8c13.2-2.5,25.2-8.1,37-14.3c6.3-3.5,12.9-6.6,18.1-11.7c0.8-0.1,1.6-0.3,1.8-1.3
		c15.3-10.4,27.7-23.5,38-38.8c1-0.8,1.8-1.8,2-3.1c4-5.2,7.4-10.7,9.8-16.9c3.6-6.3,6.5-12.9,8.2-20c5.2-12.8,7.7-26.2,8-40
		c1.6-8.6,1.2-17.2,0-25.8c-0.7-12.8-2.8-25.4-7.9-37.3c-1.1-5.7-3.7-10.8-6.2-16c0.1-0.6-0.1-1-0.7-1.1l0,0
		c-2.8-6.9-6.1-13.5-11-19.2c0-0.3-0.1-0.5-0.3-0.7c-1.9-3.8-4.7-7.1-7.2-10.5c-7.3-10.3-19.2-16.2-25.3-27.5
		c-5.3-11.4-7.8-23.3-5.7-35.9c0.4-2,0.9-4,1.3-6.1c2.8-7.2,6.6-13.7,11.1-20c2.3-1.7,4.4-3.5,5.9-5.8c6.3-4.1,12.7-8.1,19.9-10.5
		c9-2,18.1-3,27.2-0.9c16.8,3.9,29.6,14,40.8,26.7c8.5,9.7,16,20.3,23.9,30.4c2.2,4.7,5,9,8.2,13.2c0.9,2.5,2,4.9,3.9,6.8
		c2.7,5.7,5.5,11.3,8.2,17c2.4,6.2,4.5,12.5,7.8,18.2c0.1,0.6,0.2,1.2,0.3,1.7c0.2,0.4,0.4,0.8,0.6,1.2l-0.1-0.1
		c2.4,7.7,4.8,15.3,7.2,23c0.9,6.4,2.2,12.7,4.1,18.9c1.3,12,2.7,24,4,36c0,1.3,0.1,2.7,0.1,4c0,6.7,0,13.3-0.1,20
		c-1.8,14.3-2.7,28.8-5.6,42.9c-0.6,4-2.5,7.8-2.5,11.9c-0.8,0.9-1.1,1.9-0.9,3.1l0,0c-2.3,7.3-4.6,14.7-6.9,22
		c-0.2,0.3-0.3,0.5-0.2,0.9c-3.1,6.2-5.8,12.6-8,19.1c-3.4,6.7-6.7,13.3-10.1,20c-1.2,0.7-1.8,1.7-1.8,3.1c-3.9,6-7.7,12-11.6,18
		c-11.6,15.7-24.1,30.7-38.3,44.1c-9.5,9-20,16.6-30.1,24.9c-5.4,2.8-10.3,6.2-15.1,10c-2,0.3-3.4,1.8-5,2.8
		c-6,3.1-11.9,6.3-17.9,9.4c-5.7,2.5-11.7,4.5-17,7.8c-1.9,0-3.6,0.7-5,2C390.4,594.8,383.1,597.1,375.9,599.5z"/>
</g>
</svg>
