<?xml version="1.0" encoding="utf-8"?>
<svg version="1.1" xmlns="http://www.w3.org/2000/svg" xmlns:xlink="http://www.w3.org/1999/xlink" x="0px" y="0px"
	 viewBox="0 0 427.4 425.9" style="enable-background:new 0 0 427.4 425.9;" xml:space="preserve">
<path class="st0" fill="limegreen" d="M404.6,120.1c1.6,3.7,3.3,7.3,4.9,11c3.4,8.9,6.4,17.9,9.2,26.9c0.5,2.3,1,4.5,1.5,6.8c1.7,6.8,2.7,13.8,4,20.7
	c0.8,9.1,1.6,18.3,1.6,27.5c0.1,9.2-0.8,18.3-1.6,27.5c-1.5,9.1-3.3,18.1-5.5,27c-2.7,9.1-5.8,18-9.1,26.9c-1.5,3.3-3,6.7-4.4,10
	c-3.3,6-6.6,12-9.9,18c-5.9,9.3-12.1,18.3-19.2,26.7c-8.2,9.7-17,18.7-26.7,26.8c-8.3,6.8-17,13-26.2,18.7
	c-5.8,3.1-11.7,6.2-17.5,9.4c-3.6,1.6-7.1,3.2-10.7,4.9c-8.8,3.4-17.8,6.4-26.8,9.1c-0.5,0.1-1,0-1.5,0.2c-8.4,2.2-16.9,3.8-25.5,5
	c-9.1,1.2-18.3,1.4-27.5,1.9c-9.2-0.5-18.4-0.6-27.5-1.9c-9.1-1.1-18-3.2-27-5.2c-9.3-2.8-18.5-5.8-27.5-9.4c-3.3-1.5-6.7-3-10-4.5
	c-5.8-3.1-11.7-6.3-17.5-9.4c-0.8-0.5-1.7-1.1-2.5-1.6c-19.8-12.6-37.2-27.7-52.1-45.8c-6.4-7.8-12.1-16.1-17.5-24.6
	c-3.3-6-6.6-12-9.9-18.1c-1.4-3.1-2.8-6.3-4.1-9.4c-3.6-9-6.6-18.2-9.4-27.5c-0.5-2.2-0.9-4.4-1.5-6.5c-1.7-6.9-2.7-14-4-21
	c-0.8-9-1.6-18-1.6-27c0-9.2,0.8-18.3,1.6-27.5c1.5-9.2,3.3-18.4,5.5-27.5c2.7-8.7,5.4-17.5,8.9-26c0.2-0.4,0.1-1,0.1-1.5
	c2.1-2.8,3.1-6.2,4.5-9.4c3.2-5.9,6.4-11.7,9.6-17.6c0.4-0.6,0.9-1.2,1.3-1.8C45.2,82.3,60,65.1,77.6,50.4
	c8.6-7.2,17.8-13.6,27.3-19.7c2.7-1.4,5.4-2.8,8-4.3c2.8-1.6,6-2.6,8.6-4.7c3.6-1,6.9-2.9,10.2-4.5c9.1-3.5,18.2-6.7,27.6-9.3
	c8.9-2.1,17.9-4,26.9-5.3c9.1-1,18.3-1.5,27.5-1.7c9.2,0.2,18.4,0.8,27.5,1.7c9.1,1.3,18.1,3.1,27,5.3c9.4,2.6,18.5,5.8,27.5,9.3
	c3.7,1.7,7.3,3.4,11,5c5.5,3,11,5.9,16.5,8.9c10.4,6.7,20.5,13.8,29.8,22c16.2,14.2,30,30.3,41.2,48.7c0.4,0.6,0.9,1.2,1.3,1.8
	C398.5,109.1,401.6,114.6,404.6,120.1z M85,213c-1.6,1.6-3.4,3.1-4.9,4.9c-3.4,4.2-4.3,8.9-2.1,13.9c1.5,3.4,4.3,5.8,7,8.3
	c6.4,6.4,12.8,12.7,19.1,19.1c2.8,2.8,5.6,5.6,8.4,8.4c6.4,6.4,12.7,12.7,19.1,19.1c2.8,2.8,5.6,5.6,8.4,8.4
	c6.4,6.4,12.7,12.8,19.1,19.1c2.8,2.8,5.6,5.6,8.4,8.4c3.2,4.2,7.3,6.7,12.8,6.5c3.9-0.2,7-1.9,9.6-4.6
	c35.8-35.9,71.7-71.7,107.6-107.6c16-16,32-32,48-48.1c2.9-2.9,5.2-6.2,4.8-10.7c0.3-4.1-1.7-7.2-4.3-9.9c-6.3-6.4-12.6-12.7-19-19
	c-5.7-5.6-14.6-5.2-19.9,0.9c-4,4-8,8-12,12c-5.2,5.2-10.3,10.3-15.5,15.5c-4,4-8,8-12,12c-5.2,5.2-10.3,10.3-15.5,15.5
	c-3.8,3.8-7.7,7.7-11.5,11.5c-5.5,5.2-10.8,10.5-16,16c-3.8,3.8-7.7,7.7-11.5,11.5c-5.2,5.2-10.3,10.3-15.5,15.5c-4,4-8,8-12,12
	c-1.3,1.2-2.5,2.4-3.8,3.6c-2.4,2.3-2.4,2.4-4.7,0c-19.1-19.1-38.2-38.2-57.2-57.2c-4.5-4.5-10.5-5.6-15.7-2.9
	c-1.3,0.3-2.3,1-3.2,1.9C95.7,202.2,90.3,207.6,85,213z"/>
</svg>
