<?xml version="1.0" encoding="utf-8"?>
<svg version="1.1" id="Ebene_1" xmlns="http://www.w3.org/2000/svg" xmlns:xlink="http://www.w3.org/1999/xlink" x="0px" y="0px"
	 viewBox="0 0 547.2 383.7" style="enable-background:new 0 0 547.2 383.7;" xml:space="preserve">
	<g>
		<path fill="#fff" d="M273.3,383.7c-63.8,0-127.7,0-191.5,0c-18.3,0-36.7,0.1-55-0.1c-12.3-0.1-22.6-8.2-26-20
			c-0.6-2-0.8-4.1-0.8-6.2C0,247.2,0,136.9,0,26.7c0-13,11-25,24-26.1c11.1-1,22.1-0.4,33.2-0.4c100.2-0.1,200.5,0,300.7,0
			c53.1,0,106.2,0,159.2,0c6.4,0,12.6,1,18,4.9c7.6,5.5,11.9,12.6,11.9,22.1c0,109.7,0,219.3,0,329c0,15.4-11.9,27.5-27.3,27.5
			c-36.5,0-73,0-109.5,0C364.7,383.7,319,383.7,273.3,383.7z M150.1,108.8C150.1,108.8,150.1,108.8,150.1,108.8c0-1.3,0-2.7,0-4
			c0-6.2-2.1-8.4-8.4-8.5c-3.6-0.1-7.2,0.3-10.7,0.3c-5.4,0.1-7.8,2.4-7.8,7.8c0,3.4-0.1,6.8,0,10.2c0,1.6-0.5,2.4-2.2,2.5
			c-7,0.4-13.4,3-18.8,7.3C90,134,84.7,146.7,87.4,161.8c2.5,14.4,10.8,24.9,24.9,30c5.2,1.8,10.5,3.2,15.8,4.8
			c8,2.4,16.1,4.8,24.1,7.4c5.4,1.7,8.3,7.2,7.3,13.2c-0.9,5.6-4.9,9.1-10.8,9.1c-7.9,0-15.8,0-23.7,0c-3.6,0-6.9-1-10-2.7
			c-3.8-2.2-6.8-1.9-10,1.1c-3.1,2.9-6.1,5.9-9.1,8.9c-0.8,0.8-1.5,1.8-1.8,3c-0.9,3.1,0.4,5.9,4.1,8.3c6.4,4.2,13.4,7.1,21.1,7.9
			c3.9,0.4,3.9,0.5,3.9,4.5c0,3.2-0.1,6.3,0,9.5c0.1,3.6,2.1,6.7,5.1,6.8c5.4,0.3,10.8,1.2,16.2,0.3c3.9-0.7,5.6-2.7,5.6-6.7
			c0-3.6,0.1-7.2,0-10.7c-0.1-2.2,0.7-3,3-3.2c9-0.8,16.7-4.6,22.9-11.1c8-8.3,11.1-18.4,10.7-29.9c-0.5-13.1-10.4-27.6-22.5-32.4
			c-5.5-2.2-11.3-3.6-16.9-5.4c-8.6-2.7-17.2-5.2-25.8-7.9c-5.2-1.6-8.5-7.4-7.6-12.6c1.1-6.2,5-9.7,11.1-9.7c6.4,0,12.8,0.1,19.2,0
			c5.5-0.2,10.7,0.5,15.6,3.4c2.7,1.6,5.7,0.9,8-1.2c3.3-3.1,6.5-6.2,9.8-9.3c2.2-2.1,2.5-4.7,1.5-7.4c-0.6-1.7-2.1-2.8-3.5-3.8
			c-6.5-4.4-13.5-7.2-21.3-8c-4.3-0.5-4.3-0.4-4.3-4.6C150.1,111.6,150.1,110.2,150.1,108.8z M369.3,137.6c-37.7,0-75.5,0-113.2,0
			c-1.2,0-2.5,0-3.7,0.1c-3.3,0.2-5.7,2.5-5.7,5.8c-0.1,5-0.1,10,0,15c0.1,2.9,1.9,5,4.8,5.7c1.5,0.4,3,0.4,4.5,0.4
			c75.7,0,151.3,0,227,0c1.5,0,3-0.1,4.5-0.4c2.8-0.7,4.7-2.7,4.8-5.7c0.1-5,0.1-10,0-15c-0.1-3.3-2.4-5.5-5.7-5.8
			c-1.2-0.1-2.5-0.1-3.7-0.1C444.8,137.6,407.1,137.6,369.3,137.6z M300.8,219.6C300.8,219.6,300.8,219.6,300.8,219.6
			c-15.7,0-31.5,0-47.2,0c-4.1,0-6.9,2.3-7,5.9c-0.1,4.9-0.1,9.8,0,14.7c0.1,3,1.8,5,4.6,5.8c1.5,0.4,3,0.4,4.5,0.4
			c30.2,0,60.5,0,90.7,0c0.7,0,1.5,0,2.2,0c4.3-0.3,6.8-3,6.9-7.3c0-3.7,0-7.5,0-11.2c0-6.1-2.2-8.3-8.2-8.3
			C331.8,219.6,316.3,219.6,300.8,219.6z M451.5,219.7c-11.2,0-22.5,0-33.7,0c-4.6,0-7.1,2.6-7.1,7.1c0,4.3,0,8.7,0,13
			c0,2.8,1.4,4.8,3.8,5.9c1.5,0.7,3.2,0.8,4.9,0.8c15.1,0,30.1,0,45.2,0c6.7,0,13.3,0,20,0c5.1-0.1,7.5-2.5,7.5-7.6
			c0-3.9,0-7.8,0-11.7c0-5.3-2.2-7.5-7.6-7.5C473.5,219.6,462.5,219.7,451.5,219.7z"/>
	</g>
</svg>
