<?xml version="1.0" encoding="utf-8"?>
<svg version="1.1" id="Ebene_1" xmlns="http://www.w3.org/2000/svg" xmlns:xlink="http://www.w3.org/1999/xlink" x="0px" y="0px"
	 viewBox="0 0 800 450" style="enable-background:new 0 0 800 450;" xml:space="preserve">
<style type="text/css">
	.st0{fill:#EDEDED;}
	.st1{fill:#8A878D;}
	.st2{fill:#8A878D;}
</style>
<g>
	<rect x="-0.5" y="-0.3" class="st0" width="801.1" height="450.6"/>
	<g>
		<path class="st1" d="M399.8,93.7c58.7,0,117.7,0,176.4,0c11,0,12.5,1.4,12.5,12.6c0,79.2,0,158.4,0,237.7
			c0,10.9-1.6,12.5-12.6,12.5c-117.3,0-234.8,0-352.1,0c-11.2,0-12.8-1.6-12.8-13.2c0-79,0-157.9,0-236.9c0-11,1.6-12.6,12.5-12.6
			C282.2,93.7,341.1,93.7,399.8,93.7z M400.2,341.7c55.4,0,110.7-0.2,165.9,0.2c6.2,0,7.8-1.8,7.8-7.8c-0.2-72.5-0.2-144.9,0-217.4
			c0-5.9-1.1-8-7.5-8c-111.1,0.2-222.3,0.2-333.4,0c-5.9,0-7.5,1.4-7.5,7.5c0.2,72.8,0.2,145.4,0,218.2c0,6.4,2.1,7.8,8,7.7
			C289.3,341.7,344.6,341.7,400.2,341.7z"/>
		<path class="st2" d="M356.6,273.9c19.8-26.9,39-52.9,58.2-79c3.6-4.8,6.9-9.6,10.7-14.4c8.4-10.7,18-10.7,26.5,0
			c6.1,7.7,11.6,15.5,17.4,23.3c30.1,40.9,60.2,81.9,90.1,122.8c0.9,1.2,1.6,2.3,3.2,4.5c-108.4,0-216.1,0-324,0
			c-0.9-2,1.2-3.2,2.3-4.6c20.8-28.5,41.8-57,62.8-85.4c9.4-12.8,19-12.6,28.8,0.2C340.2,251.6,348,262.3,356.6,273.9z"/>
		<path class="st2" d="M272.9,187c-15.5,0-27.6-12.1-27.4-27.4c0-15.1,12.5-27.2,27.8-27.1c15,0.2,26.9,12.1,27.1,27.1
			C300.1,174.7,288,187,272.9,187z"/>
	</g>
</g>
</svg>
