<svg xmlns="http://www.w3.org/2000/svg" xmlns:xlink="http://www.w3.org/1999/xlink" x="0px" y="0px"
	 viewBox="0 0 225.2 225" enable-background="new 0 0 225.2 225" xml:space="preserve">
<path fill="#FFFFFF" d="M0.2,84.3c0-0.2,0-0.3,0-0.5c0.1-0.3,0.2-0.5,0-0.8c0-0.3,0-0.7,0-1c0.6-1.5,0.5-3.1,0.8-4.6
	C1.6,75,2,72.6,2.5,70.2c0.6-2,1.1-4,1.7-6C5.1,61.6,6,59,6.9,56.3c1.6-3.4,3.1-6.9,5.1-10.2c0.8-1.3,1.5-2.6,2.2-3.9l0,0
	c0.1-0.1,0.2-0.1,0.3-0.2c3.1-4.9,6.8-9.4,10.7-13.7c1.1-1.1,2.2-2.2,3.3-3.4c5-4.5,10.4-8.7,16.2-12.2c3.7-2.2,7.7-4,11.5-5.9
	c4.6-1.8,9.3-3.3,14.1-4.6c3.4-0.6,6.7-1.3,10.1-1.7c7.3-0.9,14.7-0.9,22,0c3.4,0.4,6.7,1.1,10.1,1.7c4.8,1.3,9.5,2.8,14.1,4.6
	c4.6,2.1,9.2,4.4,13.5,7c0.2,0.3,0.5,0.4,0.8,0.5c4.8,3.3,9.4,6.8,13.7,10.8c0.9,0.9,1.8,1.9,2.8,2.8c4,4.4,7.8,9,11.1,14.1
	c0,0.1,0.1,0.1,0.2,0.1l0,0c0.1,0.7,0.5,1.1,0.9,1.7c2.4,4,4.5,8.1,6.4,12.4c1.7,4.6,3.2,9.2,4.5,13.9c0.7,3.7,1.5,7.4,1.9,11.1
	c0.6,5.9,0.7,11.8,0.2,17.8c-0.4,4.4-1,8.8-2.1,13.1c0,0.1,0.1,0.3,0.2,0.4c-0.1,0.2-0.4,0.4-0.4,0.6c-1,4.5-2.7,8.8-4.2,13.2
	c-2.1,4.7-4.4,9.3-7.1,13.6c-0.1,0.1,0,0.3,0,0.5l0,0c-0.1,0-0.3,0-0.3,0.1c-2.9,4.4-6.1,8.6-9.9,12.8c1.5,0,2.6,0.1,3.8,0
	c2.1-0.1,3.7,0.7,5.1,2.1c18.5,18.6,37.1,37.1,55.7,55.7c1.7,1.7,2.4,3.6,1.7,6c-1.9,2.9-4.5,5.3-7.2,7.4c-1.5,0.4-2.9,0.4-4.4,0
	c-0.8-0.6-1.5-1.2-2.3-1.8c-2.1-2.1-4.2-4.3-6.3-6.4c-15.6-15.6-31.1-31.1-46.7-46.7c-0.3-0.3-0.7-0.6-1-0.9
	c-0.8-0.8-1.5-1.6-2.3-2.3c-1.8-2.3-1.1-5-1.3-7.5c-0.3-0.2-0.5,0.1-0.7,0.2c-7.6,6.8-16.1,12.3-25.5,16.3c-0.2,0.1-0.4,0.2-0.6,0.3
	c-4.6,1.9-9.3,3.3-14.1,4.6c-4.4,0.9-8.9,1.6-13.4,2.1c-0.3,0-0.5,0-0.8,0.1c-4.7,0.3-9.4,0.3-14.1,0c-0.2,0-0.4,0-0.5,0
	c-4.5-0.5-8.9-1.2-13.4-2.1c-4.8-1.3-9.5-2.8-14.1-4.6c-4.2-1.9-8.4-3.9-12.3-6.3c-5.5-3.4-10.6-7.4-15.5-11.8
	c-1.1-1.1-2.2-2.2-3.3-3.4c-3.9-4.3-7.6-8.8-10.7-13.7c-2.9-4.6-5.3-9.3-7.5-14.3c-1.7-4.6-3.3-9.2-4.4-13.9
	c-0.5-2.4-0.9-4.8-1.4-7.3c-0.3-1.5-0.2-3.1-0.8-4.6c0-0.3,0-0.7,0-1c0.2-0.5,0.2-0.9-0.2-1.3c0,0,0,0,0,0C0,93.7,0,89,0.2,84.3z
	 M160.4,56.3c-1.6-3.3-3.4-6.4-5.6-9.3c-1.1-1.7-2.3-3.3-3.7-4.8c-3.1-3.9-6.6-7.4-10.5-10.5c-1.5-1.3-3.1-2.6-4.9-3.7
	c-2.8-2.2-5.8-3.9-9-5.4c-4.5-2.5-9.2-4.3-14.1-5.6c-4.6-1.4-9.3-2.3-14.1-2.6c-4.6-0.5-9.3-0.5-13.9,0c-4.8,0.3-9.5,1.2-14.1,2.6
	c-4.9,1.3-9.7,3.1-14.1,5.6c-3.2,1.5-6.2,3.2-9,5.4c-1.8,1.1-3.5,2.4-5.1,3.9c-3.9,3-7.2,6.5-10.3,10.3c-1.4,1.5-2.6,3.1-3.7,4.8
	c-2.2,2.9-4.1,6-5.6,9.3c-2.4,4.4-4.2,9-5.4,13.9c-1.5,4.6-2.3,9.3-2.7,14.2c-0.5,4.7-0.5,9.4,0,14.1c0.4,4.8,1.2,9.6,2.7,14.2
	c1.3,4.8,3,9.5,5.4,13.9c1.5,3.2,3.3,6.2,5.4,9c1.1,1.9,2.4,3.5,3.9,5.1c3.1,3.8,6.4,7.3,10.3,10.3c1.6,1.4,3.3,2.7,5.1,3.9
	c2.8,2.2,5.8,4,9,5.4c4.5,2.4,9.2,4.3,14.2,5.6c4.6,1.4,9.3,2.3,14.1,2.6c4.6,0.5,9.3,0.5,13.9,0c4.8-0.3,9.5-1.2,14.1-2.6
	c5-1.3,9.7-3.1,14.2-5.6c3.2-1.5,6.2-3.3,9-5.4c1.7-1.1,3.3-2.3,4.8-3.6c4-3.1,7.4-6.6,10.5-10.5c1.4-1.5,2.6-3.1,3.6-4.8
	c2.2-2.9,4.1-6,5.6-9.3c2.4-4.4,4.1-9,5.4-13.9c1.5-4.6,2.3-9.3,2.7-14.2c0.5-4.7,0.5-9.4,0-14.1c0-0.6-0.1-1.2-0.2-1.8
	c-0.5-4.2-1.2-8.3-2.6-12.4C164.6,65.4,162.8,60.7,160.4,56.3z"/>
</svg>
