<svg xmlns="http://www.w3.org/2000/svg" xmlns:xlink="http://www.w3.org/1999/xlink" x="0px" y="0px"
	 viewBox="0 0 237.8 237.8" enable-background="new 0 0 237.8 237.8" xml:space="preserve">
<path fill="#FFFFFF" d="M0.3,88c0-0.4,0-0.7,0-1.1c0.7-1.6,0.5-3.4,0.9-5.1c0.5-2.5,0.9-5.1,1.4-7.7c1.4-4.9,3-9.9,4.8-14.7
	c1.6-3.5,3.3-7,5.2-10.4c0.8-1.5,1.9-2.8,2.5-4.5l0,0c0.3,0,0.5-0.3,0.6-0.5c3.2-5.1,7.1-9.7,11.1-14.2c1.2-1.2,2.4-2.4,3.5-3.6
	c1.3-1.1,2.5-2.2,3.8-3.3c3.3-2.8,6.8-5.3,10.4-7.8c0.2-0.1,0.3-0.2,0.5-0.3c4.7-2.9,9.7-5.3,14.7-7.6c1.2-0.4,2.4-0.9,3.7-1.4
	c3.7-1.4,7.5-2.4,11.3-3.5c3.5-0.6,7.1-1.4,10.7-1.8c5.8-0.7,11.7-0.8,17.6-0.5c5.5,0.3,10.9,1.2,16.3,2.3c5.1,1.4,10,3,14.9,4.9
	c4.9,2.2,9.7,4.7,14.3,7.4c0.2,0.1,0.3,0.2,0.5,0.2c0.2,0.2,0.4,0.4,0.6,0.6c5,3.4,9.7,7.1,14.2,11.2c1,1,2,2,2.9,3
	c4.1,4.7,8.2,9.4,11.5,14.7c0.1,0.1,0.3,0.2,0.4,0.2l0,0c0.2,1.3,1.1,2.2,1.8,3.3c2.2,3.7,4,7.7,5.8,11.6c1.7,4.8,3.4,9.7,4.7,14.7
	c0.5,3,1.2,6,1.6,9c0.8,5.5,0.9,11.1,0.8,16.6c-0.1,6.3-1,12.4-2.4,18.5c-0.1,0.2-0.1,0.4-0.1,0.7c-1.3,5-2.8,9.9-4.7,14.7
	c-2.2,4.8-4.5,9.6-7.4,14.1c-0.1,0.2-0.2,0.5-0.2,0.8c0,0,0,0,0,0c-0.3,0-0.4,0.2-0.5,0.4c-1.5,2.2-3.1,4.5-4.6,6.7
	c-0.2,0.1-0.3,0.2,0,0.3c1.7,0,3.4,0,5.2,0c0.6,0.4,1.2,0.2,1.9,0.2c3.3-0.1,6.1,1.1,8.3,3.5c1.3,1.3,2.7,2.6,4,3.9
	c0.1,0.4,0.4,0.6,0.8,0.8c0.4,0.4,0.7,0.8,1.1,1.2c13,13,25.9,26,38.9,38.8c3.2,3.1,5,6.6,4.3,11.1c-0.4,1.3-0.7,2.7-1.5,3.9
	c-0.8,1.3-2,2.3-2.9,3.5c-3.6,3.4-7.2,7-10.6,10.6c-1.1,0.8-1.9,2-3.2,2.7c-3.7,2.2-7.4,2.2-11.2,0.5c-0.9-0.7-1.8-1.1-2.6-1.9
	c-8.9-8.9-17.8-17.8-26.7-26.7c-5.1-5.1-10.1-10.1-15.2-15.1c-0.1-0.1-0.2-0.2-0.3-0.3c-0.7-0.7-1.3-1.4-2-2.1
	c-1.4-1.4-2.9-2.8-4-4.6c-1.4-2.3-1.4-4.9-1.5-7.5c0-1.5,0.1-3,0.1-4.5c0-0.3,0.2-0.7-0.2-0.8c-0.3-0.1-0.6,0.2-0.8,0.4
	c-4,3-8.3,5.7-12.7,8.2c-2.8,1.6-5.7,2.7-8.5,4.1c-4.9,1.9-9.9,3.5-14.9,4.9c-4.7,0.9-9.4,1.7-14.1,2.2c-0.3,0-0.6,0-0.8,0
	c-4.9,0.3-9.8,0.3-14.6,0c-0.3,0-0.6,0-0.8-0.1c-2-0.3-3.9-0.5-5.9-0.7c-2.8-0.3-5.5-1-8.2-1.5c-5.1-1.3-10.1-2.9-14.9-4.9
	c-0.4-0.2-0.8-0.4-1.2-0.6c-5.5-2.5-11-5.3-16-8.8c-4.2-3-8.3-6.2-12.1-9.7c-1.2-1.2-2.3-2.4-3.5-3.5c-4.5-5-8.7-10.2-12.2-15.9
	c-2.7-4.4-5-9-7.1-13.7c-1.8-4.8-3.4-9.7-4.7-14.7c-0.5-2.5-0.9-4.9-1.4-7.4c-0.4-1.8-0.2-3.7-0.9-5.4c0-0.4,0-0.7,0-1.1
	c0.3-0.5,0.1-0.8-0.2-1.1c0,0,0,0,0,0c0-4.6,0-9.1-0.1-13.7C0,89.5,0.7,88.9,0.3,88z M119,41.5c-4.8-2-9.7-3.4-14.9-3.8
	c-0.2-0.1-0.4-0.2-0.6-0.2c-3.4-0.3-6.8-0.4-10.2-0.2c-1.3,0.1-2.6,0.1-3.8,0.4c-1.5,0-3.1,0.3-4.5,0.6c-3.5,0.8-7.1,1.6-10.4,3.2
	c-2,0.7-3.9,1.6-5.7,2.7c-3.4,1.5-6.4,3.7-9.2,6C56,52.9,53,56,50.3,59.5c-2.4,2.8-4.4,5.9-6,9.2c-1,1.7-2,3.5-2.5,5.4
	c-0.6,0.9-0.9,2-1.2,3c-1.3,3.9-2.4,7.9-2.8,12c-0.1,0.2-0.2,0.3-0.2,0.5c-0.4,3.6-0.5,7.3-0.3,11c0.1,1.1-0.1,2.4,0.4,3.5
	c0.5,5.2,1.9,10.1,3.9,14.9c0.8,1.9,1.4,3.8,2.6,5.5c1.6,3.3,3.6,6.4,6,9.2c2.7,3.5,5.7,6.6,9.2,9.2c2.8,2.3,5.7,4.4,9,5.9
	c1.9,1.2,3.9,2.1,5.9,2.8c0.5,0.2,1,0.5,1.5,0.7c4.4,1.5,8.9,2.8,13.5,3.2c4.9,0.6,9.8,0.6,14.7,0c1.1-0.2,2.2-0.2,3.3-0.5
	c4-0.8,7.9-1.7,11.6-3.4c2.2-0.8,4.3-1.7,6.3-3c3.2-1.5,6-3.5,8.6-5.7c3.6-2.6,6.5-5.8,9.2-9.2c2.2-2.7,4.2-5.5,5.7-8.7
	c1.2-1.9,2.2-3.8,2.8-5.9c0.3-0.7,0.6-1.3,0.9-2c1.5-4.2,2.7-8.5,3.1-13c0.8-5,0.8-10,0-14.9c-0.6-5.2-1.9-10.2-4-15
	c-0.7-2.3-1.7-4.3-3-6.3c-1.5-3-3.4-5.8-5.5-8.3c-2.7-3.4-5.7-6.5-9.2-9.2c-2.9-2.3-5.8-4.5-9.2-6C122.9,43.2,121,42.2,119,41.5z"/>
</svg>
