<svg xmlns="http://www.w3.org/2000/svg" xmlns:xlink="http://www.w3.org/1999/xlink" x="0px" y="0px"
	 viewBox="0 0 97.1 86.3" enable-background="new 0 0 97.1 86.3" xml:space="preserve">
<g>
	<path fill="#FFFFFF" d="M97,6.9c0,0.8,0,1.6,0,2.4c-0.1,0.5-0.3,1-0.4,1.5c0,0.1-0.1,0.1-0.1,0.2c-1.6,4-5.8,6.1-9.8,4.8
		c-0.6-0.2-1-0.1-1.3,0.4c-1.5,1.2-3.1,2.4-4.5,3.6c-0.7,0.5-1.4,1.1-2.1,1.7c-1.2,0.8-2.3,1.8-3.3,2.7c-1.1,0.9-2.2,1.8-3.3,2.7
		c-0.6,0.5-1.2,1-1.8,1.4c-0.2,0.2-0.3,0.3-0.2,0.6c0.5,3.3-1.5,6.7-4.4,8.1c-3.1,1.5-6.7,1-9.1-1.3c-1.9-1.8-2.8-4.1-2.5-6.8
		c0-0.2,0-0.3-0.1-0.4c-0.7-0.5-1.3-1-2-1.5c-1.1-0.9-2.2-1.8-3.4-2.7c-1-0.8-2.1-1.7-3.1-2.5c-0.7-0.7-1.5-1.3-2.3-1.8
		c-1.5-1.2-3-2.4-4.5-3.6c-0.3-0.2-0.4-0.6-0.8-0.5c-0.5,0.1-1,0.3-1.5,0.4c-0.9,0.1-1.7,0.2-2.6-0.1c-0.6-0.2-1.1,0-1.4,0.5
		c-1.7,1.7-3.4,3.3-5,5c-0.2,0.1-0.3,0.2-0.4,0.4c-1.7,1.6-3.3,3.3-4.9,4.9c-0.2,0.2-0.3,0.3-0.5,0.5c-1.7,1.6-3.3,3.3-4.9,4.9
		c-0.5,0.3-0.7,0.7-0.6,1.3c0.8,4.1-1.8,8.2-5.8,9.2C5.4,44.1,0.7,41,0.1,36.2c-0.7-5.5,3.7-9.3,8.2-9.2c0.4,0,0.8,0,1.2,0.1
		c0.6,0.2,1,0,1.3-0.5c1.7-1.6,3.4-3.3,5-5c0.2-0.1,0.3-0.2,0.4-0.4c1.7-1.6,3.4-3.3,5-5c0.2-0.1,0.4-0.2,0.4-0.5
		c0.1,0,0.1,0,0.2-0.1c1.6-1.6,3.2-3.2,4.8-4.9c0.4-0.3,0.6-0.6,0.5-1.2c-0.5-2.1,0-4.1,1.2-6c1-1.5,2.4-2.5,4-3.2
		c0.7-0.2,1.5-0.4,2.2-0.4c1.1-0.1,2.2,0.1,3.2,0.4c0,0,0.1,0,0.1,0c3.4,1.3,5.7,4.9,5.2,8.6c0,0.2,0,0.3,0.2,0.4
		c0.6,0.5,1.2,0.9,1.8,1.4c1.2,1,2.3,1.9,3.5,2.8c1,0.9,2.1,1.7,3.2,2.5c0.7,0.6,1.5,1.2,2.3,1.8c1.5,1.2,3.1,2.5,4.6,3.7
		c0.2,0.2,0.4,0.5,0.8,0.3c1.3-0.5,2.6-0.6,4-0.4c0,0,0.1,0,0.1,0c0.1,0,0.1,0,0.2,0c0,0,0,0,0,0c0.9,0.4,1.6,0.3,2.3-0.4
		c1.3-1.2,2.7-2.3,4.1-3.4c0.8-0.6,1.5-1.2,2.2-1.8c1.1-0.8,2.2-1.7,3.2-2.5c1.2-0.9,2.3-1.8,3.4-2.8c0.6-0.5,1.2-0.9,1.8-1.4
		C81,9.3,81,9.2,81,9.1c-0.1-0.7-0.1-1.4,0-2.1c0,0,0-0.1,0-0.1c0-0.1,0-0.2,0.1-0.4c0.1-0.3,0.2-0.7,0.3-1c0.2-0.5,0.4-1,0.7-1.5
		c1-1.7,2.5-2.9,4.3-3.6c1.3-0.4,2.6-0.6,4-0.3c0.5,0.1,1,0.2,1.4,0.3c2.4,0.9,4,2.6,4.9,5C96.8,5.9,96.9,6.4,97,6.9z"/>
	<path fill="#FFFFFF" d="M97.1,81c0,1.1,0,2.2,0,3.4c-0.2,0.4-0.3,0.8-0.6,1.1c-0.5,0.6-1.1,0.9-1.9,0.9c-3.6,0-7.2,0-10.8,0
		c-1.1,0-1.9-0.5-2.5-1.4c-0.1-0.1-0.1-0.3-0.2-0.3c0-0.1,0-0.1,0-0.2c0,0,0-0.1,0-0.1c0-0.3-0.1-0.7-0.1-1c0-0.8,0-1.6,0-2.3
		c0-1.8,0-3.6,0-5.4c0-1.8,0-3.6,0-5.4c0-1.8,0-3.6,0-5.4c0-1.8,0-3.5,0-5.3c0-1.8,0-3.6,0-5.4c0-1.8,0-3.5,0-5.3c0-1.8,0-3.6,0-5.4
		c0-1.8,0-3.6,0-5.4c0-0.8,0-1.6,0-2.3c0-0.4,0-0.7,0.1-1.1c0.4-0.9,1-1.5,1.9-1.9c1.1-0.2,2.3,0,3.4-0.1c1.8,0,3.6,0,5.4,0
		c1.1,0.1,2.3-0.1,3.4,0.1c0.9,0.3,1.5,1,1.9,1.8c0,1.2,0,2.3,0,3.5c0,1.8,0,3.6,0,5.3c0,1.8,0,3.7,0,5.5c0,1.8,0,3.6,0,5.3
		c0,1.8,0,3.6,0,5.4c0,1.8,0,3.6,0,5.3c0,1.8,0,3.6,0,5.4c0,1.8,0,3.6,0,5.4C97.1,77.3,97.1,79.1,97.1,81z"/>
	<path fill="#FFFFFF" d="M43,84.5c-0.3,0.6-0.6,1.1-1.2,1.4c-0.4,0.2-0.8,0.4-1.3,0.4c-3.5,0-7.1,0-10.6,0c-1.6,0-2.3-0.5-2.9-2
		c0-0.3-0.1-0.6-0.1-0.9c0-0.8,0-1.6,0-2.4c0-1.8,0-3.6,0-5.4c0-1.8,0-3.6,0-5.4c0-1.8,0-3.5,0-5.3c0-1.8,0-3.6,0-5.4
		c0-1.8,0-3.6,0-5.4c0-1.8,0-3.6,0-5.4c0-1.8,0-3.5,0-5.3c0-1.8,0-3.6,0-5.4c0-0.2,0-0.4,0-0.5c0-1-0.1-2,0.1-3
		c0.4-0.8,1-1.5,1.9-1.8c1.1-0.2,2.3,0,3.5-0.1c1.8,0,3.6,0,5.4,0c1.1,0.1,2.2-0.1,3.4,0.1c0.9,0.3,1.5,0.9,1.9,1.7
		c0.1,0.4,0.1,0.8,0.1,1.2c0,0.8,0,1.7,0,2.5c0,1.8,0,3.6,0,5.4c0,1.8,0,3.6,0,5.4c0,1.8,0,3.6,0,5.3c0,1.8,0,3.6,0,5.4
		c0,1.8,0,3.6,0,5.3c0,1.8,0,3.6,0,5.4c0,1.8,0,3.6,0,5.4c0,1.8,0,3.6,0,5.4c0,0.2,0,0.5,0,0.7C43.1,82.6,43.2,83.6,43,84.5z"/>
	<path fill="#FFFFFF" d="M70.1,59.4c0,1.8,0,3.6,0,5.4c0,1.8,0,3.6,0,5.3c0,1.8,0,3.6,0,5.4c0,1.8,0,3.6,0,5.4c0,1.1,0,2.2,0,3.3
		c-0.3,0.9-0.9,1.6-1.7,1.9c-0.3,0.1-0.7,0.1-1,0.1c-3.5,0-7,0-10.5,0c-0.4,0-0.8,0-1.2-0.1c-0.7-0.3-1.2-0.9-1.6-1.6
		c-0.2-0.9-0.1-1.8-0.1-2.7c0-0.3,0-0.6,0-0.9c0-1.8,0-3.6,0-5.4c0-1.8,0-3.6,0-5.4c0-1.8,0-3.6,0-5.3c0-1.8,0-3.6,0-5.4
		c0-1.1,0-2.3,0.1-3.4c0.4-0.9,1-1.6,2-1.9c1.1-0.2,2.2,0,3.4-0.1c1.8,0,3.6,0,5.4,0c1.1,0.1,2.2-0.1,3.4,0.1c1.1,0.3,1.7,1.1,2.1,2
		C70.1,57.2,70.1,58.3,70.1,59.4z"/>
	<path fill="#FFFFFF" d="M0,70.1c0-1.8,0-3.6,0-5.3c0-1.2,0-2.4,0-3.6c0.4-0.7,0.8-1.4,1.7-1.7c0.1,0,0.1,0,0.2,0c0,0,0.1,0,0.1-0.1
		c1.1,0,2.2,0,3.3,0c1.8,0,3.6,0,5.4,0c1.1,0,2.2,0,3.3,0c1,0.3,1.6,1,2,1.9c0.1,0.4,0.1,0.9,0.1,1.3c0,0.7,0,1.5,0,2.2
		c0,1.8,0,3.5,0,5.3c0,1.8,0,3.6,0,5.4c0,1.8,0,3.6,0,5.4c0,0.7,0,1.5,0,2.2c0,0.4,0,0.8-0.1,1.2c-0.3,0.8-0.9,1.4-1.7,1.8
		c-0.4,0.1-0.8,0.1-1.2,0.1c-3.5,0-7,0-10.4,0c-0.4,0-0.8,0-1.1-0.1c-0.8-0.4-1.4-1-1.7-1.9c0-1.1,0-2.2,0-3.4c0-1.8,0-3.6,0-5.4
		C0,73.7,0,71.9,0,70.1z"/>
</g>
</svg>
