<?xml version="1.0" encoding="utf-8"?>
<svg version="1.1" id="Ebene_1" xmlns="http://www.w3.org/2000/svg" xmlns:xlink="http://www.w3.org/1999/xlink" x="0px" y="0px"
	 viewBox="0 0 283.5 252.5" style="enable-background:new 0 0 283.5 252.5;" xml:space="preserve">
<style type="text/css">
	.st0{fill:#FEFDFD;}
</style>
<path class="st0" d="M55.3,113.4c5.8,0,9.4,0,13,0c66.3,0,132.7,0.1,199-0.2c8.1,0,11.5,1.3,11.1,10.4c-0.8,16.8-0.1,16.8-16.8,16.8
	c-64.3,0-128.5,0-192.8,0c-3.7,0-7.3,0-11.8,0c1.2,4.5,4.3,6.3,6.5,8.6c25.2,25.3,50.4,50.7,75.9,75.8c5.1,5,6.5,7.9,0.4,13.5
	c-13.2,12.2-12.8,12.6-25.8-0.3C79,203,44.1,167.9,8.9,133.1c-5.2-5.2-5-7.7,0.1-12.7c37.4-37,74.6-74.1,111.6-111.6
	c5.2-5.3,8-4.9,12.9,0.2c12.6,13,12.8,12.8,0,25.6c-23.3,23.3-46.7,46.7-70,70C61.1,107,59,109.5,55.3,113.4z"/>
</svg>
