<?xml version="1.0" encoding="utf-8"?>
<!-- Generator: Adobe Illustrator 25.2.0, SVG Export Plug-In . SVG Version: 6.00 Build 0)  -->
<svg version="1.1" id="Ebene_1" xmlns="http://www.w3.org/2000/svg" xmlns:xlink="http://www.w3.org/1999/xlink" x="0px" y="0px"
	 viewBox="0 0 283.5 252.5" style="enable-background:new 0 0 283.5 252.5;" xml:space="preserve">
<style type="text/css">
	.st0{fill:#FEFDFD;}
</style>
<path class="st0" d="M228.2,139.2c-5.8,0-9.4,0-13,0c-66.3,0-132.7-0.1-199,0.2c-8.1,0-11.5-1.3-11.1-10.4
	c0.8-16.8,0.1-16.8,16.8-16.8c64.3,0,128.5,0,192.8,0c3.7,0,7.3,0,11.8,0c-1.2-4.5-4.3-6.3-6.5-8.6c-25.2-25.3-50.4-50.7-75.9-75.8
	c-5.1-5-6.5-7.9-0.4-13.5c13.2-12.2,12.8-12.6,25.8,0.3c35,35,69.9,70.1,105.1,104.9c5.2,5.2,5,7.7-0.1,12.7
	c-37.4,37-74.6,74.1-111.6,111.6c-5.2,5.3-8,4.9-12.9-0.2c-12.6-13-12.8-12.8,0-25.6c23.3-23.3,46.7-46.7,70-70
	C222.4,145.6,224.5,143.1,228.2,139.2z"/>
</svg>
