<?xml version="1.0" encoding="utf-8"?>
<svg version="1.1" xmlns="http://www.w3.org/2000/svg" xmlns:xlink="http://www.w3.org/1999/xlink" x="0px" y="0px"
	 viewBox="0 0 432.9 431.1" style="enable-background:new 0 0 432.9 431.1;" xml:space="preserve">
<g>
	<path fill="#FFF" d="M4.4,325.1c0-9.2,0-18.3,0-27.5c0-9.2,0-18.3,0-27.5c0.7-10.1,6.5-17.5,15.4-19.7c1.7-0.4,3.4-0.6,5.2-0.8
		c9.2,0,18.3,0,27.5,0c9.2,0,18.3,0,27.5,0c9,0,18,0,27,0c9.2,0,18.3,0,27.5,0c1.7,0,3.5,0,5.2,0.1c5.5,0.2,10.3,2,14.3,6
		c4.1,4.1,5.8,9,6.2,14.5c0,6.7-3.1,11.8-7.8,16.3c-3.6,3.4-7,7.1-10.5,10.6c-2.7,2.7-5.3,5.3-8,8c-4.8,4.8-9.6,9.6-14.5,14.3
		c-1,0.9-0.6,1.4,0.2,2.1c1.4,1.3,2.7,2.7,4.4,3.7c3.2,3.1,6.8,5.7,10.5,8.1c8.4,6.3,17.7,11.3,27.5,15c3.5,1.8,7.1,3,10.9,3.9
		c5.2,2.2,10.7,3.2,16.1,4.3c9.1,1.9,18.3,2.6,27.5,2.6c4.6,0.2,9.3-0.2,13.9-0.6c4.6-0.4,9.2-0.7,13.6-2.2c5.1-0.7,10.1-1.8,15-3.6
		c4.3-1.1,8.4-2.8,12.5-4.6c9.7-3.7,18.6-8.7,27-14.8c3.8-2.2,7.2-5.1,10.5-8.1c6.5-5.2,12.3-11,17.5-17.5c2.9-3.1,5.4-6.4,7.7-10
		c6.2-8.5,11.1-17.8,15.2-27.6c2-4.7,3.9-9.4,4.7-14.5c0.8-0.4,0.8-1.3,0.9-1.9c0.6-4.1,2.1-7.6,5.6-10.1c3.5-1,7.2-0.9,10.8-0.9
		c3.1,0,6.1,0,9.2-0.1c9.2,0,18.3,0,27.5,0c2.6,0.3,5.3-0.1,8,0.3c6.2,0.9,10.1,6.2,8.9,12.4c-2.6,13.7-6.5,27.1-11.9,40
		c-0.2,0.5-0.4,1.1-0.5,1.7c-1.5,3.4-3,6.8-4.6,10.2c-3.1,5.8-6.2,11.6-9.3,17.4c-0.2,0.3-0.4,0.5-0.6,0.8
		c-13.1,21.4-29.4,40-49,55.7c-7.5,6-15.5,11.2-23.5,16.4c-3.2,1.8-6.3,3.5-9.5,5.3c-2.5,1.5-5.4,2.3-7.7,4.2
		c-3.5,0.9-6.5,2.6-9.7,4.1c-9,3.6-18.2,6.7-27.5,9.5c-9,1.9-17.9,4-27,5.2c-9.1,0.9-18.3,2.1-27.5,1.9c-9.2-0.5-18.4-0.6-27.5-1.9
		c-9.1-1.1-18-3.2-27-5.2c-9.3-2.8-18.5-5.8-27.5-9.4c-3.3-1.5-6.7-3-10-4.5c-5.8-3.1-11.7-6.3-17.5-9.4
		c-12.7-8.1-24.8-16.9-35.8-27.3c-0.8-0.7-1.3-1.1-2.2-0.1c-3.2,3.3-6.4,6.5-9.6,9.8c-2.7,2.3-5.1,4.8-7.5,7.5
		c-3.1,3-6.3,5.9-9.2,9.1c-4.8,5.3-10.3,9.1-17.7,9.3c-0.4-0.1-0.8-0.2-1.2-0.3c-9.3-0.4-17.6-7.3-19.1-17.2
		c-0.4-2.8-0.2-5.6-0.3-8.4c0-9.2,0-18.3,0-27.5C4.4,343.1,4.4,334.1,4.4,325.1z"/>
	<path fill="#FFF" d="M83.8,160.6c-2.1,4.4-3.8,8.9-4.8,13.6c-0.9,1.2-1.1,2.8-1.4,4.2c-0.7,4.3-3,7.2-6.7,9.3
		c-6.1,1.1-12.3,0.2-18.5,0.6c-9.2,0-18.3,0-27.5,0c-2.2,0-4.3,0-6.5-0.1C11.4,188,7,182.4,8.2,175.4c2.4-13.4,6.4-26.4,11.5-39
		c0.3-0.8,0.5-1.7,0.8-2.6c1.8-3,3.1-6.3,4.4-9.6c3.2-6,6.4-12,9.6-18c0.3-0.4,0.6-0.8,0.9-1.2c13.3-21.7,30-40.3,49.9-56.2
		c6.9-5.5,14.3-10.2,21.6-15.1c5.8-3.2,11.7-6.4,17.5-9.5c3.3-1.5,6.6-2.9,10-4.4c9-3.6,18.2-6.7,27.6-9.4c8.9-2,17.9-3.9,26.9-5.2
		c9.1-1,18.3-1.5,27.5-1.7c9.2,0.2,18.4,0.8,27.5,1.7c9.1,1.3,18,3.2,27,5.3c9.3,2.7,18.5,5.8,27.5,9.3c3.7,1.7,7.3,3.3,11,5
		c5.5,3,11,5.9,16.5,8.9c8.5,5.7,17,11.3,24.9,17.8c3.6,3,7.2,5.9,10.5,9.2c1.2,1.2,1.9,1.4,3.1,0.1c3-3.3,6.2-6.4,9.4-9.7
		c2.4-2,4.6-4.2,6.6-6.6c4-3.9,8.1-7.7,11.9-11.7c4.3-4.6,9.4-7,15.6-7.2c10.4,0.9,17.4,6.3,19.9,15.2c1,3.4,0.4,6.9,0.7,10.4
		c0,9.2,0,18.3,0,27.5c0,9.2,0,18.3,0,27.5c0,9.2,0,18.3,0,27.5c0,9,0,18,0,27c-0.2,4.3-1.3,8.4-3.8,11.9c-4.1,5.7-9.8,8.4-16.8,8.8
		c-9.2-0.2-18.4-0.2-27.5,0c-9.1-0.2-18.3-0.2-27.4,0c-9-0.3-18-0.2-27,0c-9.2-0.2-18.3-0.2-27.5,0c-1.4,0-2.8-0.2-4.2-0.1
		c-12.7,0.3-20.4-8.5-21.9-20.6c0.6-5.5,2.6-10.4,6.5-14.4c3.5-3.5,6.9-6.9,10.4-10.4c0.8-0.8,1.5-1.8,2.2-2.7
		c2.7-1.8,4.8-4.2,6.9-6.7c4-3.9,8-7.8,11.9-11.7c4.7-4.6,4.7-4.7-0.9-8.7c-3.4-3.2-7.1-6-11-8.5c-8.4-6.3-17.7-11.2-27.5-15
		c-0.6-0.3-1.2-0.7-1.8-0.9c-25.6-10-51.9-12.4-78.9-7.5c-5.6,1-11.3,2-16.6,4.3c-4.3,0.9-8.3,2.6-12.3,4.5
		c-9.9,3.7-18.9,9-27.5,15.1c-3.7,2.3-7.2,5-10.4,8.1c-6.2,4.8-11.6,10.5-16.6,16.4c-2.9,3.3-5.7,6.7-8,10.5
		C92.7,141.6,87.7,150.8,83.8,160.6z"/>
</g>
</svg>
