<svg xmlns="http://www.w3.org/2000/svg" xmlns:xlink="http://www.w3.org/1999/xlink" x="0px" y="0px"
	 viewBox="0 0 132.9 132.9" style="enable-background:new 0 0 132.9 132.9;" xml:space="preserve">
<path fill="rgb(255, 70, 70)" d="M132.8,18.2c0.6,4.2-0.6,7.8-3.6,10.7c-0.3,0.3-0.6,0.6-0.9,1c-0.5,0.4-1,0.8-1.3,1.3c-3.8,3.6-7.4,7.3-11,11
	c-0.5,0.3-0.8,0.7-1.1,1.1c-3.8,3.6-7.4,7.3-11,11c-0.5,0.3-0.8,0.7-1.1,1.1C99.1,59,95.6,62.6,92,66.1c-0.1,0.1-0.1,0.3-0.1,0.4
	c3.5,3.7,7.1,7.3,10.8,10.9c0.4,0.5,0.8,0.9,1.3,1.3c3.5,3.7,7.2,7.3,10.8,10.8c0.3,0.4,0.7,0.8,1.1,1.1c3.5,3.7,7.2,7.3,10.8,10.8
	c0.4,0.5,0.8,0.9,1.3,1.3c0.2,0.2,0.4,0.5,0.7,0.7c3.3,3.1,4.8,6.9,4,11.4c-0.5,2.4-1.6,4.5-3.4,6.2c-0.8,0.8-1.6,1.7-2.5,2.5
	c-1,1-2.1,2.1-3.1,3.1c-0.3,0.3-0.6,0.5-0.9,0.8c-2.2,2.5-4.8,4.4-8.1,5.2c-3.1,0.3-6-0.1-8.7-1.8c-1.3-0.8-2.2-2.1-3.4-3
	c-0.4-0.4-0.7-1-1.3-1.1c-3.6-3.6-7.2-7.2-10.8-10.8c-0.2-0.7-0.8-1-1.3-1.3c-3.5-3.6-7-7.1-10.6-10.6c-0.2-0.6-0.7-0.9-1.1-1.3
	C74,99.2,70.4,95.6,66.9,92c-0.2-0.2-0.3-0.5-0.6-0.1c-3.7,3.5-7.3,7.1-10.8,10.8c-0.5,0.3-0.8,0.7-1.1,1.1c-3.7,3.6-7.4,7.3-11,11
	c-0.4,0.2-0.7,0.5-0.9,0.9c-3.8,3.6-7.4,7.3-11,11c-0.5,0.3-0.8,0.7-1.1,1.1c-1.1,0.8-1.8,1.9-2.9,2.7c-2.8,2-5.9,2.5-9.3,2.2
	c-2.8-0.7-5.2-2-7.1-4.2c-0.6-0.7-1.3-1.2-1.9-1.8c-1-1.1-2-2.2-3.2-3.2c-0.3-0.3-0.6-0.7-0.9-1c-2.3-2.2-4.3-4.6-4.9-7.8
	c-0.4-2.4-0.1-4.8,0.9-7.1c0.8-1.9,2.3-3.3,3.6-4.8c0.5-0.5,1-1,1.6-1.6c3.6-3.5,7.1-7,10.6-10.6c0.5-0.5,1-1,1.6-1.6
	c3.6-3.5,7.1-7,10.6-10.6c0.5-0.5,1-1,1.6-1.6c3.5-3.5,6.9-6.9,10.4-10.4c0.5-0.3,0.2-0.5,0-0.8c-3.5-3.5-7.1-7-10.6-10.5
	c-0.3-0.4-0.7-0.8-1.1-1.1c-3.6-3.7-7.3-7.4-11-11c-0.3-0.4-0.7-0.8-1.1-1.1c-3.6-3.8-7.3-7.4-11-11c-0.3-0.4-0.7-0.8-1.1-1.1
	c-0.2-0.3-0.5-0.6-0.7-0.8c-3.2-3-4.6-6.7-3.9-11.1c0.6-2.7,1.9-5,3.9-6.9c0.7-0.6,1.3-1.3,1.9-2c1.2-1,2.3-2.1,3.3-3.3
	c0.3-0.3,0.7-0.6,1-1c2.1-2.4,4.6-4.2,7.8-4.9c2.9-0.3,5.7,0,8.3,1.5c1.5,0.9,2.6,2.2,3.8,3.3c0.3,0.4,0.7,0.8,1.1,1.1
	c3.6,3.8,7.3,7.4,11.1,11.1c0.3,0.4,0.7,0.8,1.1,1.1c3.5,3.7,7.2,7.3,10.8,10.8c0.3,0.4,0.7,0.8,1.1,1.1c3.1,3.2,6.2,6.3,9.4,9.5
	c0.5,0.5,0.9,1.1,1.6,1.5l0,0c0.2,0.2,0.2,0,0.3-0.1c3.6-3.5,7.1-7,10.6-10.6c0.5-0.5,1-1,1.6-1.6c3.5-3.5,6.9-6.9,10.4-10.4
	c0.5-0.5,1-1,1.6-1.6c3.6-3.5,7.1-7,10.6-10.6c0.5-0.5,1-1,1.6-1.6c0.2-0.2,0.4-0.3,0.6-0.5c3-3.4,6.8-4.6,11.3-4.1
	c2.8,0.6,5.2,2,7.1,4.1c0.6,0.6,1.2,1.2,1.8,1.7c1,1.2,2.1,2.3,3.3,3.3c0.5,0.5,0.9,1.1,1.4,1.5C130.6,12.8,132.2,15.2,132.8,18.2z"
	/>
</svg>
