<?xml version="1.0" encoding="utf-8"?>
<svg version="1.1" xmlns="http://www.w3.org/2000/svg" xmlns:xlink="http://www.w3.org/1999/xlink" x="0px" y="0px"
	 viewBox="0 0 50 50" style="enable-background:new 0 0 50 50;" xml:space="preserve">
<style type="text/css">
	.st0{fill:#FFFFFF;}
</style>
<g>
	<path class="st0" d="M14.4,2.5c0.4-0.1,0.7,0,1.1,0c0.7,0,1.3,0,2,0c0.8,0,1.4,0.3,1.7,1c0.1,0.6,0,1.2,0.1,1.8c0,0.9,0,1.7,0,2.6
		c0,0.1,0,0.2,0.2,0.2c0.9,0,1.8,0,2.7,0c1,0,2,0,2.9,0c1,0,2,0,2.9,0c0.9,0,1.8,0,2.7,0c0.2,0,0.2-0.1,0.2-0.2c0-0.7,0-1.4,0-2.1
		c0-0.2,0-0.3,0-0.5c0-0.6,0-1.2,0-1.8c0.2-0.4,0.5-0.8,1-1c0.2-0.1,0.5-0.1,0.7-0.1c0.8,0,1.6,0,2.4,0c0.8,0,1.3,0.3,1.6,1
		c0,0.2,0,0.4,0,0.5c0,0.4,0,0.8,0,1.3c0,0.9,0,1.7,0,2.6c0,0.1,0,0.2,0.2,0.2c0.9,0,1.8,0,2.7,0c0.7,0,1.4,0,2,0.1
		c2.2,0.3,3.8,2.1,3.8,4.2c0,0.5,0,0.9,0,1.4c0,0.9,0,1.9,0,2.8c0,0,0,0,0,0c-1,0-1.9,0-2.9,0c-1,0-1.9,0-2.9,0c-1,0-2,0-2.9,0
		c-1,0-2,0-2.9,0c-1,0-2,0-2.9,0c-1,0-1.9,0-2.9,0c-1,0-2,0-2.9,0c-1,0-2,0-2.9,0c-1,0-1.9,0-2.9,0c-1,0-2,0-2.9,0c-1,0-2,0-2.9,0
		c-1,0-2,0-2.9,0c-1,0-1.9,0-2.9,0c-1,0-1.9,0-2.9,0c0,0,0,0,0,0c0-0.9,0-1.9,0-2.8c0-0.7,0-1.4,0.1-2.1c0.3-1.8,2-3.4,3.9-3.5
		c0.6,0,1.2,0,1.8,0c0.9,0,1.8,0,2.7,0c0.2,0,0.2-0.1,0.2-0.2c0-0.9,0-1.7,0-2.6c0-0.4,0-0.8,0-1.3c0-0.2,0-0.4,0.1-0.6
		C13.6,3,13.9,2.7,14.4,2.5z"/>
	<path class="st0" d="M45.4,41.9c0,0.5,0,1,0,1.5c0,2.1-1.7,3.9-3.8,4.1c-0.1,0-0.2,0-0.3,0c-10.8,0-21.7,0-32.5,0
		c-0.4,0-0.8-0.1-1.2-0.2c0,0-0.1,0-0.1,0c-1.8-0.7-2.8-2.2-2.8-4c0-0.4,0-0.9,0-1.3c0-0.9,0-1.9,0-2.8c0-0.9,0-1.9,0-2.8
		c0-0.9,0-1.9,0-2.8c0-0.9,0-1.9,0-2.8c0-0.9,0-1.9,0-2.8c0-0.9,0-1.9,0-2.8c0-0.9,0-1.9,0-2.8c0-0.9,0-1.9,0-2.8c0,0,0,0,0,0
		c1,0,1.9,0,2.9,0c1,0,1.9,0,2.9,0c1,0,2,0,2.9,0c1,0,2,0,2.9,0c1,0,2,0,2.9,0c1,0,1.9,0,2.9,0c1,0,2,0,2.9,0c1,0,2,0,2.9,0
		c1,0,1.9,0,2.9,0c1,0,2,0,2.9,0c1,0,2,0,2.9,0c1,0,2,0,2.9,0c1,0,1.9,0,2.9,0c1,0,1.9,0,2.9,0l0,0c0,0.9,0,1.9,0,2.8
		c0,0.9,0,1.9,0,2.8c0,0.9,0,1.9,0,2.8c0,0.9,0,1.9,0,2.8c0,0.9,0,1.9,0,2.8c0,0.9,0,1.9,0,2.8c0,0.9,0,1.9,0,2.8
		C45.4,40,45.4,41,45.4,41.9z M13.3,25c-0.5,0-1,0-1.5,0c-0.7,0-1.4,0.6-1.4,1.3c0,0.5,0,1,0,1.5c0,0.2,0,0.5,0,0.7
		c0,0.7,0,1.4,0,2.1c0,0.9,0,1.9,0,2.8c0,0.5,0,1,0,1.6c0,0.6,0.6,1.1,1.1,1.2c0.6,0.1,1.2,0.1,1.8,0c1,0,1.9,0,2.9,0
		c0.2,0.1,0.5,0,0.7,0c0.7,0,1.5,0,2.2,0c0.6,0,1.1,0.1,1.7,0c0.6-0.1,1.1-0.7,1.2-1.2c0-0.5,0-1,0-1.5c0-0.9,0-1.9,0-2.8
		c0-0.9,0-1.9,0-2.8c0-0.5,0-1,0-1.5c0-0.7-0.6-1.3-1.3-1.3c-0.5,0-1,0-1.6,0c-1,0-2,0-2.9,0C15.3,25,14.3,25,13.3,25z"/>
</g>
</svg>
