<svg xmlns="http://www.w3.org/2000/svg" xmlns:xlink="http://www.w3.org/1999/xlink" version="1.1" id="Ebene_1" x="0px" y="0px" viewBox="0 0 677.8 595.3" style="enable-background:new 0 0 677.8 595.3;" xml:space="preserve">
<style type="text/css">
	.st0{fill:#FFFFFF;}
</style>
<g>
	<path class="st0" d="M0,123.2c0-0.3,0-0.6,0.1-0.9c1.3-4.8,2.1-9.7,4.2-14.2c1.3-2.8,2.7-5.6,4.1-8.4c0.1-0.1,0.2-0.2,0.2-0.3   c1.1-0.7,1.8-1.7,2.1-2.9c0.1-0.1,0.2-0.2,0.2-0.3c0.9-0.4,1.5-1,1.7-2l0.1-0.1c2.6-2.6,5.2-5.2,7.8-7.8l0.1,0   c0.8-0.1,1.3-0.5,1.6-1.2c0.2,0,0.3-0.1,0.3-0.2c3.6-1.9,6.9-4.2,10.6-5.9c6.4-2.9,13.1-4.5,20.1-4.6c8.2-0.2,16.3-0.1,24.5-0.1   c101.4,0,202.7,0,304.1,0c4.1,0,8.1-0.1,12,1.4c0.4,0.2,0.8,0.5,1.2,0.7c0.2,0.5,0.5,0.8,1.1,0.8c0.5,0.8,1.1,1.4,1.9,1.9   c0,0.6,0.4,0.9,0.8,1c0.7,1.7,1.4,3.3,2.1,5c-0.1,0.7-0.2,1.3,0.4,1.8c0,1,0,1.9,0,2.9c-0.6,0.5-0.5,1.2-0.4,1.8   c-0.2,0.8-0.5,1.7-0.7,2.5c-0.5,0.3-0.8,0.6-0.8,1.2c-1.6,2.1-3.5,4-5.4,5.9c-3,3-6,6.1-9,9.2c-5.2,4.7-10.2,9.6-14.8,14.9   c-5.5,5.2-10.9,10.6-16.1,16.1c-0.7,0.2-1.2,0.7-1.5,1.5c-1.8,1.5-3.4,3.1-5.4,4.3c-3.6,1.3-7.3,1.4-11.1,1.4   c-86.3,0-172.7,0-259,0c-0.9,0-2.2-0.8-2.7,0.8c-0.1,5.5-0.2,11-0.2,16.5c0,6.7,0.1,13.3,0.2,20c-0.1,6.4-0.2,12.9-0.2,19.3   c0,5.9,0.1,11.8,0.2,17.7c-0.1,8.3-0.1,16.7-0.1,25c0,4.1,0.1,8.3,0.1,12.4c-0.1,6.3-0.2,12.6-0.2,18.8c0,6,0.1,12.1,0.2,18.1   c-0.1,4.9-0.2,9.8-0.1,14.7c0,7.4,0.1,14.8,0.1,22.2c-0.1,9-0.1,17.9-0.2,26.9c0,3.5,0.1,7,0.2,10.6c-0.1,8.6-0.1,17.3-0.1,25.9   c0,3.8,0.1,7.6,0.2,11.5c-0.1,6.1-0.2,12.2-0.2,18.4c0,6.2,0.1,12.4,0.2,18.6c-0.1,7.7-0.1,15.4-0.1,23.2c0,4.6,0.1,9.2,0.1,13.8   c-0.1,0.6-0.2,1.2-0.2,1.8c0,11.1,0,22.1-0.1,33.2c0,2,0.7,2.4,2.5,2.4c10.2-0.1,20.4,0,30.6,0c1.3,0,2.6,0.2,3.9-0.2   c0.9,0.1,1.8,0.2,2.7,0.2c10.6,0,21.2,0,31.9,0c0.9,0,1.8-0.1,2.7-0.2c0.8,0.1,1.7,0.2,2.5,0.2c10.7,0,21.3,0,32,0   c0.8,0,1.7-0.1,2.5-0.2c0.9,0.1,1.8,0.2,2.7,0.2c9.8,0,19.6,0,29.3,0c1.6,0,3.2,0.2,4.8-0.2c0.8,0.1,1.7,0.2,2.5,0.2   c10.8,0,21.6,0,32.4,0c0.8,0,1.7-0.1,2.5-0.2c0.9,0.1,1.8,0.2,2.7,0.2c10.2,0,20.4,0,30.6,0c1.2,0,2.4-0.1,3.6-0.2   c0.8,0.1,1.7,0.2,2.5,0.2c10.8,0,21.6,0,32.4,0c0.8,0,1.7-0.1,2.5-0.2c0.9,0.1,1.8,0.2,2.7,0.2c10.2,0,20.5,0,30.7,0   c1.1,0,2.3-0.1,3.4-0.2c0.8,0.1,1.5,0.2,2.3,0.2c10.8,0,21.6,0,32.5,0c0.8,0,1.5-0.1,2.3-0.2c12.1,0.5,24.1,0.1,36.2,0.2   c1.3,0,1.1-1,1.1-1.8c0-3.2,0-6.3,0-9.5c0-8.5-0.1-17.1-0.1-25.6c0-7,0.1-13.9,0.1-20.9c0-5.7-0.1-11.3-0.1-17   c0-5.6,0.1-11.2,0.1-16.7c0-6.6-0.1-13.2-0.1-19.7c0.3-4.5-0.3-9.1,1.5-13.4c0.1-0.1,0.2-0.2,0.1-0.3c0.9-0.8,1.8-1.7,2.1-3   c1.7-1.1,2.9-2.8,4.3-4.2c5.1-5.1,10.2-10.2,15.2-15.4c1.9-1.2,3.3-3,4.8-4.6c3.5-3.6,7.4-6.9,10.6-10.9c3.4-3.2,7-6.3,10-9.9   c1-0.4,1.6-1.1,2-2.1c0.5-0.3,1-0.5,1.2-1.1c2.5-1.3,5.1-2.1,7.8-2.8c0.5,0,1,0,1.5,0c1,0.5,2.1,0.7,3.2,0.7c0.3,0.1,0.6,0.2,1,0.2   c1.5,0.9,3.1,1.9,4.6,2.8c0.2,0.2,0.4,0.4,0.5,0.5c0,0.9,0.8,1.3,1.2,1.9c1.6,2.4,2.6,5,2.6,8c0,60.7,0,121.4,0,182.1   c0,2.2,0,4.5,0,6.7c0,0.3,0,0.6-0.1,0.9c-1.1,4.3-2.1,8.6-3.2,12.9c-0.1,0.2-0.1,0.5-0.2,0.7c-1.2,1.7-2,3.7-2.6,5.7   c-0.1,0.1-0.2,0.2-0.1,0.3c-0.8,0.4-1.1,1.1-1.2,2c-0.1,0.1-0.2,0.2-0.2,0.4c-0.8,0.4-1.1,1.1-1.3,1.9c-0.1,0.1-0.2,0.2-0.2,0.3   c-0.5,0.2-0.8,0.5-0.8,1.1c-0.1,0.1-0.2,0.2-0.2,0.3c-1,0.5-1.5,1.4-1.9,2.4c-0.1,0.2-0.3,0.3-0.4,0.5c-0.5,0.1-0.8,0.4-0.8,1   c-0.2,0.3-0.4,0.5-0.6,0.8c-0.7,0.3-1.2,0.8-1.4,1.5c0,0,0,0,0,0c-1.7,1.1-3.1,2.5-4.3,4.1c-0.4,0-0.6,0.2-0.8,0.6   c-0.5,0-0.9,0.3-1,0.8c-0.4,0-0.7,0.2-0.8,0.6c-0.6,0-0.9,0.3-1,0.8c-0.3,0.2-0.6,0.4-0.8,0.6c-0.6,0-0.9,0.3-1.1,0.8   c-0.1,0-0.2,0-0.3,0.2c-0.8,0.1-1.5,0.5-1.9,1.3c-0.2,0-0.3,0-0.4,0.2c-1.1,0.3-2.2,0.7-2.9,1.6c-0.3,0.1-0.5,0.2-0.8,0.3   c-4.1,1.6-8.1,3.3-12.4,4.1c-2.6,0.5-5.1,1-7.8,1c-139,0-278,0-417.1-0.1c-10.9,0-20.8-4.2-29.3-10.9C7.6,571.4,0,556.6,0,538.3   C0,402.2,0,266,0,129.8C0,127.6,0,125.4,0,123.2z"/>
	<path class="st0" d="M575,207.1c-0.2,1.1-0.2,2.3,0,3.4c-1.2,2.7-2.3,5.4-4.6,7.5c-0.8,0.7-1.8,1.4-2.2,2.6c0,0,0,0,0,0   c-0.8,0.2-1.3,0.8-1.8,1.4c-4.3,4.2-8.5,8.5-12.7,12.7C475.9,312.6,398,390.5,320.2,468.4c-1.5,1.5-3.2,2.3-5.3,2.4   c-1.6,0-3.2,0.1-4.7,0.8c-0.3,0-0.7,0-1,0.1c-0.9,0-1.8-0.1-2.8,0c-6,0.6-11.9,1.3-17.9,2c-13.5,1.5-27,3-40.5,4.6   c-7.7,0.9-15.4,1.8-23.1,2.6c-5.7,0.6-11.3,1.5-17,1.6c-10.4,0.3-19.1-7.1-21.8-17.2c-1-3.9-0.4-7.8,0.1-11.7   c1-9.2,2.1-18.5,3.1-27.7c0.6-5.3,1.4-10.5,1.5-15.8c0-0.3,0-0.6,0.1-1c0.9-2.3,0.7-4.8,1-7.2c1-9,2.1-18,3.1-27   c1-8.6,2-17.2,3-25.8c0.3-0.3,0.6-0.7,0.9-1c1.2-0.1,1.7-1.1,2.3-1.7c43.6-43.6,87.3-87.3,130.9-130.9   C371.5,175.9,411,136.4,450.4,97c4.1-4.1,9.9-5,14.5-2.1c1.1,0.7,2,1.6,2.9,2.6c34.2,34.2,68.3,68.4,102.5,102.5   c0.6,0.6,1.2,1.4,2.1,1.8c0.2,0.3,0.4,0.6,0.6,0.9C573.7,204.1,574.4,205.6,575,207.1z"/>
	<path class="st0" d="M668,108.2c-0.9,1.7-1,3.5-1.3,5.3c0,0.2-0.1,0.5-0.1,0.7c-1.2,2.1-1.9,4.4-2.6,6.7c-0.1,0.2-0.1,0.5-0.2,0.7   c-0.7,0.5-1.1,1.2-1.2,2c-0.1,0.1-0.2,0.2-0.1,0.4c-0.8,0.4-1.1,1.1-1.2,1.9c-0.1,0.1-0.2,0.2-0.2,0.4c-1.6,1.5-2.9,3.3-4,5.2   c-0.2,0.3-0.4,0.5-0.6,0.8c-0.7,0.3-1.2,0.7-1.4,1.5c0,0,0,0,0,0c-0.7,0.2-1.2,0.7-1.4,1.4c0,0,0,0,0,0c-2.8,2.1-5.3,4.6-7.4,7.4   c0,0,0,0,0,0c-0.7,0.2-1.2,0.6-1.4,1.4c0,0,0,0,0,0c-0.7,0.2-1.2,0.6-1.4,1.4c0,0,0,0,0,0c-0.7,0.2-1.2,0.6-1.4,1.4c0,0,0,0,0,0   c-0.8,0.2-1.2,0.9-1.8,1.4c-4,4-8.1,8-12,12c-1.8,1.8-3.8,3.3-5.1,5.5c0,0,0,0,0,0c-0.7,0.2-1.2,0.6-1.4,1.4c0,0,0,0,0,0   c-3.3,2.6-6.2,5.6-8.8,8.8c-0.1,0.1-0.3,0.2-0.4,0.2c-3.1,1.4-6.2,2.3-9.7,1.5c-2.2-0.5-3.7-2.1-5.6-3c-0.9-0.9-1.7-1.7-2.6-2.6   c-0.2-0.7-0.8-1.1-1.3-1.6c-7.7-7.7-15.4-15.5-23.1-23.2c-0.2-0.2-0.5-0.3-0.8-0.4c0,0-0.1-0.1-0.1-0.1c-0.1-0.8-0.5-1.2-1.3-1.3   l-0.1-0.1c-0.1-0.8-0.5-1.2-1.2-1.3c-0.7-0.7-1.3-1.3-2-2c-0.5-1.3-1.3-2.1-2.6-2.6c-0.5-0.5-1-1-1.5-1.5c-0.1-0.8-0.5-1.2-1.3-1.3   l-0.1-0.1c-0.1-0.8-0.5-1.2-1.3-1.3l-0.1-0.1c-0.3-1.4-1.7-1.9-2.6-2.8c-9.4-9.6-18.9-19.1-28.4-28.7c-0.6-0.6-1.1-1.5-2.1-1.6   l-0.1-0.1c-0.1-0.8-0.5-1.2-1.3-1.3l-0.1-0.1c-0.1-1-1-1.5-1.6-2.1c-9.6-9.1-18.7-18.7-28-28c-0.5-0.5-0.8-1.1-1.6-1.3l0,0   c-0.6-1.9-1.8-3.5-2.1-5.6c-0.5-4.3,1.3-7.6,4.2-10.5c13.2-13.2,26.4-26.4,39.6-39.6c0.6-0.6,1.4-1.2,1.8-2.1   c0.4-0.1,0.7-0.3,0.8-0.7c0.8,0,1.2-0.6,1.7-1c6-4.8,12.8-8.1,20.4-9.1c15.6-2.2,29.3,1.9,40.6,13.4c18.4,18.7,37.1,37.1,55.6,55.7   c0.5,0.5,1,1.2,1.8,1.5c0.2,0.3,0.4,0.5,0.6,0.8c0.1,0.3,0.1,0.6,0.3,0.8c4.7,5.3,7.6,11.6,9.4,18.4c0.4,1.4-0.1,3,1.1,4.1   C668,99.5,668,103.8,668,108.2z"/>
</g>
</svg>