<svg xmlns="http://www.w3.org/2000/svg" xmlns:xlink="http://www.w3.org/1999/xlink" x="0px" y="0px"
	 viewBox="0 0 109.7 109.8" enable-background="new 0 0 109.7 109.8" xml:space="preserve">
<path fill="#FFFFFF" d="M70.5,109.8c-2.6,0-5.2,0-7.7,0c-2.6,0-5.3,0-7.9,0c-2.6,0-5.3,0-7.9,0c-2.6,0-5.2,0-7.7,0
	c-2.6,0-5.3,0-7.9,0c-2.6,0-5.2,0-7.9,0c-3.9,0-7.7,0-11.6,0c-4.2,0-7.6-1.8-10-5.3c-1.3-1.9-1.9-4-1.9-6.3c0-1.4,0-2.8,0-4.1
	c0-2.6,0-5.2,0-7.7c0-2.6,0-5.2,0-7.9c0-2.6,0-5.3,0-7.9c0-2.6,0-5.2,0-7.9c0-2.6,0-5.2,0-7.7c0-2.6,0-5.2,0-7.9c0-2.6,0-5.3,0-7.9
	c0-2.6,0-5.2,0-7.9c0-2.6,0-5.2,0-7.7c0-2.6,0-5.2,0-7.9c0-1.4,0-2.8,0-4.2C0.1,6,4.4,1,9.9,0.2c1-0.2,2-0.1,3.1-0.1
	c0.9,0,1.8,0,2.7,0c2.6,0.1,5.2,0.1,7.9,0c2.6,0.1,5.3,0.1,7.9,0c2.6,0.1,5.2,0.1,7.9,0c2.6,0.1,5.2,0.1,7.7,0
	c2.6,0.1,5.2,0.1,7.9,0c2.6,0.1,5.3,0.1,7.9,0c2.6,0.1,5.2,0.1,7.7,0c2.6,0.1,5.3,0.1,7.9,0c2.6,0.1,5.2,0.1,7.9,0
	c2.6,0.1,5.3,0.1,7.9,0c1.5,0,3,0,4.4,0.1c6.1,0.2,11.2,5.4,11.2,11.5c0,1.4,0,2.8,0,4.1c0,2.6,0,5.3,0,7.9c0,2.6,0,5.2,0,7.7
	c0,2.6,0,5.3,0,7.9c0,2.6,0,5.2,0,7.9c0,2.6,0,5.3,0,7.9c0,2.6,0,5.2,0,7.7c0,2.6,0,5.3,0,7.9c0,2.6,0,5.2,0,7.9c0,2.6,0,5.3,0,7.9
	c0,2.6,0,5.2,0,7.7c0,1.3,0,2.6,0,3.9c0,5.9-4.2,10.8-10,11.7c-1,0.1-1.9,0.2-2.9,0.2c-0.9,0-1.8,0-2.6,0c-2.6,0-5.2,0-7.9,0
	c-2.6,0-5.3,0-7.9,0C75.7,109.8,73.1,109.8,70.5,109.8z M45.2,62.7c-0.2,1-0.1,2-0.1,3.1c0,1.2,0.7,2.2,1.9,2.6
	c0.2,0.2,0.5,0.2,0.8,0.2c2.4,0,4.7,0,7.1,0c2.4,0,4.7,0,7.1,0c0.3,0,0.5,0,0.8-0.2c1.1-0.4,1.8-1.2,1.9-2.4c0-1.2,0.4-2.3,1.2-3.3
	c0.6-0.6,1.2-1.1,1.9-1.6c1-0.6,2-1.2,2.9-1.9c2.3-1.2,4.6-2.6,6.7-4.3c0.4-0.2,0.8-0.5,1.1-0.9c2.3-1.9,4.1-4.2,5.2-7
	c1.1-2.5,1.5-5.2,1.5-7.9c0.1-2.7-0.5-5.3-1.5-7.7c-1.1-2.9-2.8-5.4-5-7.6c-0.1-0.1-0.3-0.3-0.4-0.4c-2.2-2.3-4.7-4.2-7.6-5.6
	c-0.1,0-0.1-0.1-0.2-0.1c-4.9-2.5-10-3.7-15.5-3.4c-3.4,0.1-6.7,0.6-9.9,1.7c-2.1,0.7-4.1,1.6-6,2.8c-2.2,1.3-4.2,2.8-5.9,4.8
	c-0.6,0.6-1.2,1.2-1.7,1.9c-1.3,1.4-2.5,3-3.5,4.6c-0.2,0.4-0.4,0.8-0.4,1.3c-0.2,1,0.3,1.8,1,2.4c0.9,0.7,1.8,1.3,2.7,2
	c1.5,1.2,3.1,2.4,4.7,3.6c0.4,0.3,0.8,0.7,1.3,1c0.6,0.4,1.2,0.6,1.9,0.5c1.1-0.1,1.9-0.7,2.5-1.6c1.7-2,3.3-4.1,5.4-5.7
	c1.3-0.9,2.7-1.6,4.1-2.1c1.2-0.2,2.5-0.4,3.7-0.5c1.4,0,2.7,0.2,4,0.5c1.3,0.4,2.5,0.9,3.7,1.6c0.2,0.2,0.5,0.4,0.7,0.6
	c1.9,1.4,3.1,3.2,3.2,5.6c-0.2,2-1.1,3.6-2.7,4.8c-0.4,0.3-0.7,0.6-1.1,0.8c-1.1,0.7-2.2,1.4-3.3,2.1c-1.6,0.8-3.1,1.6-4.6,2.6
	c-0.5,0.3-1,0.6-1.4,0.9c-1.9,1.3-3.7,2.7-5,4.5c-0.6,0.6-1.1,1.3-1.4,2.1C45.9,58.8,45.4,60.7,45.2,62.7z M66.1,86.3
	c0-3.1-1.1-5.8-3.3-8c-2.2-2.2-4.8-3.3-8-3.3c-3.1,0-5.8,1.1-8,3.3c-2.2,2.2-3.3,4.8-3.3,8c0,3.1,1.1,5.7,3.3,7.8
	c2.2,2.3,4.8,3.4,8,3.3c3.1,0,5.8-1.1,8-3.3C65,92,66.1,89.3,66.1,86.3z"/>
</svg>
