<svg xmlns="http://www.w3.org/2000/svg" xmlns:xlink="http://www.w3.org/1999/xlink" version="1.1" id="Ebene_1" x="0px" y="0px" viewBox="0 0 113.1 84.8" enable-background="new 0 0 113.1 84.8" xml:space="preserve">
<g>
	<path fill="#FFFFFF" d="M42.5,0c1.1,0,2.3,0,3.4,0c1.2,1.2,2.3,2.3,3.5,3.5c1.2,1.2,2.4,2.4,3.6,3.6c1.1,1.2,2.3,2.4,3.5,3.5   c1.1,1.1,2.2,2.2,3.3,3.4c0.1,0.1,0.3,0.2,0.5,0.2c1.1,0,2.2,0,3.3,0c2.3,0,4.7,0,7,0c2.4,0,4.7,0,7.1,0c2.4,0,4.7,0,7.1,0   c2.4,0,4.7,0,7.1,0c2.3,0,4.7,0,7,0c1.3,0,2.7,0,4,0c5.1,0.1,9.6,4.3,10.1,9.3c0.2,1.6,0,3.2,0.1,4.8c0,2.4,0,4.7,0,7.1   c0,2.4,0,4.7,0,7.1c0,2.3,0,4.6,0,7c0,2.4,0,4.7,0,7.1c0,2.4,0,4.7,0,7.1c0,2.4,0,4.7,0,7.1c-0.1,1.6,0,3.2-0.1,4.8   c-0.4,4.6-4.4,8.7-9,9.2c-1.7,0.2-3.4,0-5.1,0.1c-2.3,0-4.6,0-7,0c-2.4,0-4.7,0-7.1,0c-2.4,0-4.7,0-7.1,0c-2.4,0-4.7,0-7.1,0   c-2.3,0-4.6,0-7,0c-2.4,0-4.7,0-7.1,0c-2.4,0-4.7,0-7.1,0c-2.3,0-4.7,0-7,0c-2.4,0-4.7,0-7.1,0c-2.4,0-4.7,0-7.1,0   c-2.4,0-4.7,0-7.1,0c-2.3,0-4.7,0-7,0c-1.4,0-2.8,0-4.1,0c-5-0.2-9.5-4.3-10-9.4c-0.2-1.6,0-3.1-0.1-4.7c0-2.4,0-4.7,0-7.1   c0-2.4,0-4.7,0-7.1c0-2.4,0-4.7,0-7.1c0-2.3,0-4.6,0-7c0-2.4,0-4.7,0-7.1c0-2.4,0-4.7,0-7.1c0-2.4,0-4.7,0-7.1c0-2.3,0-4.6,0-7   c0.1-1.6,0-3.2,0.1-4.8c0.5-4.9,4.8-9,9.7-9.3c1.5-0.1,2.9,0,4.4-0.1c0.7,0,1.4,0,2.1,0c6.1,0,12.2,0,18.3,0c0.3,0,0.5,0,0.8,0   C37.8,0,40.1,0,42.5,0z"/>
</g>
</svg>