<?xml version="1.0" encoding="utf-8"?>
<svg version="1.1" id="Ebene_1" xmlns="http://www.w3.org/2000/svg" xmlns:xlink="http://www.w3.org/1999/xlink" x="0px" y="0px"
	 viewBox="0 0 87 116" style="enable-background:new 0 0 87 116;" xml:space="preserve">
<style type="text/css">
	.st0{fill:none;stroke:#FFFFFF;stroke-width:6;stroke-miterlimit:10;}
</style>
<g>
	<path class="st0" d="M82.2,83.8c0,2.1,0,4.3,0,6.4c0,2.1,0,4.4,0,6.5s0,4.4,0,6.5c-0.1,1,0.1,2-0.2,2.9c-0.6,1.6-1.7,2.8-3.3,3.3
		c-0.4,0.1-0.9,0.1-1.4,0.1c-22.4,0-44.7,0-67.2,0c-2.8,0-4.2-1-5.1-3.6c-0.2-1-0.1-1.9-0.1-2.8c0-2.1,0-4.4,0-6.5s0-4.4,0-6.5
		c0-2.1,0-4.3,0-6.4c0-2.1,0-4.4,0-6.5s0-4.4,0-6.5s0-4.4,0-6.5c0-2.1,0-4.3,0-6.4s0-4.4,0-6.5s0-4.4,0-6.5c0-2.1,0-4.4,0-6.5
		c0-2.1,0-4.3,0-6.4s0-4.4,0-6.5s0-4.4,0-6.5s0-4.3,0-6.4C5,12,4.8,10.9,5.1,10c0.5-1.7,1.7-2.8,3.4-3.4c1-0.1,2-0.1,2.8-0.1
		c12.6,0,25.3,0,37.9,0c0.5,0,0.8,0.1,0.7,0.7c0,2,0,3.8,0,5.8c0,2.1,0,4.3,0,6.4s0,4.4,0,6.5s0,4.4,0,6.5c0,0.6,0,1.2,0,1.9
		c0,0.9,0.3,1.7,0.8,2.4c1.3,2,3.4,2.3,5.6,2.1c1.2,0.1,2.5,0,3.7,0.1c0.9,0,1.9,0.1,2.8-0.1c0.8,0.1,1.6,0.1,2.5,0
		c1.3,0,2.7,0.1,4,0c0.8,0.1,1.5,0.1,2.3,0.1c1.4,0,2.8,0.1,4.2-0.1c0.3,0,0.5,0.1,0.7,0.1c1.9,0,3.7,0,5.6,0l0,0c0,2.1,0,4.3,0,6.4
		c0,2.1,0,4.4,0,6.5c0,2.1,0,4.4,0,6.5c0,2.1,0,4.3,0,6.4c0,2.1,0,4.4,0,6.5s0,4.4,0,6.5C82.2,79.6,82.2,81.7,82.2,83.8z"/>
	<path class="st0" d="M82.1,29.7c0.2,0.9,0.1,1.7,0.1,2.6l0,0c-2.1,0-4.3,0-6.3,0c-2.1,0-4.4,0-6.5,0s-4.4,0-6.5,0
		c-0.3,0-0.4,0-0.7,0c-1.9,0-3.8,0-5.8,0c0-2.1,0-4.3,0-6.4s0-4.4,0-6.5s0-4.3,0-6.4c0-2,0-3.9,0-5.9c0-0.4,0.1-0.6,0.5-0.6
		c0.6,0,1.3,0,2,0.2c1,0.4,1.9,0.9,2.6,1.7c0.4,0.4,0.9,0.8,1.2,1.2c1.2,1.2,2.2,2.2,3.4,3.4c1,1.1,2,2.1,3.1,3.1
		c1,1.2,2.1,2.2,3.2,3.2c1.1,1.2,2.1,2.2,3.3,3.3c1.1,1.1,2.1,2.1,3.2,3.2c0.2,0.2,0.3,0.4,0.4,0.5C80.5,27.4,81.5,28.3,82.1,29.7z"
		/>
</g>
</svg>
