<svg xmlns="http://www.w3.org/2000/svg" xmlns:xlink="http://www.w3.org/1999/xlink" x="0px" y="0px"
	 viewBox="0 0 87 116" enable-background="new 0 0 87 116" xml:space="preserve">
<g>
	<path fill="#FFFFFF" d="M87,87.1c0,2.4,0,4.8,0,7.2c0,2.4,0,4.9,0,7.3c0,2.4,0,4.9,0,7.3c-0.1,1.1,0.1,2.2-0.2,3.3
		c-0.7,1.8-1.9,3.1-3.7,3.7c-0.5,0.1-1,0.1-1.6,0.1c-25.2,0-50.4,0-75.7,0c-3.1,0-4.7-1.1-5.8-4c-0.2-1.1-0.1-2.1-0.1-3.2
		c0-2.4,0-4.9,0-7.3c0-2.4,0-4.9,0-7.3c0-2.4,0-4.8,0-7.2c0-2.4,0-4.9,0-7.3c0-2.4,0-4.9,0-7.3c0-2.4,0-4.9,0-7.3c0-2.4,0-4.8,0-7.2
		c0-2.4,0-4.9,0-7.3c0-2.4,0-4.9,0-7.3c0-2.4,0-4.9,0-7.3c0-2.4,0-4.8,0-7.2c0-2.4,0-4.9,0-7.3c0-2.4,0-4.9,0-7.3c0-2.4,0-4.8,0-7.2
		C0.1,6.2-0.1,5,0.2,3.9C0.8,2,2.1,0.8,4,0.1C5.1,0,6.2,0,7.2,0c14.2,0,28.5,0,42.7,0c0.6,0,0.9,0.1,0.8,0.8c0,2.2,0,4.3,0,6.5
		c0,2.4,0,4.8,0,7.2c0,2.4,0,4.9,0,7.3c0,2.4,0,4.9,0,7.3c0,0.7,0,1.4,0,2.1c0,1,0.3,1.9,0.9,2.7c1.5,2.3,3.8,2.6,6.3,2.4
		c1.4,0.1,2.8,0,4.2,0.1c1,0,2.1,0.1,3.1-0.1c0.9,0.1,1.8,0.1,2.8,0c1.5,0,3,0.1,4.5,0c0.9,0.1,1.7,0.1,2.6,0.1
		c1.6,0,3.2,0.1,4.7-0.1c0.3,0,0.6,0.1,0.8,0.1c2.1,0,4.2,0,6.3,0c0,0,0,0,0,0c0,2.4,0,4.8,0,7.2c0,2.4,0,4.9,0,7.3
		c0,2.4,0,4.9,0,7.3c0,2.4,0,4.8,0,7.2c0,2.4,0,4.9,0,7.3c0,2.4,0,4.9,0,7.3C87,82.3,87,84.7,87,87.1z"/>
	<path fill="#FFFFFF" d="M86.9,26.1c0.2,1,0.1,1.9,0.1,2.9c0,0,0,0,0,0c-2.4,0-4.8,0-7.1,0c-2.4,0-4.9,0-7.3,0c-2.4,0-4.9,0-7.3,0
		c-0.3,0-0.5,0-0.8,0c-2.1,0-4.3,0-6.5,0c0-2.4,0-4.8,0-7.2c0-2.4,0-4.9,0-7.3c0-2.4,0-4.8,0-7.2c0-2.2,0-4.4,0-6.6
		C58,0.2,58.1,0,58.6,0c0.7,0,1.5,0,2.2,0.2c1.1,0.4,2.1,1,2.9,1.9c0.5,0.5,1,0.9,1.4,1.4c1.3,1.3,2.5,2.5,3.8,3.8
		c1.1,1.2,2.3,2.4,3.5,3.5c1.1,1.3,2.4,2.5,3.6,3.6c1.2,1.3,2.4,2.5,3.7,3.7c1.2,1.2,2.4,2.4,3.6,3.6c0.2,0.2,0.3,0.4,0.5,0.6
		C85.1,23.5,86.3,24.5,86.9,26.1z"/>
</g>
</svg>
