<svg xmlns="http://www.w3.org/2000/svg" xmlns:xlink="http://www.w3.org/1999/xlink" x="0px" y="0px"
	 viewBox="0 0 96.1 109.7" enable-background="new 0 0 96.1 109.7" xml:space="preserve">
<g>
	<path fill="#FFFFFF" d="M0.1,87.7c0.2-1.9,0.6-3.7,1.1-5.5c0.8-2.4,1.8-4.6,3-6.8C5.1,74.2,6,73,6.9,71.8c1.1-1.1,2.1-2.1,3.2-3.2
		c1.3-0.9,2.6-1.9,3.8-2.8c2.1-1.1,4.3-2.2,6.6-2.9c1.5-0.3,3-0.8,4.5-0.9c0.4,0,0.8,0,1.2-0.2c0.4,0,0.8,0,1.3,0c1.7,0,3.3,0,5-0.1
		c0.6,0.4,1.3,0.6,1.9,0.8c2.2,0.9,4.4,1.6,6.8,1.9c2.3,0.5,4.6,0.7,6.9,0.7c2.3,0,4.6-0.2,6.9-0.7c2.8-0.4,5.5-1.4,8.2-2.5
		c0.4-0.2,0.9-0.3,1.3-0.3c1.4,0,2.8,0,4.2,0.1c0.8,0.1,1.6,0.1,2.4,0.2c1.5,0.3,3,0.6,4.5,1c2.4,0.7,4.7,1.8,6.9,3.1
		c1.2,0.9,2.4,1.7,3.5,2.6c1.1,1,2.2,2.1,3.2,3.2c0.9,1.2,1.9,2.4,2.7,3.7c1.3,2.2,2.3,4.5,3.1,6.9c0.4,1.7,0.7,3.3,1,5
		c0,0.6,0.1,1.2,0.1,1.8c0,2.3,0,4.6,0,6.9c0,1.2,0,2.4,0,3.6c0,5-4.1,9.5-9,10c-0.2,0-0.5,0-0.7,0c-25.5,0-51.1,0-76.6,0
		c-1,0-1.9-0.3-2.8-0.5c-0.1,0-0.1-0.1-0.2-0.1c-4.2-1.7-6.7-5.3-6.7-9.8c0-1.1,0-2.2,0-3.3c0-2.3,0-4.6,0-6.9
		C0,88.7,0.1,88.2,0.1,87.7z"/>
	<path fill="#FFFFFF" d="M41.1,0.9c2.6-0.7,5.3-0.9,8-0.8c0.6,0,1.2,0.1,1.9,0.1c1.3,0.2,2.6,0.5,3.9,0.7c2.3,0.6,4.5,1.6,6.6,2.7
		c1.7,1,3.3,2.2,4.9,3.5c0.7,0.7,1.4,1.4,2.1,2.2c1.2,1.4,2.3,2.9,3.2,4.5c1.2,2.2,2.1,4.5,2.8,6.9c0.2,1.3,0.5,2.6,0.7,3.9
		c0,1,0.1,2,0.1,3c0,0.8-0.1,1.7-0.1,2.5c-0.2,1.5-0.5,2.9-0.8,4.4c-0.7,2.4-1.6,4.6-2.8,6.8c-1,1.6-2,3.1-3.3,4.5
		c-0.8,0.8-1.6,1.6-2.4,2.4c-1.4,1.2-2.9,2.3-4.5,3.3c-0.3,0.1-0.6,0.3-0.8,0.4c-1.9,1-3.9,1.7-5.9,2.3c-1.3,0.2-2.6,0.5-3.9,0.7
		c-1,0.1-2-0.1-3,0.1c-0.9-0.1-1.8-0.1-2.6-0.1c-1.4-0.3-2.8-0.5-4.3-0.8c-2.4-0.6-4.6-1.6-6.8-2.7c-1.6-1-3.2-2.1-4.6-3.4
		c-0.7-0.7-1.4-1.4-2.1-2.1c-1.3-1.5-2.4-3.1-3.5-4.8c-1.1-2.1-2-4.2-2.6-6.5c0-0.1-0.1-0.2-0.2-0.3c-0.2-1-0.4-2.1-0.6-3.1
		c0-0.3,0-0.7,0-1c0,0-0.1-0.1-0.1-0.1c0-0.8,0-1.7,0-2.5c0-0.8,0.1-1.7,0.1-2.5c0.2-1.5,0.4-2.9,0.8-4.4c0.7-2.4,1.6-4.7,2.8-6.9
		c1-1.6,2.1-3.1,3.2-4.5c0.8-0.8,1.5-1.5,2.3-2.3c1.5-1.2,3-2.3,4.6-3.3C36.5,2.4,38.8,1.5,41.1,0.9z"/>
</g>
</svg>
