<?xml version="1.0" encoding="utf-8"?>
<svg version="1.1" id="Ebene_1" xmlns="http://www.w3.org/2000/svg" xmlns:xlink="http://www.w3.org/1999/xlink" x="0px" y="0px"
	 viewBox="0 0 1089.1 1080" style="enable-background:new 0 0 1089.1 1080;" xml:space="preserve">
<style type="text/css">
	.st0{fill:#FFFFFF;}
</style>
<path class="st0" d="M674.4,1029c-16.6,3.2-33,7.7-49.8,10.1c-4.9,0.7-9.7,1.5-14.6,2.2c-66.3,7.6-131.8,4.7-196.5-12.6
	c-21.7-6.6-43.3-13.7-64.4-22.1c-7.9-3.6-15.9-7.2-23.8-10.8c-13.9-7.5-27.8-15-41.7-22.4c-1.8-1.2-3.6-2.4-5.5-3.6
	c-47.3-29.9-89.1-66.2-124.7-109.5c-15.3-18.6-28.7-38.4-41.6-58.7c-7.5-13.5-14.9-27-22.4-40.5c-3.7-8.3-7.3-16.7-11-25
	c-8.6-21.5-15.7-43.4-22.4-65.6c-5.3-21.7-9.6-43.5-13.1-65.5c-2-21.4-3.8-42.8-3.8-64.4C39,518.6,41,496.8,43,475
	c1-5.6,2.1-11.2,2.9-16.9c2.5-16.4,6.9-32.4,10.3-48.6c4.1-12.7,8.3-25.4,12.3-38.1c2.8-8.8,7.2-17,9.2-26.1
	c4.1-7.4,7.5-15,10.6-22.9c7.8-14.3,15.6-28.6,23.5-42.9c0.9-1.3,1.8-2.6,2.6-4c31.5-50.9,70.6-94.9,117.5-132
	c16.6-13.1,34.2-24.9,51.8-36.6c14.3-7.6,28.6-15.2,42.9-22.9c7.6-3.4,15.1-6.9,22.7-10.3c21.6-8.4,43.4-16,65.7-22.4
	c21.2-5,42.5-9.4,64.1-12.6c21.8-2.4,43.6-3.7,65.4-4.1c21.9,0.5,43.8,1.9,65.6,4.1c21.6,3.1,43,7.6,64.3,12.6
	c22.2,6.4,44,13.8,65.5,22.3c8.7,4,17.5,7.9,26.2,11.9c13.1,7.1,26.3,14.2,39.4,21.3c20.3,13.5,40.5,27,59.3,42.5
	c8.6,7,17.1,14.1,24.9,22c2.8,2.8,4.5,3.4,7.4,0.2c7.2-7.9,14.8-15.4,22.3-23c5.8-4.8,11-10,15.8-15.8c9.5-9.3,19.2-18.3,28.4-27.9
	c10.2-10.8,22.4-16.7,37.2-17.3c24.8,2.1,41.4,15,47.4,36.3c2.3,8.2,1,16.5,1.8,24.8c0,21.8,0,43.6,0,65.5c0,21.9,0,43.7,0,65.6
	c0,21.4,0,42.9,0,64.3c0,21.9,0,43.7,0,65.6c-1.1,21.1-10.7,36.5-30.2,45.3c-5.6,2.6-11.8,3-17.7,4.6c-0.7-0.3-1.4-0.9-2-0.9
	c-21.6,0.1-43.2,0.2-64.8,0.3c-21.8-0.5-43.6-0.6-65.4,0c-21.5-0.6-43-0.6-64.4,0c-21.8-0.5-43.6-0.5-65.4,0
	c-3.2-0.1-6.3-0.4-9.5-0.3c-7.2,0.1-14.2-0.5-20.9-3.3c-20.1-8.6-29.7-24.4-31-45.8c0.2-15.4,7.2-27.5,18.2-37.8
	c7.5-7,14.6-14.5,21.8-21.7c1.4-1.4,3.1-2.5,3.5-4.6c6.9-4.6,12.2-11,17.7-17.1c9.5-9.3,19-18.5,28.4-27.8
	c11.1-11,11.1-11.1-2.1-20.7c-8.1-7.6-16.9-14.2-26.2-20.1c-20.1-15-42.1-26.6-65.5-35.7c-9.2-4.6-18.9-7.6-28.7-10.6
	c-11.6-3.8-23.4-7.2-35.6-8.7c-14.4-3.8-29.2-5-44-5.9c-16.6-1-33.1-0.5-49.7,0.8c-24.6,1.8-48.3,6.8-71.9,13.6
	c-10.6,3.1-21.2,6.4-31.2,11.4c-22.8,9.1-44.5,20.4-64.2,35.2c-9.3,5.9-18,12.5-26,20c-14.8,11.4-27.4,25-39.5,39.2
	c-6.9,7.9-13.6,16-19.2,25c-2.6,3.7-5.4,7.3-7.7,11.1c-10.9,17.4-21.3,35-28.2,54.5c-4.9,10.8-9,21.9-11.6,33.5
	c-4.1,10.4-6.5,21.2-8.1,32.2c-4.9,21.6-6.8,43.4-6.1,65.5c-0.7,21.7,1.2,43.2,6.1,64.4c1.7,12.3,5,24.2,9.2,35.9
	c2.6,10.2,6.1,20.2,10.6,29.7c8.9,23.5,21.1,45.2,35.8,65.5c5.4,9.1,12,17.3,19.3,25c12.1,14.8,25.3,28.6,40.4,40.5
	c7.7,7.3,16.1,13.6,25,19.3c20.1,15.2,42.3,26.6,65.6,35.9c8.3,4,16.9,7.1,25.9,9.3c12.3,5.1,25.3,7.7,38.4,10.1
	c21.7,4.5,43.5,6.7,65.7,6.2c11-0.4,22.1-0.3,33.1-1.4c10.9-1.1,22-1.8,32.6-5.2c12.1-1.8,24.1-4.5,35.6-8.7
	c10.5-2.2,20.2-6.4,29.8-10.9c23.1-8.8,44.6-20.6,64.4-35.4c9.4-5.7,18.2-12.3,26-20.1c16.9-11.9,25.3-11.9,39.4-0.1
	c0.4,0.4,0.7,0.7,1.1,1.1c20.7,21.5,41.8,42.6,63.3,63.2c0.4,0.4,0.7,0.7,1.1,1.1c4.3,4.4,8.6,8.7,12.7,13.2
	c9.6,10.4,10.8,22.6,2.3,32.7c-5.4,6.5-11.5,12.7-18.2,17.7c-20.7,15.5-41.6,30.8-63.5,44.6c-13.5,7.2-26.9,14.4-40.4,21.6
	c-8,3.6-15.9,7.2-23.9,10.7C718.5,1015.3,696.5,1022.3,674.4,1029z"/>
</svg>
