<?xml version="1.0" encoding="utf-8"?>
<svg version="1.1" id="Ebene_1" xmlns="http://www.w3.org/2000/svg" xmlns:xlink="http://www.w3.org/1999/xlink" x="0px" y="0px"
	 viewBox="0 0 500 500" style="enable-background:new 0 0 500 500;" xml:space="preserve">
<style type="text/css">
	.st0{fill:#FFFFFF;}
</style>
<g>
	<path class="st0" d="M474.3,148.3c-3.4-2.2-6.7-4.4-10.1-6.6c-8.1-3-16.5-2.9-25-2.8c-10.4,0.1-20.9,0-31.3,0.1
		c-0.5,0-2.3,0.4-3.2-0.6c-0.8-0.9-0.6-2.3-0.5-2.6c0.4-2.8-0.4-19-1.7-42.3c-0.2-3.6-1.2-10.3-6.1-15.3c-2.3-2.3-4.6-3.5-7.5-5
		c-3.3-1.7-8.4-3.8-15.3-4.8C268,68,162.5,67.8,57.1,67.7c-1.8-0.1-26.6-1.6-38.2,15.8c-3.2,4.8-4.6,9.8-5.2,13.9V185
		c2.4,2.8,5.2,4.6,9,3.6c2.6-0.7,4.2-2.4,4.7-5.1c0.3-1.9,0.2-3.9,0.3-5.9c0-5.9,0-11.7,0-17.6c0-4.4,0-8.9-0.2-13.3
		c0-1,0-1.8,0.5-2.3c0.6-0.7,1.7-0.5,1.9-0.5c3.8,0.3,355.4,0.8,358.2,0.4c0.1,0,1-0.2,1.5,0.3c0.3,0.3,0.3,0.8,0.3,1.1
		c0.1,29.1,0.1,52.7,0.2,69.6c0,10.7,0,17.2,0,17.6c0,21.8,0,43.7,0,65.5c0,5.9,0,11.7,0,17.6c0,3.2,0.2,6.4,0.1,9.6
		c-0.6,11.5-10.1,21-21.7,21.7c-3.2,0.2-6.4,0-9.6-0.1c-5.9,0-11.7,0-17.6,0c-21.8,0-43.7,0-65.5,0c-5.9,0-11.7,0-17.6,0
		c-21.8,0-43.7,0-65.5,0c-5.9,0-11.7,0-17.6,0c-21.8,0-43.7,0-65.5,0c-5.9,0-11.7,0-17.6,0c-14.3,0-28.6,0.3-42.9,0
		c-6-0.1-11.3-2.5-15.2-7.3c-4.2-4-6.2-8.9-6.3-14.7c0-21.5,0-43.1,0-64.6c0-5.9,0-11.7,0-17.6c0-4.6-0.2-9.2-0.1-13.8
		c0.1-3.7,0-7.3-4-8.9c-4.1-1.7-7.3,0.1-9.9,3.3v108c2.9,6.4,5.3,13.1,10.3,18.4c8.8,8.3,19.3,11.8,31.4,11.2
		c6.7-0.3,13.4,0,20.2,0.1c5.9,0,11.7,0,17.6,0c2.9-0.9,2.8,1,2.8,3c0,8.7,0.2,17.5-0.1,26.2c-0.4,10.2,1.9,19.4,7.9,27.7
		c5.6,6.3,12.2,10.9,20.5,12.9c0.6,0.2,1.1,0.3,1.3,1.1h249.2c2.9-2.5,4.8-5.4,3.5-9.4c-1.1-3.4-3.9-4.4-7.2-4.6
		c-5.9,0-11.7,0-17.6,0l-65.5,0l-17.6,0l-65.5,0l-17.6,0c-18.6,0-37.1,0.1-55.7,0.1c-2.8,0-5.5-0.7-7.9-2c-4-1.7-7.4-4.1-9.5-8
		c-3.1-3.5-4.2-7.8-4.3-12.3c-0.1-10.6,0-21.2-0.1-31.7c0-2.3,0.4-3.2,3-3.1c15.3,0.2,30.7,0.2,46,0.2c5.9,0,11.7,0,17.6,0
		c21.8,0,43.7,0,65.5,0c5.9,0,11.7,0,17.6,0c21.8,0,43.7,0,65.5,0c5.9,0,11.7,0,17.6,0c8-0.1,16-0.1,24-0.2
		c21.7-0.2,37.7-16.1,37.9-37.9c0.1-8,0.1-16,0.2-24c0-5.9,0-11.7,0-17.6c0-21.4-0.1-42.7-0.2-64.1c0-1.8,0.2-2.8,2.4-2.8
		c21.4,0.2,42.7,0.2,64.1,0.3c2.6-0.6,1.8,1.5,1.8,2.6c0,5.3-0.1,10.7-0.1,16c0,21.8,0,43.7,0,65.5c0,5.9,0,11.7,0,17.6
		c0,21.5,0,43.1,0,64.6c0,5.1,0.3,10.1,0.1,15.2c-0.5,11.6-10.1,21.1-21.7,21.7c-4.7,0.2-9.5,0-14.3-0.1c-5.8,0.1-11.6,0.2-17.4,0.1
		c-3.6,0-7.3,0-8.9,4c-1.7,4.1,0.1,7.3,3.3,9.9h41.5c1.1-1.8,3-0.9,4.5-1.4c12.4-3.9,20.7-12,25.1-24.2c0.5-1.4,0.2-3.1,1.8-3.9
		V169.3C483.7,161.5,480.4,154.1,474.3,148.3z M390.3,127.5c0,1-0.1,1.7-0.5,2.2c-0.7,0.7-1.8,0.6-2,0.6c-3.1-0.2-354.9-0.2-357.9,0
		c-0.1,0-1.2,0.1-1.9-0.5c-0.4-0.4-0.5-1-0.5-1.9c0.1-8.4-0.3-16.9,0.2-25.3c0.7-11.2,10.4-20.5,21.6-20.7c18.9-0.3,37.8,0,56.7,0
		c5.9,0,11.7,0,17.6,0c21.8,0,43.7,0,65.5,0c5.9,0,11.7,0,17.6,0c21.8,0,43.7,0,65.5,0c5.9,0,11.7,0,17.6,0c21.8,0,43.7,0,65.5,0
		c5.9,0.1,11.8-1.1,17.5,0.8c9.6,2.1,17,10.5,17.4,20.4C390.5,111.2,390.3,119.3,390.3,127.5z M470.1,201.3
		c-15.8-0.2-31.6-0.2-47.4-0.3c-5.4,0.1-10.9,0.2-16.3,0.3c-1.8,0.1-2.5-0.6-2.1-2.4c0-14.5-0.1-28.9-0.2-43.4
		c0-2.2,0.6-2.8,2.8-2.8c14.1,0.1,28.3,0.1,42.4,0.2c5.6-0.1,10.5,1.6,14.6,5.4c5.7,4.3,8.2,10.2,8.4,17.1
		c0.2,7.5,0.1,15.1,0.1,22.6C472.5,199.7,472.9,201.3,470.1,201.3z"/>
	<path class="st0" d="M95.8,177.5c5.9,0,11.7,0,17.6,0c21.8,0,43.7,0,65.5,0c5.9,0,11.7,0,17.6,0c21.5,0.1,43.1,0.1,64.6,0.2
		c3.4,2.1,5.3,4.9,4,9.1c-1.3,4.2-4.5,4.8-8.3,4.7c-3.8-0.1-7.6,0.1-11.4,0.1c-21.8,0-43.7,0-65.5,0c-5.9,0-11.7,0-17.6,0
		c-21.8,0-43.7,0-65.5,0c-5.9,0-11.7,0-17.6,0c-6,0-12-0.1-18-0.2c-4.8-0.1-7.6-2.6-7.7-6.7c-0.1-4.3,2.8-7.1,7.7-7.1
		C72.8,177.6,84.3,177.5,95.8,177.5z"/>
	<path class="st0" d="M57.3,216.9c5.7-1.1,11.6-0.1,17.3-0.6c5.6,0.6,8.3,3,8.1,7.3c-0.2,4.4-3.1,6.7-8.6,6.7c-5.4,0-10.7,0-16.1,0
		c-4.4-2.6-5.3-6.4-3.5-11C55.4,218.5,56.3,217.7,57.3,216.9z"/>
	<path class="st0" d="M183.5,271.1c-5.9,0-11.7,0-17.6,0c-21.8,0-43.7,0-65.5,0c-5.9,0-11.7,0-17.6,0c-7.2,0-14.4-0.1-21.6-0.2
		c-4.8-0.1-7.6-2.6-7.7-6.7c-0.1-4.3,2.8-7.1,7.7-7.1c12.7-0.1,25.5-0.1,38.2-0.2c5.9,0,11.7,0,17.6,0c21.8,0,43.7,0,65.5,0
		c4.1,0,8,0.3,9.9,4.9C192.7,268.6,190.8,270.5,183.5,271.1z"/>
	<path class="st0" d="M217,220.1c1.8,7.4-0.7,9.8-10.4,10.3c-21.8,0-43.7,0-65.5,0c-5.9,0-11.7,0-17.6,0c-6.3,0-12.5-0.1-18.8-0.2
		c-4.9-0.1-8-2.9-7.9-7c0-4.1,3.1-6.8,8-6.9c11.8-0.1,23.6-0.1,35.3-0.2c5.9,0,11.7,0,17.6,0c17,0,34,0.2,51,0.1
		C212.2,216.4,215,217.1,217,220.1z"/>
	<path class="st0" d="M59.8,311.7c-4.7-0.8-6.3-4.1-6.4-8.5c1-2.7,2.7-4.7,5.5-5.6c5.9,0,11.7,0,17.6,0c15,0,30,0.1,45,0.2
		c6.4,0,8.6,2.6,8,9.2c-0.8,2-2.3,3.4-4.1,4.5C103.5,311.5,81.7,311.6,59.8,311.7z"/>
	<path class="st0" d="M226,311.7c-5.9,0-11.7,0-17.6,0c-18.1,0-36.3-0.1-54.4-0.1c-2.7,0-5.2-0.2-7.4-1.9c-3.7-7.6-1-12,7.4-12
		c1.8,0,3.6-0.1,5.4-0.1c21.8,0,43.7,0,65.5,0c5.9,0,11.7,0,17.6,0c21.8,0,43.7,0,65.5,0c4.5,0.1,7.5,2.1,8.5,6.6
		c-0.4,4.6-3,7.1-7.5,7.5c-5.9,0-11.7,0-17.6,0C269.7,311.7,247.8,311.7,226,311.7z"/>
	<path class="st0" d="M348.8,256.9c4.3,0.1,8.7-0.2,10.8,4.9c0.3,7-1.6,8.8-9.8,9.3c-5.9,0-11.7,0-17.6,0c-21.8,0-43.7,0-65.5,0
		c-5.9,0-11.7,0-17.6,0c-12.4,0-24.9-0.1-37.3-0.2c-4.9,0-7.9-2.9-7.7-7.1c0.2-4.3,3-6.7,8.2-6.7c17.8-0.1,35.6-0.1,53.5-0.2
		c5.9,0,11.7,0,17.6,0C305.1,256.9,326.9,256.9,348.8,256.9z"/>
	<path class="st0" d="M344.8,311.5c-2.6,0-5.2,0.2-7.8,0c-3.9-0.3-6.6-3.3-6.6-6.9c0-3.6,2.8-6.7,6.7-6.8c5.4-0.2,10.8-0.2,16.1,0
		c4,0.1,6.6,3.1,6.5,6.9c0,3.8-2.6,6.6-6.6,6.9C350.3,311.6,347.5,311.5,344.8,311.5z"/>
	<path class="st0" d="M232.4,224.7c0.5-6.1,2.1-7.8,8.4-8.5c21.8,0,43.7,0,65.5,0c5.9,0,11.7,0,17.6,0c9.2,0,18.4,0.1,27.6,0.1
		c5.2,0,8,2.4,8.2,6.7c0.1,4.4-2.9,7.1-8.2,7.1c-14.7,0.1-29.5,0.1-44.2,0.2c-5.9,0-11.7,0-17.6,0c-16.1,0-32.2-0.2-48.3-0.1
		C237,230.4,234,228.9,232.4,224.7z"/>
	<path class="st0" d="M345.1,177.5c4.6,0.8,10-1.5,13.8,3.1c1.9,7.7-0.5,10.8-8.3,10.9c-1.5,0-3,0.1-4.5,0.2c-5.9,0-11.7,0-17.6,0
		c-13.7,0-27.4-0.1-41-0.1c-5.6,0-8.5-2.3-8.6-6.7c-0.1-4.6,2.9-7.1,8.7-7.1C306.7,177.6,325.9,177.5,345.1,177.5z"/>
	<path class="st0" d="M123.3,100.1c3.9-0.1,6.6,2.4,6.8,6.4c0.2,4.1-2.5,7.2-6.4,7.4c-3.7,0.1-6.6-2.6-6.8-6.5
		C116.8,103,119.3,100.1,123.3,100.1z"/>
	<path class="st0" d="M91.2,114c-4.5-1-6.3-4-6.5-8.4c1.1-2.6,2.5-4.9,5.5-5.7c4.8-0.3,7.4,2.1,8.4,6.6
		C98,110.9,95.8,113.6,91.2,114z"/>
	<path class="st0" d="M59.9,100.1c4,0,6.6,2.9,6.5,7.2c-0.1,3.9-3,6.7-6.7,6.6c-3.9-0.1-6.6-3.1-6.5-7.3
		C53.4,102.6,56,100,59.9,100.1z"/>
</g>
</svg>
