<svg xmlns="http://www.w3.org/2000/svg" xmlns:xlink="http://www.w3.org/1999/xlink" version="1.1" id="Ebene_1" x="0px" y="0px" viewBox="0 0 495.6 440" style="enable-background:new 0 0 495.6 440;" xml:space="preserve">
<style type="text/css">
	.st0{fill:#FFFFFF;}
</style>
<path class="st0" d="M0,355.4c0-9,0-18,0-27c0-9.2,0-18.3,0-27.5c0-4.7,0.2-9.5,0.1-14.2c-0.5-18.3,13.4-35.1,30.6-39.3  c6.2-1.5,12.6-1.3,18.9-1.4c1.7,0,3.3-0.1,5-0.1c9.2,0,18.3,0,27.5,0c9,0,18,0,27,0c9.2,0,18.3,0,27.5,0c8.6,0,17.1,0,25.7,0.1  c1.5,0,1.8-0.6,1.8-1.9c0-7.8,0-15.6,0-23.4c0-1.3-0.3-1.9-1.8-1.9c-8.6,0.1-17.1,0.1-25.7,0.1c-9.2,0-18.3,0-27.5,0  c-1.8-0.4-3.7-0.6-5.5-0.4c-1-0.2-2.1-0.4-3.1-0.6c-6.9-1.5-13-4.6-18.3-9.1c-5.2-4.9-9-10.7-11.6-17.3c-2.9-9.1-3.2-18.3-0.1-27.4  c2.5-6.8,6.8-12.3,11.8-17.4c3.5-3.2,6.9-6.6,10.1-10.1c5.8-5.5,11.4-11.1,16.9-16.9c3.5-3.2,6.9-6.6,10.1-10.1  c5.8-5.8,11.6-11.6,17.4-17.4c3.5-3.2,6.9-6.6,10.1-10.1c5.8-5.8,11.6-11.6,17.4-17.4c3.5-3.2,6.9-6.6,10.1-10.1  c5.8-5.8,11.6-11.6,17.4-17.4c3.2-3.2,6.4-6.4,9.6-9.6c5.9-5.9,11.8-11.7,17.8-17.6c8.6-7,18.4-10.5,29.6-9.9c1.7,0.1,3.3,0.3,5,0.4  c7.5,1.7,14.2,5,20,10c5.7,5.7,11.4,11.3,17.1,17c3.1,3.5,6.5,6.8,9.9,9.9c5.5,5.9,11.2,11.5,17.1,17.1c3.3,3.6,6.8,7.1,10.4,10.4  c5.5,5.8,11.2,11.5,17.1,17.1c3.3,3.6,6.8,7.1,10.4,10.4c5.5,5.8,11.2,11.5,17.1,17.1c3.3,3.6,6.8,7.1,10.4,10.4  c5.8,5.9,11.6,11.8,17.4,17.6c3,3.3,6.1,6.5,9.5,9.4c5.1,4.9,9.1,10.4,11.6,17c3.2,9.2,2.9,18.3-0.1,27.5  c-2.6,6.6-6.4,12.4-11.6,17.3c-3.6,2.8-7.3,5.4-11.6,7.1c-2.9,1.1-5.9,1.7-8.8,2.6c-2.2,0-4.4,0.1-6.5,0.5c-17.7,0-35.5,0-53.2-0.1  c-1.8,0-1.8,0.9-1.8,2.2c0,7.7,0.1,15.3,0,23c0,1.8,0.7,2.2,2.3,2.2c4.5-0.1,9,0,13.5,0c13.1,0,26.1-0.1,39.2-0.1c9,0,18,0,27,0  c9.2,0,18.3,0,27.5,0c5.5,0.4,10.9-0.1,16.4,0.3c16.8,1.5,28.3,10.1,35.2,25.3c0.3,0.6,0.6,1.2,0.8,1.8c0.7,2.7,1.3,5.3,2,8  c0,6.5,0,13,0.1,19.5c0,9,0,18,0,27c0,9.2,0,18.3,0,27.5c0,9.2,0,18.3,0,27.5c0,4.9-0.2,9.8,0,14.7c0.5,15.5-10.9,32.7-28.8,38.2  c-3.6,1.1-7.3,1.6-11.1,1.6c-137.3,0-274.6,0-411.8,0c-4.6,0-8.9-1-13.3-2c-3.4-1.6-7-3.2-10.1-5.4c-6.9-5.1-11.8-11.7-14.9-19.6  c-0.6-2-1.3-4-1.9-6c0-7.2-0.1-14.3-0.1-21.5C0,373.7,0,364.6,0,355.4z M246,41.5c-4.9,3.8-8.9,8.5-13.2,12.9  c-4.8,4.8-9.6,9.6-14.4,14.4c-4.4,4.4-8.8,8.7-13.1,13.1c-4.8,4.8-9.6,9.6-14.4,14.4c-4.4,4.4-8.8,8.7-13.1,13.1  c-4.6,4.6-9.2,9.2-13.9,13.9c-4.4,4.4-8.7,8.8-13.1,13.1c-4.8,4.8-9.6,9.6-14.4,14.4c-4.4,4.4-8.8,8.7-13.1,13.1  c-4.4,4.6-8.9,9.2-13.2,13.8c8.7,0,17.5,0,26.4,0c9.2,0.3,18.4,0.3,27.5,0c9.1,0.3,18.3,0.3,27.4,0c3.5,0.4,7.1,0.3,10.6,0.1  c2.5-0.1,3.1,0.7,2.9,3.1c-0.2,3.5,0,7.1,0,10.6c0,9.2,0,18.3,0,27.5c0,9,0,18,0,27c0,9.2,0,18.3,0,27.5c0,9.2,0,18.3,0,27.5  c0,4,0,8-0.1,12c0,1.2,0.3,1.6,1.6,1.6c4-0.1,8-0.1,12-0.1c9.2,0,18.3,0,27.5,0c9.2,0,18.3,0,27.5,0c4,0,8,0,12,0.1  c1.2,0,1.6-0.4,1.6-1.6c-0.1-4-0.1-8-0.1-12c0-9.2,0-18.3,0-27.5c0-9.2,0-18.3,0-27.5c0-9,0-18,0-27c0-9.2,0-18.3,0-27.5  c0-3.7,0.2-7.5,0-11.2c-0.1-2.1,0.7-2.5,2.5-2.4c3.8,0,7.6,0.3,11.5-0.1c9,0.3,18,0.3,27.1,0c9.1,0.3,18.3,0.3,27.4,0  c8.3,0.4,16.6,0.1,24.9,0.2c0.6,0,1.3,0.3,1.6,0c-4.4-4.7-8.8-9.3-13.3-13.9c-4.2-4.6-8.6-9-13.2-13.2c-4.8-4.8-9.6-9.6-14.4-14.4  c-4.2-4.5-8.5-8.9-13.1-13c-4.6-4.6-9.2-9.2-13.8-13.8c-4.2-4.5-8.4-9-13.2-13c-4.4-5.2-9.4-9.8-14.3-14.5c-4.2-4.6-8.6-9-13.2-13.2  c-4.8-4.8-9.5-9.5-14.3-14.3c-3.2-3.3-6.3-6.5-9.5-9.7C248.6,43.6,247.7,42,246,41.5z M41.1,300.9c0,9,0,18,0,27  c-0.5,5-0.2,9.9-0.2,14.9c0,4.2-0.3,8.4,0.2,12.6c0,9.2,0,18.3,0,27.5c-0.5,4.1-0.1,8.1-0.2,12.2c0,1.1,0.5,1.4,1.5,1.4  c4.1-0.1,8.2-0.1,12.2-0.1c3.3,0.5,6.6,0.2,9.9,0.2c5.9,0,11.7,0.3,17.6-0.2c9.2,0,18.3,0,27.5,0c2.8,0.4,5.6,0.2,8.4,0.2  c6.2-0.1,12.4,0.3,18.6-0.2c9.2,0,18.3,0,27.5,0c3.5,0.5,6.9,0.2,10.4,0.2c5.7,0,11.4,0.3,17.1-0.2c9,0,18,0,27,0  c1.2,0.1,2.5,0.2,3.7,0.2c7.9-0.1,15.9,0.3,23.8-0.2c9.2,0,18.3,0,27.5,0c3.8,0.5,7.6,0.2,11.4,0.2c5.4,0,10.7,0.3,16.1-0.2  c9,0,18,0,27,0c0.7,0.1,1.5,0.2,2.2,0.2c25.9,0,51.7,0,77.6,0c0.7,0,1.5-0.1,2.2-0.2c9.2,0,18.3,0,27.5,0c4.1,0.5,8.1,0.1,12.2,0.2  c1.1,0,1.5-0.4,1.4-1.5c-0.1-4.1-0.1-8.2-0.1-12.2c0-9.2,0-18.3,0-27.5c0-9,0-18,0-27c0-9.2,0-18.3,0-27.5c0-4,0-8,0.1-11.9  c0-1.2-0.3-1.8-1.7-1.8c-4,0.1-8,0.1-11.9,0.1c-2.2-0.5-4.5-0.2-6.7-0.2c-7,0.1-13.9-0.3-20.9,0.2c-1.1-0.1-2.1-0.2-3.2-0.2  c-7.9,0.1-15.9-0.3-23.8,0.2c-4.1-0.5-8.3-0.2-12.4-0.2c-5,0-10.1-0.3-15.1,0.2c-8.7-0.5-17.4-0.1-26.1-0.2c-1.2,0-1.3,0.7-1.3,1.6  c0.1,4.1,0.1,8.1,0.1,12.2c0,4.8,0,9.6-0.1,14.5c-0.2,7.8-2.4,15-6.6,21.5c-5,7.7-12.1,12.9-20.4,16.4c-2.2,0.6-4.3,1.1-6.5,1.7  c-2.9,0.3-5.7,0.6-8.6,0.5c-4.1,0-8.3,0.1-12.4,0.1c-9.2-0.2-18.3-0.2-27.5,0c-9.2-0.2-18.4-0.2-27.5,0c-5.2-0.1-10.3-0.1-15.5-0.2  c-5.1-0.1-9.9-1.3-14.5-3.3c-10.7-4.8-18-12.9-22.3-23.7c-0.5-1.8-1.1-3.6-1.6-5.5c0-0.3-0.1-0.6-0.1-1c-0.1-0.3-0.2-0.5-0.3-0.8  c-0.1-6.7-0.2-13.4-0.3-20.2c0-4.1,0-8.1,0.1-12.2c0-1.4-0.6-1.6-1.8-1.6c-3.6,0-7.2,0-10.7,0c-5,0.1-10-0.3-14.9,0.2  c-9-0.4-18-0.3-27,0c-4.5-0.5-8.9-0.2-13.4-0.2c-4.7,0-9.4-0.3-14.1,0.2c-1.7-0.5-3.5-0.2-5.2-0.2c-7.4,0.1-14.9-0.3-22.3,0.2  c-4.1-0.5-8.3-0.1-12.5-0.2c-1,0-1.4,0.5-1.3,1.4C40.9,292.6,40.5,296.8,41.1,300.9z"/>
<path class="st0" d="M384.3,360.7c-0.7-0.7-1.4-1.4-2.1-2.1c-6.7-9.5-6.7-17.5-0.1-27c0.7-0.8,1.5-1.5,2.2-2.3  c2.3-1.3,4.4-2.9,7-3.7c7.3-2.2,13.8-0.6,19.8,3.7c0.7,0.8,1.5,1.5,2.2,2.3c6.7,9.5,6.6,17.4-0.1,27c-0.7,0.7-1.4,1.4-2,2.1  c-2.3,1.5-4.5,3.1-7.2,3.9C396.9,366.6,390.3,365.2,384.3,360.7z"/>
</svg>