<?xml version="1.0" encoding="utf-8"?>
<svg version="1.1" id="Ebene_1" xmlns="http://www.w3.org/2000/svg" xmlns:xlink="http://www.w3.org/1999/xlink" x="0px" y="0px"
	 viewBox="0 0 250 250" style="enable-background:new 0 0 250 250;" xml:space="preserve">
<path fill="#fff" d="M162.7,154.6c4.2-13,8.2-26,12.5-38.9c3.7-11.2,6.9-22.6,11.6-33.3c9.5-21.4,25-36.1,49.2-39.6
	c1.7-0.2,3.4-0.4,5.1-0.4c1.1,0,2.2,0.1,3.9,0.2c-6.9,16.9-13.6,33.4-20.4,49.9c-9.3,22.9-18.5,45.8-27.9,68.6
	c-7.9,19.1-19.2,35.2-39.3,42.8c-6.5,2.5-13.6,3.1-20.5,4.5c-3.6,0.8-4.8-0.6-5.3-4.4c-4.4-31.8-9-63.6-13.6-95.5
	c-0.1-0.9-0.4-1.7-0.9-4.1c-1.3,3-2,4.6-2.7,6.3c-6,15.6-11.5,31.5-18.3,46.7c-4.7,10.5-10.3,20.9-17.3,29.9
	c-10.4,13.4-25.1,19.8-42.1,21c-3.5,0.2-5-0.4-5.6-4.2c-8.5-52.4-17.2-104.7-25.9-157c-0.2-1.4-0.2-2.9-0.4-6c7.1,2,13.7,3,19.6,5.6
	C45.1,56,56.3,72,57.5,94.8c1,18.4,2,36.9,3.1,55.3c0.1,1.4,0.3,2.8,0.7,6c3.7-9.5,6.8-17.4,9.9-25.3c5.4-14,10.7-28,16.2-42
	c5.2-13.3,12.3-25.3,23.7-34.4c10.3-8.3,22.1-12.3,36-12.1c4.9,37.5,9.7,74.8,14.5,112C162,154.5,162.4,154.6,162.7,154.6z"/>
</svg>
